<svg xmlns="http://www.w3.org/2000/svg" width="1600" height="900" viewBox="0 0 1600 900" role="img" aria-labelledby="title"><title id="title">Fondo silk-wave / ink</title><rect x="0" y="0" width="1600" height="900" rx="0" fill="#252826"/><path d="M900,-60 C300,180 1400,650 800,960" fill="none" stroke="#d9c4ce" stroke-width="1.5" opacity=".3"/><path d="M924,-60 C324,180 1424,650 824,960" fill="none" stroke="#d9c4ce" stroke-width="1.5" opacity=".3"/><path d="M948,-60 C348,180 1448,650 848,960" fill="none" stroke="#d9c4ce" stroke-width="1.5" opacity=".3"/><path d="M972,-60 C372,180 1472,650 872,960" fill="none" stroke="#d9c4ce" stroke-width="1.5" opacity=".3"/><path d="M996,-60 C396,180 1496,650 896,960" fill="none" stroke="#d9c4ce" stroke-width="1.5" opacity=".3"/><path d="M1020,-60 C420,180 1520,650 920,960" fill="none" stroke="#d9c4ce" stroke-width="1.5" opacity=".3"/><path d="M1044,-60 C444,180 1544,650 944,960" fill="none" stroke="#d9c4ce" stroke-width="1.5" opacity=".3"/><path d="M1068,-60 C468,180 1568,650 968,960" fill="none" stroke="#d9c4ce" stroke-width="1.5" opacity=".3"/><path d="M1092,-60 C492,180 1592,650 992,960" fill="none" stroke="#d9c4ce" stroke-width="1.5" opacity=".3"/><path d="M1116,-60 C516,180 1616,650 1016,960" fill="none" stroke="#d9c4ce" stroke-width="1.5" opacity=".3"/><path d="M1140,-60 C540,180 1640,650 1040,960" fill="none" stroke="#d9c4ce" stroke-width="1.5" opacity=".3"/><path d="M1164,-60 C564,180 1664,650 1064,960" fill="none" stroke="#d9c4ce" stroke-width="1.5" opacity=".3"/><path d="M1188,-60 C588,180 1688,650 1088,960" fill="none" stroke="#d9c4ce" stroke-width="1.5" opacity=".3"/><path d="M1212,-60 C612,180 1712,650 1112,960" fill="none" stroke="#d9c4ce" stroke-width="1.5" opacity=".3"/><path d="M1236,-60 C636,180 1736,650 1136,960" fill="none" stroke="#d9c4ce" stroke-width="1.5" opacity=".3"/></svg>