<svg width="640" height="317" viewBox="0 0 640 317" fill="none" xmlns="http://www.w3.org/2000/svg">
<g style="mix-blend-mode:plus-lighter">
<path d="M246.901 132.758V157.026L258.931 151.426M246.901 132.758L258.931 151.426M246.901 132.758L255.82 118.447M246.901 132.758L257.273 133.853M258.931 151.426L284.235 136.699M258.931 151.426L257.273 133.853M255.82 118.447L268.472 126.574M255.82 118.447L257.273 133.853M255.82 118.447L264.116 111.81M284.235 136.699L278.324 120.936M284.235 136.699L337.541 107.039M284.235 136.699L268.472 126.574M284.235 136.699L257.273 133.853M284.235 136.699L268.472 116.787M272.413 105.172L284.235 98.535M272.413 105.172L278.324 120.936M272.413 105.172L264.116 111.81M284.235 98.535L278.324 120.936M284.235 98.535L301.866 108.491M284.235 98.535L297.925 92.7275M278.324 120.936L319.496 118.447L301.866 108.491M278.324 120.936L301.866 108.491M278.324 120.936L268.472 116.787M311.614 86.9199L301.866 108.491M311.614 86.9199L337.541 107.039M311.614 86.9199L325.096 76.3418M311.614 86.9199H334.222M311.614 86.9199L297.925 92.7275M301.866 108.491L337.541 107.039M301.866 108.491L334.222 86.9199M301.866 108.491L297.925 92.7275M337.541 107.039L334.222 86.9199M337.541 107.039L351.645 94.3868M334.222 86.9199L325.096 76.3418M334.222 86.9199L352.267 79.453M334.222 86.9199L351.645 94.3868M334.222 86.9199V61.408M325.096 76.3418L334.222 61.408M351.645 94.3868L352.267 79.453M352.267 79.453L334.222 61.408M268.472 116.787V126.574M268.472 116.787L264.116 111.81M268.472 126.574L257.273 133.853" stroke="url(#paint0_linear_664_1318)" stroke-width="0.834608" stroke-linecap="round"/>
<path d="M442.447 214.887L442.907 188.553L430.125 194.409M442.447 214.887L430.125 194.409M442.447 214.887L432.778 230.254M442.447 214.887L431.539 213.509M430.125 194.409L403.183 209.924M430.125 194.409L431.539 213.509M432.778 230.254L419.601 221.202M432.778 230.254L431.539 213.509M432.778 230.254L423.911 237.304M403.183 209.924L409.113 227.139M403.183 209.924L346.454 241.131M403.183 209.924L419.601 221.202M403.183 209.924L431.539 213.509M403.183 209.924L419.415 231.822M415.043 244.354L402.46 251.34M415.043 244.354L409.113 227.139M415.043 244.354L423.911 237.304M402.46 251.34L409.113 227.139M402.46 251.34L384.072 240.211M402.46 251.34L387.926 257.39M409.113 227.139L365.684 229.083L384.072 240.211M409.113 227.139L384.072 240.211M409.113 227.139L419.415 231.822M373.392 263.441L384.072 240.211M373.392 263.441L346.454 241.131M373.392 263.441L358.986 274.672M373.392 263.441L349.57 263.025M373.392 263.441L387.926 257.39M384.072 240.211L346.454 241.131M384.072 240.211L349.57 263.025M384.072 240.211L387.926 257.39M346.454 241.131L349.57 263.025M346.454 241.131L331.354 254.601M349.57 263.025L358.986 274.672M349.57 263.025L330.415 270.796M349.57 263.025L331.354 254.601M349.57 263.025L349.087 290.71M358.986 274.672L349.087 290.71M331.354 254.601L330.415 270.796M330.415 270.796L349.087 290.71M419.415 231.822L419.601 221.202M419.415 231.822L423.911 237.304M419.601 221.202L431.539 213.509" stroke="url(#paint1_linear_664_1318)" stroke-width="0.834608" stroke-linecap="round"/>
<path d="M399.143 182.952L427.144 165.99M399.143 182.952L419.262 158.892M399.143 182.952L413.979 149.571M399.143 182.952L388.461 173.515M377.779 164.078L413.979 149.571M377.779 164.078L388.461 173.515M377.779 164.078L364.712 147.07M377.779 164.078L400.906 145.514M424.032 126.951L433.159 141.884M424.032 126.951L413.979 149.571M424.032 126.951L400.906 145.514M424.032 126.951L392.92 125.084M424.032 126.951L417.603 120.728M427.144 165.99L442.285 156.818L433.159 141.884M427.144 165.99L433.159 141.884M427.144 165.99L419.262 158.892M433.159 141.884L413.979 149.571M433.159 141.884L419.262 158.892M419.262 158.892L413.979 149.571M413.979 149.571L388.461 173.515M364.712 147.07L400.906 145.514M364.712 147.07L370.934 117.617M364.712 147.07L392.92 125.084M400.906 145.514L392.92 125.084M400.906 145.514L370.934 117.617M392.92 125.084L370.934 117.617M392.92 125.084L416.949 120.844M392.92 125.084L403.032 100.505M370.934 117.617L388.461 96.6682M370.934 117.617L417.603 104.343M388.461 96.6682L416.949 120.844M388.461 96.6682L403.032 100.505M388.461 96.6682L417.603 78.001M417.603 104.343V120.728M417.603 104.343V78.001M417.603 104.343L413.979 103.388M417.603 120.728L416.949 120.844M403.032 100.505L417.603 78.001M403.032 100.505L413.979 103.388M417.603 78.001L413.979 103.388" stroke="url(#paint2_linear_664_1318)" stroke-width="0.834608" stroke-linecap="round"/>
<path d="M281.744 169.263L254.988 181.501M281.744 169.263L266.793 190.13M281.744 169.263L272.557 199.163M281.744 169.263L294.868 175.486M304.352 184.819L272.557 199.163M304.352 184.819L294.868 175.486M304.352 184.819L319.08 202.529M304.352 184.819L285.824 202.529M264.738 222.514L252.293 208.879M264.738 222.514L272.557 199.163M264.738 222.514L285.824 202.529M264.738 222.514L294.868 222.514M264.738 222.514L271.094 228.82M254.988 181.501L244.202 196.02L252.293 208.879M254.988 181.501L252.293 208.879M254.988 181.501L266.793 190.13M252.293 208.879L272.557 199.163M252.293 208.879L266.793 190.13M266.793 190.13L272.557 199.163M272.557 199.163L294.868 175.486M319.08 202.529L285.824 202.529M319.08 202.529L317.215 228.82M319.08 202.529L294.868 222.514M285.824 202.529L294.868 222.514M285.824 202.529L317.215 228.82M294.868 222.514L317.215 228.82M294.868 222.514L271.094 228.006M294.868 222.514L286.057 247.588M317.215 228.82L300.809 250.657M317.215 228.82L272.557 243.725M300.809 250.657L271.094 228.006M300.809 250.657L286.057 247.588M300.809 250.657L272.684 270.824M272.557 243.725L271.094 228.82M272.557 243.725L272.684 270.824M272.557 243.725L274.974 245.282M271.094 228.82L271.094 228.006M286.057 247.588L272.684 270.824M286.057 247.588L274.974 245.282M272.684 270.824L274.974 245.282" stroke="url(#paint3_linear_664_1318)" stroke-width="0.834608" stroke-linecap="round"/>
<path d="M357.038 217.591L354.341 211.99M357.038 217.591L368.238 203.486M357.038 217.591L352.786 165.53M354.341 211.99L319.703 146.655M354.341 211.99L368.238 203.486M354.341 211.99L331.466 187.101M314.31 168.433L312.651 157.026M314.31 168.433L371.557 192.701M314.31 168.433L334.222 138.358M314.31 168.433L352.786 165.53M314.31 168.433L331.466 187.101M312.651 157.026L319.703 146.655M312.651 157.026L368.238 203.486M312.651 157.026L335.259 146.655M319.703 146.655L334.222 138.358M319.703 146.655L370.312 184.404M334.222 138.358L335.259 146.655M335.259 146.655L352.786 165.53M370.312 184.404L371.557 192.701M370.312 184.404L352.786 165.53M371.557 192.701L368.238 203.486M368.238 203.486L352.786 165.53M352.786 165.53L331.466 187.101" stroke="url(#paint4_linear_664_1318)" stroke-width="0.834608" stroke-linecap="round"/>
</g>
<g style="mix-blend-mode:soft-light">
<path d="M246.901 132.758V157.026L258.931 151.426M246.901 132.758L258.931 151.426M246.901 132.758L255.82 118.447M246.901 132.758L257.273 133.853M258.931 151.426L284.235 136.699M258.931 151.426L257.273 133.853M255.82 118.447L268.472 126.574M255.82 118.447L257.273 133.853M255.82 118.447L264.116 111.81M284.235 136.699L278.324 120.936M284.235 136.699L337.541 107.039M284.235 136.699L268.472 126.574M284.235 136.699L257.273 133.853M284.235 136.699L268.472 116.787M272.413 105.172L284.235 98.535M272.413 105.172L278.324 120.936M272.413 105.172L264.116 111.81M284.235 98.535L278.324 120.936M284.235 98.535L301.866 108.491M284.235 98.535L297.925 92.7275M278.324 120.936L319.496 118.447L301.866 108.491M278.324 120.936L301.866 108.491M278.324 120.936L268.472 116.787M311.614 86.9199L301.866 108.491M311.614 86.9199L337.541 107.039M311.614 86.9199L325.096 76.3418M311.614 86.9199H334.222M311.614 86.9199L297.925 92.7275M301.866 108.491L337.541 107.039M301.866 108.491L334.222 86.9199M301.866 108.491L297.925 92.7275M337.541 107.039L334.222 86.9199M337.541 107.039L351.645 94.3868M334.222 86.9199L325.096 76.3418M334.222 86.9199L352.267 79.453M334.222 86.9199L351.645 94.3868M334.222 86.9199V61.408M325.096 76.3418L334.222 61.408M351.645 94.3868L352.267 79.453M352.267 79.453L334.222 61.408M268.472 116.787V126.574M268.472 116.787L264.116 111.81M268.472 126.574L257.273 133.853" stroke="white" stroke-width="0.834608" stroke-linecap="round"/>
<path d="M442.447 214.887L442.907 188.553L430.125 194.409M442.447 214.887L430.125 194.409M442.447 214.887L432.778 230.254M442.447 214.887L431.539 213.509M430.125 194.409L403.183 209.924M430.125 194.409L431.539 213.509M432.778 230.254L419.601 221.202M432.778 230.254L431.539 213.509M432.778 230.254L423.911 237.304M403.183 209.924L409.113 227.139M403.183 209.924L346.454 241.131M403.183 209.924L419.601 221.202M403.183 209.924L431.539 213.509M403.183 209.924L419.415 231.822M415.043 244.354L402.46 251.34M415.043 244.354L409.113 227.139M415.043 244.354L423.911 237.304M402.46 251.34L409.113 227.139M402.46 251.34L384.072 240.211M402.46 251.34L387.926 257.39M409.113 227.139L365.684 229.083L384.072 240.211M409.113 227.139L384.072 240.211M409.113 227.139L419.415 231.822M373.392 263.441L384.072 240.211M373.392 263.441L346.454 241.131M373.392 263.441L358.986 274.672M373.392 263.441L349.57 263.025M373.392 263.441L387.926 257.39M384.072 240.211L346.454 241.131M384.072 240.211L349.57 263.025M384.072 240.211L387.926 257.39M346.454 241.131L349.57 263.025M346.454 241.131L331.354 254.601M349.57 263.025L358.986 274.672M349.57 263.025L330.415 270.796M349.57 263.025L331.354 254.601M349.57 263.025L349.087 290.71M358.986 274.672L349.087 290.71M331.354 254.601L330.415 270.796M330.415 270.796L349.087 290.71M419.415 231.822L419.601 221.202M419.415 231.822L423.911 237.304M419.601 221.202L431.539 213.509" stroke="white" stroke-width="0.834608" stroke-linecap="round"/>
<path d="M399.143 182.952L427.144 165.99M399.143 182.952L419.262 158.892M399.143 182.952L413.979 149.571M399.143 182.952L388.461 173.515M377.779 164.078L413.979 149.571M377.779 164.078L388.461 173.515M377.779 164.078L364.712 147.07M377.779 164.078L400.906 145.514M424.032 126.951L433.159 141.884M424.032 126.951L413.979 149.571M424.032 126.951L400.906 145.514M424.032 126.951L392.92 125.084M424.032 126.951L417.603 120.728M427.144 165.99L442.285 156.818L433.159 141.884M427.144 165.99L433.159 141.884M427.144 165.99L419.262 158.892M433.159 141.884L413.979 149.571M433.159 141.884L419.262 158.892M419.262 158.892L413.979 149.571M413.979 149.571L388.461 173.515M364.712 147.07L400.906 145.514M364.712 147.07L370.934 117.617M364.712 147.07L392.92 125.084M400.906 145.514L392.92 125.084M400.906 145.514L370.934 117.617M392.92 125.084L370.934 117.617M392.92 125.084L416.949 120.844M392.92 125.084L403.032 100.505M370.934 117.617L388.461 96.6682M370.934 117.617L417.603 104.343M388.461 96.6682L416.949 120.844M388.461 96.6682L403.032 100.505M388.461 96.6682L417.603 78.001M417.603 104.343V120.728M417.603 104.343V78.001M417.603 104.343L413.979 103.388M417.603 120.728L416.949 120.844M403.032 100.505L417.603 78.001M403.032 100.505L413.979 103.388M417.603 78.001L413.979 103.388" stroke="white" stroke-width="0.834608" stroke-linecap="round"/>
<path d="M281.744 169.263L254.988 181.501M281.744 169.263L266.793 190.13M281.744 169.263L272.557 199.163M281.744 169.263L294.868 175.486M304.352 184.819L272.557 199.163M304.352 184.819L294.868 175.486M304.352 184.819L319.08 202.529M304.352 184.819L285.824 202.529M264.738 222.514L252.293 208.879M264.738 222.514L272.557 199.163M264.738 222.514L285.824 202.529M264.738 222.514L294.868 222.514M264.738 222.514L271.094 228.82M254.988 181.501L244.202 196.02L252.293 208.879M254.988 181.501L252.293 208.879M254.988 181.501L266.793 190.13M252.293 208.879L272.557 199.163M252.293 208.879L266.793 190.13M266.793 190.13L272.557 199.163M272.557 199.163L294.868 175.486M319.08 202.529L285.824 202.529M319.08 202.529L317.215 228.82M319.08 202.529L294.868 222.514M285.824 202.529L294.868 222.514M285.824 202.529L317.215 228.82M294.868 222.514L317.215 228.82M294.868 222.514L271.094 228.006M294.868 222.514L286.057 247.588M317.215 228.82L300.809 250.657M317.215 228.82L272.557 243.725M300.809 250.657L271.094 228.006M300.809 250.657L286.057 247.588M300.809 250.657L272.684 270.824M272.557 243.725L271.094 228.82M272.557 243.725L272.684 270.824M272.557 243.725L274.974 245.282M271.094 228.82L271.094 228.006M286.057 247.588L272.684 270.824M286.057 247.588L274.974 245.282M272.684 270.824L274.974 245.282" stroke="white" stroke-width="0.834608" stroke-linecap="round"/>
<path d="M357.038 217.591L354.341 211.99M357.038 217.591L368.238 203.486M357.038 217.591L352.786 165.53M354.341 211.99L319.703 146.655M354.341 211.99L368.238 203.486M354.341 211.99L331.466 187.101M314.31 168.433L312.651 157.026M314.31 168.433L371.557 192.701M314.31 168.433L334.222 138.358M314.31 168.433L352.786 165.53M314.31 168.433L331.466 187.101M312.651 157.026L319.703 146.655M312.651 157.026L368.238 203.486M312.651 157.026L335.259 146.655M319.703 146.655L334.222 138.358M319.703 146.655L370.312 184.404M334.222 138.358L335.259 146.655M335.259 146.655L352.786 165.53M370.312 184.404L371.557 192.701M370.312 184.404L352.786 165.53M371.557 192.701L368.238 203.486M368.238 203.486L352.786 165.53M352.786 165.53L331.466 187.101" stroke="white" stroke-width="0.834608" stroke-linecap="round"/>
</g>
<path d="M482.394 4.61364V3.36364H491.121V4.61364H487.462V15H486.053V4.61364H482.394ZM495.394 15.1818C494.606 15.1818 493.915 14.9943 493.32 14.6193C492.729 14.2443 492.267 13.7197 491.934 13.0455C491.604 12.3712 491.44 11.5833 491.44 10.6818C491.44 9.77273 491.604 8.97917 491.934 8.30114C492.267 7.62311 492.729 7.09659 493.32 6.72159C493.915 6.34659 494.606 6.15909 495.394 6.15909C496.182 6.15909 496.871 6.34659 497.462 6.72159C498.057 7.09659 498.519 7.62311 498.849 8.30114C499.182 8.97917 499.349 9.77273 499.349 10.6818C499.349 11.5833 499.182 12.3712 498.849 13.0455C498.519 13.7197 498.057 14.2443 497.462 14.6193C496.871 14.9943 496.182 15.1818 495.394 15.1818ZM495.394 13.9773C495.993 13.9773 496.485 13.8239 496.871 13.517C497.258 13.2102 497.544 12.8068 497.729 12.3068C497.915 11.8068 498.008 11.2652 498.008 10.6818C498.008 10.0985 497.915 9.55492 497.729 9.05114C497.544 8.54735 497.258 8.14015 496.871 7.82955C496.485 7.51894 495.993 7.36364 495.394 7.36364C494.796 7.36364 494.303 7.51894 493.917 7.82955C493.531 8.14015 493.245 8.54735 493.059 9.05114C492.873 9.55492 492.781 10.0985 492.781 10.6818C492.781 11.2652 492.873 11.8068 493.059 12.3068C493.245 12.8068 493.531 13.2102 493.917 13.517C494.303 13.8239 494.796 13.9773 495.394 13.9773ZM505.191 6.27273V7.40909H500.668V6.27273H505.191ZM501.987 4.18182H503.327V12.5C503.327 12.8788 503.382 13.1629 503.492 13.3523C503.606 13.5379 503.75 13.6629 503.924 13.7273C504.102 13.7879 504.29 13.8182 504.487 13.8182C504.634 13.8182 504.755 13.8106 504.85 13.7955C504.945 13.7765 505.021 13.7614 505.077 13.75L505.35 14.9545C505.259 14.9886 505.132 15.0227 504.969 15.0568C504.807 15.0947 504.6 15.1136 504.35 15.1136C503.971 15.1136 503.6 15.0322 503.237 14.8693C502.877 14.7064 502.577 14.4583 502.339 14.125C502.104 13.7917 501.987 13.3712 501.987 12.8636V4.18182ZM509.776 15.2045C509.223 15.2045 508.721 15.1004 508.271 14.892C507.82 14.6799 507.462 14.375 507.197 13.9773C506.932 13.5758 506.799 13.0909 506.799 12.5227C506.799 12.0227 506.898 11.6174 507.094 11.3068C507.291 10.9924 507.555 10.7462 507.884 10.5682C508.214 10.3902 508.577 10.2576 508.975 10.1705C509.377 10.0795 509.78 10.0076 510.185 9.95455C510.716 9.88636 511.146 9.83523 511.475 9.80114C511.808 9.76326 512.051 9.70076 512.202 9.61364C512.358 9.52652 512.435 9.375 512.435 9.15909V9.11364C512.435 8.55303 512.282 8.11742 511.975 7.80682C511.672 7.49621 511.212 7.34091 510.594 7.34091C509.954 7.34091 509.452 7.48106 509.089 7.76136C508.725 8.04167 508.469 8.34091 508.322 8.65909L507.049 8.20455C507.276 7.67424 507.579 7.26136 507.958 6.96591C508.341 6.66667 508.757 6.45833 509.208 6.34091C509.663 6.2197 510.11 6.15909 510.549 6.15909C510.829 6.15909 511.151 6.19318 511.515 6.26136C511.882 6.32576 512.237 6.46023 512.577 6.66477C512.922 6.86932 513.208 7.17803 513.435 7.59091C513.663 8.00379 513.776 8.55682 513.776 9.25V15H512.435V13.8182H512.367C512.276 14.0076 512.125 14.2102 511.913 14.4261C511.701 14.642 511.418 14.8258 511.066 14.9773C510.714 15.1288 510.284 15.2045 509.776 15.2045ZM509.981 14C510.511 14 510.958 13.8958 511.322 13.6875C511.689 13.4792 511.966 13.2102 512.151 12.8807C512.341 12.5511 512.435 12.2045 512.435 11.8409V10.6136C512.379 10.6818 512.254 10.7443 512.06 10.8011C511.871 10.8542 511.651 10.9015 511.401 10.9432C511.155 10.9811 510.915 11.0152 510.68 11.0455C510.449 11.072 510.261 11.0947 510.117 11.1136C509.769 11.1591 509.443 11.233 509.14 11.3352C508.841 11.4337 508.598 11.5833 508.413 11.7841C508.231 11.9811 508.14 12.25 508.14 12.5909C508.14 13.0568 508.312 13.4091 508.657 13.6477C509.005 13.8826 509.447 14 509.981 14ZM517.565 3.36364V15H516.224V3.36364H517.565ZM524.521 18.2727V6.27273H525.816V7.65909H525.975C526.074 7.50758 526.21 7.31439 526.384 7.07955C526.562 6.84091 526.816 6.62879 527.146 6.44318C527.479 6.25379 527.93 6.15909 528.498 6.15909C529.233 6.15909 529.88 6.3428 530.441 6.71023C531.002 7.07765 531.439 7.59848 531.754 8.27273C532.068 8.94697 532.225 9.74242 532.225 10.6591C532.225 11.5833 532.068 12.3845 531.754 13.0625C531.439 13.7367 531.004 14.2595 530.447 14.6307C529.89 14.9981 529.248 15.1818 528.521 15.1818C527.96 15.1818 527.511 15.089 527.174 14.9034C526.837 14.714 526.577 14.5 526.396 14.2614C526.214 14.0189 526.074 13.8182 525.975 13.6591H525.862V18.2727H524.521ZM525.839 10.6364C525.839 11.2955 525.935 11.8769 526.129 12.3807C526.322 12.8807 526.604 13.2727 526.975 13.5568C527.346 13.8371 527.801 13.9773 528.339 13.9773C528.899 13.9773 529.367 13.8295 529.742 13.5341C530.121 13.2348 530.405 12.8333 530.594 12.3295C530.788 11.822 530.884 11.2576 530.884 10.6364C530.884 10.0227 530.79 9.4697 530.6 8.97727C530.415 8.48106 530.132 8.08902 529.754 7.80114C529.379 7.50947 528.907 7.36364 528.339 7.36364C527.793 7.36364 527.335 7.50189 526.964 7.77841C526.593 8.05114 526.312 8.43371 526.123 8.92614C525.933 9.41477 525.839 9.98485 525.839 10.6364ZM537.93 15.1818C537.089 15.1818 536.363 14.9962 535.754 14.625C535.148 14.25 534.68 13.7273 534.35 13.0568C534.024 12.3826 533.862 11.5985 533.862 10.7045C533.862 9.81061 534.024 9.02273 534.35 8.34091C534.68 7.6553 535.138 7.12121 535.725 6.73864C536.316 6.35227 537.005 6.15909 537.793 6.15909C538.248 6.15909 538.697 6.23485 539.14 6.38636C539.583 6.53788 539.987 6.78409 540.35 7.125C540.714 7.46212 541.004 7.90909 541.219 8.46591C541.435 9.02273 541.543 9.70833 541.543 10.5227V11.0909H534.816V9.93182H540.18C540.18 9.43939 540.081 9 539.884 8.61364C539.691 8.22727 539.415 7.92235 539.055 7.69886C538.699 7.47538 538.278 7.36364 537.793 7.36364C537.259 7.36364 536.797 7.49621 536.407 7.76136C536.021 8.02273 535.723 8.36364 535.515 8.78409C535.307 9.20455 535.202 9.6553 535.202 10.1364V10.9091C535.202 11.5682 535.316 12.1269 535.543 12.5852C535.774 13.0398 536.094 13.3864 536.504 13.625C536.913 13.8598 537.388 13.9773 537.93 13.9773C538.282 13.9773 538.6 13.928 538.884 13.8295C539.172 13.7273 539.42 13.5758 539.629 13.375C539.837 13.1705 539.998 12.9167 540.112 12.6136L541.407 12.9773C541.271 13.4167 541.041 13.803 540.719 14.1364C540.398 14.4659 540 14.7235 539.526 14.9091C539.053 15.0909 538.521 15.1818 537.93 15.1818ZM543.583 15V6.27273H544.879V7.59091H544.969C545.129 7.15909 545.416 6.80871 545.833 6.53977C546.25 6.27083 546.719 6.13636 547.242 6.13636C547.341 6.13636 547.464 6.13826 547.612 6.14205C547.759 6.14583 547.871 6.15152 547.947 6.15909V7.52273C547.901 7.51136 547.797 7.49432 547.634 7.47159C547.475 7.44508 547.307 7.43182 547.129 7.43182C546.704 7.43182 546.326 7.52083 545.992 7.69886C545.663 7.87311 545.401 8.11553 545.208 8.42614C545.019 8.73295 544.924 9.08333 544.924 9.47727V15H543.583ZM555.718 8.22727L554.514 8.56818C554.438 8.36742 554.326 8.17235 554.178 7.98295C554.034 7.78977 553.837 7.63068 553.587 7.50568C553.337 7.38068 553.017 7.31818 552.627 7.31818C552.093 7.31818 551.648 7.44129 551.292 7.6875C550.94 7.92992 550.764 8.23864 550.764 8.61364C550.764 8.94697 550.885 9.21023 551.127 9.40341C551.37 9.59659 551.748 9.75758 552.264 9.88636L553.559 10.2045C554.339 10.3939 554.921 10.6837 555.303 11.0739C555.686 11.4602 555.877 11.9583 555.877 12.5682C555.877 13.0682 555.733 13.5152 555.445 13.9091C555.161 14.303 554.764 14.6136 554.252 14.8409C553.741 15.0682 553.146 15.1818 552.468 15.1818C551.578 15.1818 550.841 14.9886 550.258 14.6023C549.674 14.2159 549.305 13.6515 549.15 12.9091L550.423 12.5909C550.544 13.0606 550.773 13.4129 551.11 13.6477C551.451 13.8826 551.896 14 552.445 14C553.07 14 553.567 13.8674 553.934 13.6023C554.305 13.3333 554.491 13.0114 554.491 12.6364C554.491 12.3333 554.385 12.0795 554.173 11.875C553.96 11.6667 553.635 11.5114 553.195 11.4091L551.741 11.0682C550.942 10.8788 550.354 10.5852 549.979 10.1875C549.608 9.78598 549.423 9.28409 549.423 8.68182C549.423 8.18939 549.561 7.75379 549.837 7.375C550.118 6.99621 550.498 6.69886 550.979 6.48295C551.464 6.26705 552.014 6.15909 552.627 6.15909C553.491 6.15909 554.169 6.34848 554.661 6.72727C555.157 7.10606 555.51 7.60606 555.718 8.22727ZM561.441 15.1818C560.653 15.1818 559.962 14.9943 559.367 14.6193C558.776 14.2443 558.314 13.7197 557.981 13.0455C557.651 12.3712 557.487 11.5833 557.487 10.6818C557.487 9.77273 557.651 8.97917 557.981 8.30114C558.314 7.62311 558.776 7.09659 559.367 6.72159C559.962 6.34659 560.653 6.15909 561.441 6.15909C562.229 6.15909 562.918 6.34659 563.509 6.72159C564.104 7.09659 564.566 7.62311 564.896 8.30114C565.229 8.97917 565.396 9.77273 565.396 10.6818C565.396 11.5833 565.229 12.3712 564.896 13.0455C564.566 13.7197 564.104 14.2443 563.509 14.6193C562.918 14.9943 562.229 15.1818 561.441 15.1818ZM561.441 13.9773C562.04 13.9773 562.532 13.8239 562.918 13.517C563.305 13.2102 563.591 12.8068 563.776 12.3068C563.962 11.8068 564.055 11.2652 564.055 10.6818C564.055 10.0985 563.962 9.55492 563.776 9.05114C563.591 8.54735 563.305 8.14015 562.918 7.82955C562.532 7.51894 562.04 7.36364 561.441 7.36364C560.843 7.36364 560.35 7.51894 559.964 7.82955C559.577 8.14015 559.291 8.54735 559.106 9.05114C558.92 9.55492 558.827 10.0985 558.827 10.6818C558.827 11.2652 558.92 11.8068 559.106 12.3068C559.291 12.8068 559.577 13.2102 559.964 13.517C560.35 13.8239 560.843 13.9773 561.441 13.9773ZM568.783 9.75V15H567.442V6.27273H568.738V7.63636H568.852C569.056 7.19318 569.367 6.83712 569.783 6.56818C570.2 6.29545 570.738 6.15909 571.397 6.15909C571.988 6.15909 572.505 6.2803 572.948 6.52273C573.391 6.76136 573.736 7.125 573.982 7.61364C574.228 8.09848 574.352 8.71212 574.352 9.45455V15H573.011V9.54545C573.011 8.85985 572.833 8.32576 572.477 7.94318C572.121 7.55682 571.632 7.36364 571.011 7.36364C570.583 7.36364 570.2 7.45644 569.863 7.64205C569.53 7.82765 569.266 8.09848 569.073 8.45455C568.88 8.81061 568.783 9.24242 568.783 9.75ZM579.37 15.2045C578.817 15.2045 578.315 15.1004 577.864 14.892C577.414 14.6799 577.056 14.375 576.79 13.9773C576.525 13.5758 576.393 13.0909 576.393 12.5227C576.393 12.0227 576.491 11.6174 576.688 11.3068C576.885 10.9924 577.148 10.7462 577.478 10.5682C577.808 10.3902 578.171 10.2576 578.569 10.1705C578.97 10.0795 579.374 10.0076 579.779 9.95455C580.309 9.88636 580.739 9.83523 581.069 9.80114C581.402 9.76326 581.645 9.70076 581.796 9.61364C581.951 9.52652 582.029 9.375 582.029 9.15909V9.11364C582.029 8.55303 581.876 8.11742 581.569 7.80682C581.266 7.49621 580.806 7.34091 580.188 7.34091C579.548 7.34091 579.046 7.48106 578.683 7.76136C578.319 8.04167 578.063 8.34091 577.915 8.65909L576.643 8.20455C576.87 7.67424 577.173 7.26136 577.552 6.96591C577.934 6.66667 578.351 6.45833 578.802 6.34091C579.256 6.2197 579.703 6.15909 580.143 6.15909C580.423 6.15909 580.745 6.19318 581.109 6.26136C581.476 6.32576 581.83 6.46023 582.171 6.66477C582.516 6.86932 582.802 7.17803 583.029 7.59091C583.256 8.00379 583.37 8.55682 583.37 9.25V15H582.029V13.8182H581.961C581.87 14.0076 581.719 14.2102 581.506 14.4261C581.294 14.642 581.012 14.8258 580.66 14.9773C580.308 15.1288 579.878 15.2045 579.37 15.2045ZM579.575 14C580.105 14 580.552 13.8958 580.915 13.6875C581.283 13.4792 581.559 13.2102 581.745 12.8807C581.934 12.5511 582.029 12.2045 582.029 11.8409V10.6136C581.972 10.6818 581.847 10.7443 581.654 10.8011C581.465 10.8542 581.245 10.9015 580.995 10.9432C580.749 10.9811 580.508 11.0152 580.273 11.0455C580.042 11.072 579.855 11.0947 579.711 11.1136C579.362 11.1591 579.037 11.233 578.734 11.3352C578.434 11.4337 578.192 11.5833 578.006 11.7841C577.825 11.9811 577.734 12.25 577.734 12.5909C577.734 13.0568 577.906 13.4091 578.251 13.6477C578.599 13.8826 579.04 14 579.575 14ZM587.158 3.36364V15H585.817V3.36364H587.158ZM589.614 15V6.27273H590.955V15H589.614ZM590.296 4.81818C590.035 4.81818 589.809 4.72917 589.62 4.55114C589.434 4.37311 589.342 4.15909 589.342 3.90909C589.342 3.65909 589.434 3.44508 589.62 3.26705C589.809 3.08902 590.035 3 590.296 3C590.558 3 590.781 3.08902 590.967 3.26705C591.156 3.44508 591.251 3.65909 591.251 3.90909C591.251 4.15909 591.156 4.37311 590.967 4.55114C590.781 4.72917 590.558 4.81818 590.296 4.81818ZM593.161 15V13.9773L598.116 7.61364V7.52273H593.32V6.27273H599.843V7.34091L595.025 13.6591V13.75H600.002V15H593.161ZM604.636 15.2045C604.083 15.2045 603.581 15.1004 603.13 14.892C602.679 14.6799 602.321 14.375 602.056 13.9773C601.791 13.5758 601.658 13.0909 601.658 12.5227C601.658 12.0227 601.757 11.6174 601.954 11.3068C602.151 10.9924 602.414 10.7462 602.744 10.5682C603.073 10.3902 603.437 10.2576 603.835 10.1705C604.236 10.0795 604.639 10.0076 605.045 9.95455C605.575 9.88636 606.005 9.83523 606.335 9.80114C606.668 9.76326 606.91 9.70076 607.062 9.61364C607.217 9.52652 607.295 9.375 607.295 9.15909V9.11364C607.295 8.55303 607.141 8.11742 606.835 7.80682C606.531 7.49621 606.071 7.34091 605.454 7.34091C604.814 7.34091 604.312 7.48106 603.948 7.76136C603.585 8.04167 603.329 8.34091 603.181 8.65909L601.908 8.20455C602.136 7.67424 602.439 7.26136 602.817 6.96591C603.2 6.66667 603.617 6.45833 604.067 6.34091C604.522 6.2197 604.969 6.15909 605.408 6.15909C605.689 6.15909 606.011 6.19318 606.374 6.26136C606.742 6.32576 607.096 6.46023 607.437 6.66477C607.781 6.86932 608.067 7.17803 608.295 7.59091C608.522 8.00379 608.636 8.55682 608.636 9.25V15H607.295V13.8182H607.227C607.136 14.0076 606.984 14.2102 606.772 14.4261C606.56 14.642 606.278 14.8258 605.925 14.9773C605.573 15.1288 605.143 15.2045 604.636 15.2045ZM604.84 14C605.371 14 605.817 13.8958 606.181 13.6875C606.549 13.4792 606.825 13.2102 607.011 12.8807C607.2 12.5511 607.295 12.2045 607.295 11.8409V10.6136C607.238 10.6818 607.113 10.7443 606.92 10.8011C606.73 10.8542 606.511 10.9015 606.261 10.9432C606.014 10.9811 605.774 11.0152 605.539 11.0455C605.308 11.072 605.121 11.0947 604.977 11.1136C604.628 11.1591 604.302 11.233 603.999 11.3352C603.7 11.4337 603.458 11.5833 603.272 11.7841C603.09 11.9811 602.999 12.25 602.999 12.5909C602.999 13.0568 603.172 13.4091 603.516 13.6477C603.865 13.8826 604.306 14 604.84 14ZM614.879 6.27273V7.40909H610.356V6.27273H614.879ZM611.674 4.18182H613.015V12.5C613.015 12.8788 613.07 13.1629 613.18 13.3523C613.293 13.5379 613.437 13.6629 613.612 13.7273C613.79 13.7879 613.977 13.8182 614.174 13.8182C614.322 13.8182 614.443 13.8106 614.538 13.7955C614.632 13.7765 614.708 13.7614 614.765 13.75L615.038 14.9545C614.947 14.9886 614.82 15.0227 614.657 15.0568C614.494 15.0947 614.288 15.1136 614.038 15.1136C613.659 15.1136 613.288 15.0322 612.924 14.8693C612.564 14.7064 612.265 14.4583 612.026 14.125C611.791 13.7917 611.674 13.3712 611.674 12.8636V4.18182ZM616.896 15V6.27273H618.237V15H616.896ZM617.577 4.81818C617.316 4.81818 617.091 4.72917 616.901 4.55114C616.716 4.37311 616.623 4.15909 616.623 3.90909C616.623 3.65909 616.716 3.44508 616.901 3.26705C617.091 3.08902 617.316 3 617.577 3C617.839 3 618.062 3.08902 618.248 3.26705C618.437 3.44508 618.532 3.65909 618.532 3.90909C618.532 4.15909 618.437 4.37311 618.248 4.55114C618.062 4.72917 617.839 4.81818 617.577 4.81818ZM624.238 15.1818C623.45 15.1818 622.759 14.9943 622.164 14.6193C621.573 14.2443 621.111 13.7197 620.778 13.0455C620.448 12.3712 620.283 11.5833 620.283 10.6818C620.283 9.77273 620.448 8.97917 620.778 8.30114C621.111 7.62311 621.573 7.09659 622.164 6.72159C622.759 6.34659 623.45 6.15909 624.238 6.15909C625.026 6.15909 625.715 6.34659 626.306 6.72159C626.901 7.09659 627.363 7.62311 627.692 8.30114C628.026 8.97917 628.192 9.77273 628.192 10.6818C628.192 11.5833 628.026 12.3712 627.692 13.0455C627.363 13.7197 626.901 14.2443 626.306 14.6193C625.715 14.9943 625.026 15.1818 624.238 15.1818ZM624.238 13.9773C624.836 13.9773 625.329 13.8239 625.715 13.517C626.102 13.2102 626.388 12.8068 626.573 12.3068C626.759 11.8068 626.852 11.2652 626.852 10.6818C626.852 10.0985 626.759 9.55492 626.573 9.05114C626.388 8.54735 626.102 8.14015 625.715 7.82955C625.329 7.51894 624.836 7.36364 624.238 7.36364C623.639 7.36364 623.147 7.51894 622.761 7.82955C622.374 8.14015 622.088 8.54735 621.903 9.05114C621.717 9.55492 621.624 10.0985 621.624 10.6818C621.624 11.2652 621.717 11.8068 621.903 12.3068C622.088 12.8068 622.374 13.2102 622.761 13.517C623.147 13.8239 623.639 13.9773 624.238 13.9773ZM631.58 9.75V15H630.239V6.27273H631.535V7.63636H631.648C631.853 7.19318 632.164 6.83712 632.58 6.56818C632.997 6.29545 633.535 6.15909 634.194 6.15909C634.785 6.15909 635.302 6.2803 635.745 6.52273C636.188 6.76136 636.533 7.125 636.779 7.61364C637.025 8.09848 637.148 8.71212 637.148 9.45455V15H635.808V9.54545C635.808 8.85985 635.63 8.32576 635.273 7.94318C634.917 7.55682 634.429 7.36364 633.808 7.36364C633.38 7.36364 632.997 7.45644 632.66 7.64205C632.326 7.82765 632.063 8.09848 631.87 8.45455C631.677 8.81061 631.58 9.24242 631.58 9.75Z" fill="white"/>
<path d="M333.495 50C333.495 51.6574 334.839 53.001 336.496 53.001C338.154 53.001 339.497 51.6574 339.497 50C339.497 48.3426 338.154 46.999 336.496 46.999C334.839 46.999 333.495 48.3426 333.495 50ZM336.496 10V9.43732H335.934V10H336.496ZM463.495 10C463.495 11.6574 464.839 13.001 466.496 13.001C468.154 13.001 469.497 11.6574 469.497 10C469.497 8.34261 468.154 6.99903 466.496 6.99903C464.839 6.99903 463.495 8.34261 463.495 10ZM337.059 50V10H335.934V50H337.059ZM336.496 10.5627H466.496V9.43732H336.496V10.5627Z" fill="white"/>
<path d="M548.635 71.3636V83H547.226V71.3636H548.635ZM552.619 77.75V83H551.278V74.2727H552.574V75.6364H552.688C552.892 75.1932 553.203 74.8371 553.619 74.5682C554.036 74.2955 554.574 74.1591 555.233 74.1591C555.824 74.1591 556.341 74.2803 556.784 74.5227C557.227 74.7614 557.572 75.125 557.818 75.6136C558.064 76.0985 558.188 76.7121 558.188 77.4545V83H556.847V77.5455C556.847 76.8598 556.669 76.3258 556.313 75.9432C555.956 75.5568 555.468 75.3636 554.847 75.3636C554.419 75.3636 554.036 75.4564 553.699 75.642C553.366 75.8277 553.102 76.0985 552.909 76.4545C552.716 76.8106 552.619 77.2424 552.619 77.75ZM561.979 77.75V83H560.638V74.2727H561.933V75.6364H562.047C562.251 75.1932 562.562 74.8371 562.979 74.5682C563.395 74.2955 563.933 74.1591 564.592 74.1591C565.183 74.1591 565.7 74.2803 566.143 74.5227C566.587 74.7614 566.931 75.125 567.178 75.6136C567.424 76.0985 567.547 76.7121 567.547 77.4545V83H566.206V77.5455C566.206 76.8598 566.028 76.3258 565.672 75.9432C565.316 75.5568 564.827 75.3636 564.206 75.3636C563.778 75.3636 563.395 75.4564 563.058 75.642C562.725 75.8277 562.462 76.0985 562.268 76.4545C562.075 76.8106 561.979 77.2424 561.979 77.75ZM573.543 83.1818C572.755 83.1818 572.063 82.9943 571.469 82.6193C570.878 82.2443 570.416 81.7197 570.082 81.0455C569.753 80.3712 569.588 79.5833 569.588 78.6818C569.588 77.7727 569.753 76.9792 570.082 76.3011C570.416 75.6231 570.878 75.0966 571.469 74.7216C572.063 74.3466 572.755 74.1591 573.543 74.1591C574.331 74.1591 575.02 74.3466 575.611 74.7216C576.206 75.0966 576.668 75.6231 576.997 76.3011C577.331 76.9792 577.497 77.7727 577.497 78.6818C577.497 79.5833 577.331 80.3712 576.997 81.0455C576.668 81.7197 576.206 82.2443 575.611 82.6193C575.02 82.9943 574.331 83.1818 573.543 83.1818ZM573.543 81.9773C574.141 81.9773 574.634 81.8239 575.02 81.517C575.406 81.2102 575.692 80.8068 575.878 80.3068C576.063 79.8068 576.156 79.2652 576.156 78.6818C576.156 78.0985 576.063 77.5549 575.878 77.0511C575.692 76.5473 575.406 76.1402 575.02 75.8295C574.634 75.5189 574.141 75.3636 573.543 75.3636C572.944 75.3636 572.452 75.5189 572.065 75.8295C571.679 76.1402 571.393 76.5473 571.207 77.0511C571.022 77.5549 570.929 78.0985 570.929 78.6818C570.929 79.2652 571.022 79.8068 571.207 80.3068C571.393 80.8068 571.679 81.2102 572.065 81.517C572.452 81.8239 572.944 81.9773 573.543 81.9773ZM586.368 74.2727L583.141 83H581.777L578.55 74.2727H580.004L582.413 81.2273H582.504L584.913 74.2727H586.368ZM590.44 83.2045C589.887 83.2045 589.385 83.1004 588.935 82.892C588.484 82.6799 588.126 82.375 587.861 81.9773C587.596 81.5758 587.463 81.0909 587.463 80.5227C587.463 80.0227 587.562 79.6174 587.759 79.3068C587.956 78.9924 588.219 78.7462 588.548 78.5682C588.878 78.3902 589.241 78.2576 589.639 78.1705C590.041 78.0795 590.444 78.0076 590.849 77.9545C591.38 77.8864 591.81 77.8352 592.139 77.8011C592.473 77.7633 592.715 77.7008 592.866 77.6136C593.022 77.5265 593.099 77.375 593.099 77.1591V77.1136C593.099 76.553 592.946 76.1174 592.639 75.8068C592.336 75.4962 591.876 75.3409 591.259 75.3409C590.618 75.3409 590.116 75.4811 589.753 75.7614C589.389 76.0417 589.134 76.3409 588.986 76.6591L587.713 76.2045C587.94 75.6742 588.243 75.2614 588.622 74.9659C589.005 74.6667 589.421 74.4583 589.872 74.3409C590.327 74.2197 590.774 74.1591 591.213 74.1591C591.493 74.1591 591.815 74.1932 592.179 74.2614C592.546 74.3258 592.901 74.4602 593.241 74.6648C593.586 74.8693 593.872 75.178 594.099 75.5909C594.327 76.0038 594.44 76.5568 594.44 77.25V83H593.099V81.8182H593.031C592.94 82.0076 592.789 82.2102 592.577 82.4261C592.365 82.642 592.082 82.8258 591.73 82.9773C591.378 83.1288 590.948 83.2045 590.44 83.2045ZM590.645 82C591.175 82 591.622 81.8958 591.986 81.6875C592.353 81.4792 592.63 81.2102 592.815 80.8807C593.005 80.5511 593.099 80.2045 593.099 79.8409V78.6136C593.043 78.6818 592.918 78.7443 592.724 78.8011C592.535 78.8542 592.315 78.9015 592.065 78.9432C591.819 78.9811 591.579 79.0152 591.344 79.0455C591.113 79.072 590.925 79.0947 590.781 79.1136C590.433 79.1591 590.107 79.233 589.804 79.3352C589.505 79.4337 589.262 79.5833 589.077 79.7841C588.895 79.9811 588.804 80.25 588.804 80.5909C588.804 81.0568 588.976 81.4091 589.321 81.6477C589.67 81.8826 590.111 82 590.645 82ZM600.683 74.2727V75.4091H596.161V74.2727H600.683ZM597.479 72.1818H598.82V80.5C598.82 80.8788 598.875 81.1629 598.984 81.3523C599.098 81.5379 599.242 81.6629 599.416 81.7273C599.594 81.7879 599.782 81.8182 599.979 81.8182C600.126 81.8182 600.248 81.8106 600.342 81.7955C600.437 81.7765 600.513 81.7614 600.57 81.75L600.842 82.9545C600.751 82.9886 600.625 83.0227 600.462 83.0568C600.299 83.0947 600.092 83.1136 599.842 83.1136C599.464 83.1136 599.092 83.0322 598.729 82.8693C598.369 82.7064 598.07 82.4583 597.831 82.125C597.596 81.7917 597.479 81.3712 597.479 80.8636V72.1818ZM602.7 83V74.2727H604.041V83H602.7ZM603.382 72.8182C603.121 72.8182 602.895 72.7292 602.706 72.5511C602.52 72.3731 602.428 72.1591 602.428 71.9091C602.428 71.6591 602.52 71.4451 602.706 71.267C602.895 71.089 603.121 71 603.382 71C603.643 71 603.867 71.089 604.053 71.267C604.242 71.4451 604.337 71.6591 604.337 71.9091C604.337 72.1591 604.242 72.3731 604.053 72.5511C603.867 72.7292 603.643 72.8182 603.382 72.8182ZM610.043 83.1818C609.255 83.1818 608.563 82.9943 607.969 82.6193C607.378 82.2443 606.916 81.7197 606.582 81.0455C606.253 80.3712 606.088 79.5833 606.088 78.6818C606.088 77.7727 606.253 76.9792 606.582 76.3011C606.916 75.6231 607.378 75.0966 607.969 74.7216C608.563 74.3466 609.255 74.1591 610.043 74.1591C610.831 74.1591 611.52 74.3466 612.111 74.7216C612.706 75.0966 613.168 75.6231 613.497 76.3011C613.831 76.9792 613.997 77.7727 613.997 78.6818C613.997 79.5833 613.831 80.3712 613.497 81.0455C613.168 81.7197 612.706 82.2443 612.111 82.6193C611.52 82.9943 610.831 83.1818 610.043 83.1818ZM610.043 81.9773C610.641 81.9773 611.134 81.8239 611.52 81.517C611.906 81.2102 612.192 80.8068 612.378 80.3068C612.563 79.8068 612.656 79.2652 612.656 78.6818C612.656 78.0985 612.563 77.5549 612.378 77.0511C612.192 76.5473 611.906 76.1402 611.52 75.8295C611.134 75.5189 610.641 75.3636 610.043 75.3636C609.444 75.3636 608.952 75.5189 608.565 75.8295C608.179 76.1402 607.893 76.5473 607.707 77.0511C607.522 77.5549 607.429 78.0985 607.429 78.6818C607.429 79.2652 607.522 79.8068 607.707 80.3068C607.893 80.8068 608.179 81.2102 608.565 81.517C608.952 81.8239 609.444 81.9773 610.043 81.9773ZM617.385 77.75V83H616.044V74.2727H617.339V75.6364H617.453C617.658 75.1932 617.968 74.8371 618.385 74.5682C618.802 74.2955 619.339 74.1591 619.999 74.1591C620.589 74.1591 621.107 74.2803 621.55 74.5227C621.993 74.7614 622.338 75.125 622.584 75.6136C622.83 76.0985 622.953 76.7121 622.953 77.4545V83H621.612V77.5455C621.612 76.8598 621.434 76.3258 621.078 75.9432C620.722 75.5568 620.233 75.3636 619.612 75.3636C619.184 75.3636 618.802 75.4564 618.464 75.642C618.131 75.8277 617.868 76.0985 617.675 76.4545C617.482 76.8106 617.385 77.2424 617.385 77.75Z" fill="white"/>
<path d="M431.495 78C431.495 79.6574 432.839 81.001 434.496 81.001C436.154 81.001 437.497 79.6574 437.497 78C437.497 76.3426 436.154 74.999 434.496 74.999C432.839 74.999 431.495 76.3426 431.495 78ZM525.495 78C525.495 79.6574 526.839 81.001 528.496 81.001C530.154 81.001 531.497 79.6574 531.497 78C531.497 76.3426 530.154 74.999 528.496 74.999C526.839 74.999 525.495 76.3426 525.495 78ZM434.496 78.5627H528.496V77.4373H434.496V78.5627Z" fill="white"/>
<path d="M539.68 194H538.202L542.475 182.364H543.93L548.202 194H546.725L543.248 184.205H543.157L539.68 194ZM540.225 189.455H546.18V190.705H540.225V189.455ZM551.424 182.364V194H550.015V182.364H551.424ZM560.158 182.364V194H558.749V182.364H560.158ZM564.143 188.75V194H562.802V185.273H564.097V186.636H564.211C564.415 186.193 564.726 185.837 565.143 185.568C565.559 185.295 566.097 185.159 566.756 185.159C567.347 185.159 567.864 185.28 568.308 185.523C568.751 185.761 569.095 186.125 569.342 186.614C569.588 187.098 569.711 187.712 569.711 188.455V194H568.37V188.545C568.37 187.86 568.192 187.326 567.836 186.943C567.48 186.557 566.991 186.364 566.37 186.364C565.942 186.364 565.559 186.456 565.222 186.642C564.889 186.828 564.626 187.098 564.433 187.455C564.239 187.811 564.143 188.242 564.143 188.75ZM575.957 185.273V186.409H571.434V185.273H575.957ZM572.752 183.182H574.093V191.5C574.093 191.879 574.148 192.163 574.258 192.352C574.371 192.538 574.515 192.663 574.69 192.727C574.868 192.788 575.055 192.818 575.252 192.818C575.4 192.818 575.521 192.811 575.616 192.795C575.71 192.777 575.786 192.761 575.843 192.75L576.116 193.955C576.025 193.989 575.898 194.023 575.735 194.057C575.572 194.095 575.366 194.114 575.116 194.114C574.737 194.114 574.366 194.032 574.002 193.869C573.642 193.706 573.343 193.458 573.104 193.125C572.87 192.792 572.752 192.371 572.752 191.864V183.182ZM581.539 194.182C580.698 194.182 579.973 193.996 579.363 193.625C578.757 193.25 578.289 192.727 577.96 192.057C577.634 191.383 577.471 190.598 577.471 189.705C577.471 188.811 577.634 188.023 577.96 187.341C578.289 186.655 578.747 186.121 579.335 185.739C579.925 185.352 580.615 185.159 581.403 185.159C581.857 185.159 582.306 185.235 582.749 185.386C583.192 185.538 583.596 185.784 583.96 186.125C584.323 186.462 584.613 186.909 584.829 187.466C585.045 188.023 585.153 188.708 585.153 189.523V190.091H578.425V188.932H583.789C583.789 188.439 583.691 188 583.494 187.614C583.3 187.227 583.024 186.922 582.664 186.699C582.308 186.475 581.888 186.364 581.403 186.364C580.869 186.364 580.406 186.496 580.016 186.761C579.63 187.023 579.333 187.364 579.124 187.784C578.916 188.205 578.812 188.655 578.812 189.136V189.909C578.812 190.568 578.925 191.127 579.153 191.585C579.384 192.04 579.704 192.386 580.113 192.625C580.522 192.86 580.997 192.977 581.539 192.977C581.891 192.977 582.21 192.928 582.494 192.83C582.781 192.727 583.03 192.576 583.238 192.375C583.446 192.17 583.607 191.917 583.721 191.614L585.016 191.977C584.88 192.417 584.651 192.803 584.329 193.136C584.007 193.466 583.609 193.723 583.136 193.909C582.662 194.091 582.13 194.182 581.539 194.182ZM590.715 197.455C590.067 197.455 589.511 197.371 589.045 197.205C588.579 197.042 588.191 196.826 587.88 196.557C587.573 196.292 587.329 196.008 587.147 195.705L588.215 194.955C588.336 195.114 588.49 195.295 588.675 195.5C588.861 195.708 589.115 195.888 589.437 196.04C589.763 196.195 590.189 196.273 590.715 196.273C591.42 196.273 592.001 196.102 592.46 195.761C592.918 195.42 593.147 194.886 593.147 194.159V192.386H593.033C592.935 192.545 592.795 192.742 592.613 192.977C592.435 193.208 592.177 193.415 591.84 193.597C591.507 193.775 591.056 193.864 590.488 193.864C589.783 193.864 589.151 193.697 588.59 193.364C588.033 193.03 587.592 192.545 587.266 191.909C586.944 191.273 586.783 190.5 586.783 189.591C586.783 188.697 586.941 187.919 587.255 187.256C587.569 186.589 588.007 186.074 588.567 185.71C589.128 185.343 589.776 185.159 590.511 185.159C591.079 185.159 591.53 185.254 591.863 185.443C592.2 185.629 592.458 185.841 592.636 186.08C592.817 186.314 592.958 186.508 593.056 186.659H593.192V185.273H594.488V194.25C594.488 195 594.317 195.61 593.977 196.08C593.639 196.553 593.185 196.9 592.613 197.119C592.045 197.343 591.412 197.455 590.715 197.455ZM590.67 192.659C591.208 192.659 591.662 192.536 592.033 192.29C592.405 192.044 592.687 191.689 592.88 191.227C593.073 190.765 593.17 190.212 593.17 189.568C593.17 188.939 593.075 188.384 592.886 187.903C592.696 187.422 592.416 187.045 592.045 186.773C591.674 186.5 591.215 186.364 590.67 186.364C590.102 186.364 589.628 186.508 589.249 186.795C588.874 187.083 588.592 187.47 588.403 187.955C588.217 188.439 588.124 188.977 588.124 189.568C588.124 190.174 588.219 190.71 588.408 191.176C588.602 191.638 588.886 192.002 589.261 192.267C589.639 192.528 590.109 192.659 590.67 192.659ZM596.942 194V185.273H598.238V186.591H598.329C598.488 186.159 598.776 185.809 599.192 185.54C599.609 185.271 600.079 185.136 600.602 185.136C600.7 185.136 600.823 185.138 600.971 185.142C601.119 185.146 601.23 185.152 601.306 185.159V186.523C601.261 186.511 601.156 186.494 600.994 186.472C600.835 186.445 600.666 186.432 600.488 186.432C600.064 186.432 599.685 186.521 599.352 186.699C599.022 186.873 598.761 187.116 598.567 187.426C598.378 187.733 598.283 188.083 598.283 188.477V194H596.942ZM605.464 194.205C604.911 194.205 604.409 194.1 603.958 193.892C603.507 193.68 603.149 193.375 602.884 192.977C602.619 192.576 602.487 192.091 602.487 191.523C602.487 191.023 602.585 190.617 602.782 190.307C602.979 189.992 603.242 189.746 603.572 189.568C603.901 189.39 604.265 189.258 604.663 189.17C605.064 189.08 605.468 189.008 605.873 188.955C606.403 188.886 606.833 188.835 607.163 188.801C607.496 188.763 607.738 188.701 607.89 188.614C608.045 188.527 608.123 188.375 608.123 188.159V188.114C608.123 187.553 607.969 187.117 607.663 186.807C607.36 186.496 606.899 186.341 606.282 186.341C605.642 186.341 605.14 186.481 604.776 186.761C604.413 187.042 604.157 187.341 604.009 187.659L602.737 187.205C602.964 186.674 603.267 186.261 603.646 185.966C604.028 185.667 604.445 185.458 604.896 185.341C605.35 185.22 605.797 185.159 606.237 185.159C606.517 185.159 606.839 185.193 607.202 185.261C607.57 185.326 607.924 185.46 608.265 185.665C608.61 185.869 608.896 186.178 609.123 186.591C609.35 187.004 609.464 187.557 609.464 188.25V194H608.123V192.818H608.055C607.964 193.008 607.812 193.21 607.6 193.426C607.388 193.642 607.106 193.826 606.754 193.977C606.401 194.129 605.971 194.205 605.464 194.205ZM605.668 193C606.199 193 606.646 192.896 607.009 192.688C607.377 192.479 607.653 192.21 607.839 191.881C608.028 191.551 608.123 191.205 608.123 190.841V189.614C608.066 189.682 607.941 189.744 607.748 189.801C607.558 189.854 607.339 189.902 607.089 189.943C606.843 189.981 606.602 190.015 606.367 190.045C606.136 190.072 605.949 190.095 605.805 190.114C605.456 190.159 605.13 190.233 604.827 190.335C604.528 190.434 604.286 190.583 604.1 190.784C603.918 190.981 603.827 191.25 603.827 191.591C603.827 192.057 604 192.409 604.344 192.648C604.693 192.883 605.134 193 605.668 193ZM615.707 185.273V186.409H611.184V185.273H615.707ZM612.502 183.182H613.843V191.5C613.843 191.879 613.898 192.163 614.008 192.352C614.121 192.538 614.265 192.663 614.44 192.727C614.618 192.788 614.805 192.818 615.002 192.818C615.15 192.818 615.271 192.811 615.366 192.795C615.46 192.777 615.536 192.761 615.593 192.75L615.866 193.955C615.775 193.989 615.648 194.023 615.485 194.057C615.322 194.095 615.116 194.114 614.866 194.114C614.487 194.114 614.116 194.032 613.752 193.869C613.392 193.706 613.093 193.458 612.854 193.125C612.62 192.792 612.502 192.371 612.502 191.864V183.182ZM617.724 194V185.273H619.065V194H617.724ZM618.406 183.818C618.144 183.818 617.919 183.729 617.729 183.551C617.544 183.373 617.451 183.159 617.451 182.909C617.451 182.659 617.544 182.445 617.729 182.267C617.919 182.089 618.144 182 618.406 182C618.667 182 618.89 182.089 619.076 182.267C619.265 182.445 619.36 182.659 619.36 182.909C619.36 183.159 619.265 183.373 619.076 183.551C618.89 183.729 618.667 183.818 618.406 183.818ZM625.066 194.182C624.278 194.182 623.587 193.994 622.992 193.619C622.401 193.244 621.939 192.72 621.606 192.045C621.276 191.371 621.112 190.583 621.112 189.682C621.112 188.773 621.276 187.979 621.606 187.301C621.939 186.623 622.401 186.097 622.992 185.722C623.587 185.347 624.278 185.159 625.066 185.159C625.854 185.159 626.543 185.347 627.134 185.722C627.729 186.097 628.191 186.623 628.521 187.301C628.854 187.979 629.021 188.773 629.021 189.682C629.021 190.583 628.854 191.371 628.521 192.045C628.191 192.72 627.729 193.244 627.134 193.619C626.543 193.994 625.854 194.182 625.066 194.182ZM625.066 192.977C625.665 192.977 626.157 192.824 626.543 192.517C626.93 192.21 627.216 191.807 627.401 191.307C627.587 190.807 627.68 190.265 627.68 189.682C627.68 189.098 627.587 188.555 627.401 188.051C627.216 187.547 626.93 187.14 626.543 186.83C626.157 186.519 625.665 186.364 625.066 186.364C624.468 186.364 623.975 186.519 623.589 186.83C623.202 187.14 622.916 187.547 622.731 188.051C622.545 188.555 622.452 189.098 622.452 189.682C622.452 190.265 622.545 190.807 622.731 191.307C622.916 191.807 623.202 192.21 623.589 192.517C623.975 192.824 624.468 192.977 625.066 192.977ZM632.408 188.75V194H631.067V185.273H632.363V186.636H632.477C632.681 186.193 632.992 185.837 633.408 185.568C633.825 185.295 634.363 185.159 635.022 185.159C635.613 185.159 636.13 185.28 636.573 185.523C637.016 185.761 637.361 186.125 637.607 186.614C637.853 187.098 637.977 187.712 637.977 188.455V194H636.636V188.545C636.636 187.86 636.458 187.326 636.102 186.943C635.746 186.557 635.257 186.364 634.636 186.364C634.208 186.364 633.825 186.456 633.488 186.642C633.155 186.828 632.891 187.098 632.698 187.455C632.505 187.811 632.408 188.242 632.408 188.75Z" fill="white"/>
<path d="M448.495 154C448.495 155.657 449.839 157.001 451.496 157.001C453.154 157.001 454.497 155.657 454.497 154C454.497 152.343 453.154 150.999 451.496 150.999C449.839 150.999 448.495 152.343 448.495 154ZM472.738 154H473.301V153.437H472.738V154ZM472.738 189H472.175V189.563H472.738V189ZM518.495 189C518.495 190.657 519.839 192.001 521.496 192.001C523.154 192.001 524.497 190.657 524.497 189C524.497 187.343 523.154 185.999 521.496 185.999C519.839 185.999 518.495 187.343 518.495 189ZM451.496 154.563H472.738V153.437H451.496V154.563ZM472.175 154V189H473.301V154H472.175ZM472.738 189.563H521.496V188.437H472.738V189.563Z" fill="white"/>
<path d="M15.3047 199.364H16.8502L18.1456 201.068L18.4865 201.523L20.4183 204.091H18.8729L17.6002 202.386L17.282 201.955L15.3047 199.364ZM20.8956 197.182C20.8956 198.409 20.674 199.47 20.2308 200.364C19.7877 201.258 19.1797 201.947 18.407 202.432C17.6342 202.917 16.7517 203.159 15.7592 203.159C14.7668 203.159 13.8842 202.917 13.1115 202.432C12.3388 201.947 11.7308 201.258 11.2877 200.364C10.8445 199.47 10.6229 198.409 10.6229 197.182C10.6229 195.955 10.8445 194.894 11.2877 194C11.7308 193.106 12.3388 192.417 13.1115 191.932C13.8842 191.447 14.7668 191.205 15.7592 191.205C16.7517 191.205 17.6342 191.447 18.407 191.932C19.1797 192.417 19.7877 193.106 20.2308 194C20.674 194.894 20.8956 195.955 20.8956 197.182ZM19.532 197.182C19.532 196.174 19.3634 195.324 19.0263 194.631C18.693 193.938 18.2403 193.413 17.6683 193.057C17.1002 192.701 16.4638 192.523 15.7592 192.523C15.0547 192.523 14.4164 192.701 13.8445 193.057C13.2763 193.413 12.8236 193.938 12.4865 194.631C12.1532 195.324 11.9865 196.174 11.9865 197.182C11.9865 198.189 12.1532 199.04 12.4865 199.733C12.8236 200.426 13.2763 200.951 13.8445 201.307C14.4164 201.663 15.0547 201.841 15.7592 201.841C16.4638 201.841 17.1002 201.663 17.6683 201.307C18.2403 200.951 18.693 200.426 19.0263 199.733C19.3634 199.04 19.532 198.189 19.532 197.182ZM28.5831 199.432V194.273H29.924V203H28.5831V201.523H28.4922C28.2877 201.966 27.9695 202.343 27.5377 202.653C27.1058 202.96 26.5604 203.114 25.9013 203.114C25.3558 203.114 24.871 202.994 24.4467 202.756C24.0225 202.513 23.6892 202.15 23.4467 201.665C23.2043 201.176 23.0831 200.561 23.0831 199.818V194.273H24.424V199.727C24.424 200.364 24.602 200.871 24.9581 201.25C25.318 201.629 25.7763 201.818 26.3331 201.818C26.6664 201.818 27.0055 201.733 27.3502 201.562C27.6986 201.392 27.9903 201.131 28.2252 200.778C28.4638 200.426 28.5831 199.977 28.5831 199.432ZM34.9482 203.205C34.3951 203.205 33.8932 203.1 33.4425 202.892C32.9917 202.68 32.6338 202.375 32.3686 201.977C32.1035 201.576 31.9709 201.091 31.9709 200.523C31.9709 200.023 32.0694 199.617 32.2663 199.307C32.4633 198.992 32.7266 198.746 33.0561 198.568C33.3857 198.39 33.7493 198.258 34.147 198.17C34.5485 198.08 34.952 198.008 35.3573 197.955C35.8876 197.886 36.3175 197.835 36.647 197.801C36.9804 197.763 37.2228 197.701 37.3743 197.614C37.5296 197.527 37.6073 197.375 37.6073 197.159V197.114C37.6073 196.553 37.4538 196.117 37.147 195.807C36.844 195.496 36.3838 195.341 35.7663 195.341C35.1262 195.341 34.6243 195.481 34.2607 195.761C33.897 196.042 33.6413 196.341 33.4936 196.659L32.2209 196.205C32.4482 195.674 32.7512 195.261 33.13 194.966C33.5126 194.667 33.9292 194.458 34.38 194.341C34.8345 194.22 35.2815 194.159 35.7209 194.159C36.0012 194.159 36.3232 194.193 36.6868 194.261C37.0542 194.326 37.4084 194.46 37.7493 194.665C38.094 194.869 38.38 195.178 38.6073 195.591C38.8345 196.004 38.9482 196.557 38.9482 197.25V203H37.6073V201.818H37.5391C37.4482 202.008 37.2966 202.21 37.0845 202.426C36.8724 202.642 36.5902 202.826 36.2379 202.977C35.8857 203.129 35.4557 203.205 34.9482 203.205ZM35.1527 202C35.683 202 36.13 201.896 36.4936 201.688C36.861 201.479 37.1376 201.21 37.3232 200.881C37.5126 200.551 37.6073 200.205 37.6073 199.841V198.614C37.5504 198.682 37.4254 198.744 37.2323 198.801C37.0429 198.854 36.8232 198.902 36.5732 198.943C36.327 198.981 36.0864 199.015 35.8516 199.045C35.6205 199.072 35.433 199.095 35.2891 199.114C34.9406 199.159 34.6148 199.233 34.3118 199.335C34.0126 199.434 33.7701 199.583 33.5845 199.784C33.4027 199.981 33.3118 200.25 33.3118 200.591C33.3118 201.057 33.4841 201.409 33.8288 201.648C34.1773 201.883 34.6186 202 35.1527 202ZM42.7365 191.364V203H41.3956V191.364H42.7365ZM45.1925 203V194.273H46.5334V203H45.1925ZM45.8743 192.818C45.6129 192.818 45.3876 192.729 45.1982 192.551C45.0126 192.373 44.9198 192.159 44.9198 191.909C44.9198 191.659 45.0126 191.445 45.1982 191.267C45.3876 191.089 45.6129 191 45.8743 191C46.1357 191 46.3591 191.089 46.5448 191.267C46.7341 191.445 46.8288 191.659 46.8288 191.909C46.8288 192.159 46.7341 192.373 46.5448 192.551C46.3591 192.729 46.1357 192.818 45.8743 192.818ZM52.7848 194.273V195.409H48.2621V194.273H52.7848ZM49.5803 192.182H50.9212V200.5C50.9212 200.879 50.9761 201.163 51.0859 201.352C51.1996 201.538 51.3435 201.663 51.5178 201.727C51.6958 201.788 51.8833 201.818 52.0803 201.818C52.228 201.818 52.3492 201.811 52.4439 201.795C52.5386 201.777 52.6144 201.761 52.6712 201.75L52.9439 202.955C52.853 202.989 52.7261 203.023 52.5632 203.057C52.4003 203.095 52.1939 203.114 51.9439 203.114C51.5651 203.114 51.1939 203.032 50.8303 202.869C50.4704 202.706 50.1712 202.458 49.9325 202.125C49.6977 201.792 49.5803 201.371 49.5803 200.864V192.182ZM55.6655 206.273C55.4382 206.273 55.2356 206.254 55.0575 206.216C54.8795 206.182 54.7564 206.148 54.6882 206.114L55.0291 204.932C55.3549 205.015 55.6428 205.045 55.8928 205.023C56.1428 205 56.3644 204.888 56.5575 204.688C56.7545 204.491 56.9344 204.17 57.0973 203.727L57.3473 203.045L54.12 194.273H55.5746L57.9837 201.227H58.0746L60.4837 194.273H61.9382L58.2337 204.273C58.067 204.723 57.8606 205.097 57.6144 205.392C57.3681 205.691 57.0822 205.913 56.7564 206.057C56.4344 206.201 56.0708 206.273 55.6655 206.273ZM71.5036 203.159C70.7384 203.159 70.0793 203.019 69.5263 202.739C68.9733 202.458 68.5471 202.074 68.2479 201.585C67.9486 201.097 67.799 200.538 67.799 199.909C67.799 199.424 67.9013 198.994 68.1058 198.619C68.3142 198.241 68.6002 197.89 68.9638 197.568C69.3312 197.242 69.7536 196.917 70.2308 196.591L71.9127 195.341C72.2422 195.125 72.5055 194.894 72.7024 194.648C72.9032 194.402 73.0036 194.08 73.0036 193.682C73.0036 193.386 72.8729 193.1 72.6115 192.824C72.3539 192.547 72.0149 192.409 71.5945 192.409C71.299 192.409 71.0377 192.485 70.8104 192.636C70.5869 192.784 70.4108 192.973 70.282 193.205C70.157 193.432 70.0945 193.667 70.0945 193.909C70.0945 194.182 70.1683 194.458 70.3161 194.739C70.4676 195.015 70.6589 195.299 70.8899 195.591C71.1248 195.879 71.3672 196.174 71.6172 196.477L76.9581 203H75.3445L70.9354 197.682C70.5263 197.189 70.1551 196.742 69.8217 196.341C69.4884 195.939 69.2233 195.544 69.0263 195.153C68.8293 194.763 68.7308 194.341 68.7308 193.886C68.7308 193.364 68.8464 192.905 69.0774 192.511C69.3123 192.114 69.6399 191.805 70.0604 191.585C70.4846 191.362 70.9808 191.25 71.549 191.25C72.1324 191.25 72.6342 191.364 73.0547 191.591C73.4752 191.814 73.799 192.112 74.0263 192.483C74.2536 192.85 74.3672 193.25 74.3672 193.682C74.3672 194.239 74.2289 194.722 73.9524 195.131C73.6759 195.54 73.299 195.92 72.8217 196.273L70.5036 198C69.9808 198.386 69.6267 198.761 69.4411 199.125C69.2555 199.489 69.1627 199.75 69.1627 199.909C69.1627 200.273 69.2574 200.612 69.4467 200.926C69.6361 201.241 69.9032 201.494 70.2479 201.688C70.5926 201.881 70.996 201.977 71.4581 201.977C71.8975 201.977 72.3255 201.884 72.7422 201.699C73.1589 201.509 73.5358 201.237 73.8729 200.881C74.2138 200.525 74.4827 200.097 74.6797 199.597C74.8805 199.097 74.9808 198.534 74.9808 197.909H76.2763C76.2763 198.682 76.1873 199.312 76.0092 199.801C75.8312 200.29 75.6305 200.672 75.407 200.949C75.1835 201.225 75.0036 201.432 74.8672 201.568C74.8217 201.625 74.7801 201.682 74.7422 201.739C74.7043 201.795 74.6627 201.852 74.6172 201.909C74.2422 202.33 73.7687 202.644 73.1967 202.852C72.6248 203.057 72.0604 203.159 71.5036 203.159ZM83.1243 203V191.364H90.147V192.614H84.5334V196.545H89.7834V197.795H84.5334V201.75H90.2379V203H83.1243ZM93.505 194.273L95.5959 197.841L97.6868 194.273H99.2323L96.4141 198.636L99.2323 203H97.6868L95.5959 199.614L93.505 203H91.9595L94.7323 198.636L91.9595 194.273H93.505ZM104.332 203.182C103.514 203.182 102.809 202.989 102.218 202.602C101.627 202.216 101.173 201.684 100.854 201.006C100.536 200.328 100.377 199.553 100.377 198.682C100.377 197.795 100.54 197.013 100.866 196.335C101.195 195.653 101.654 195.121 102.241 194.739C102.832 194.352 103.521 194.159 104.309 194.159C104.923 194.159 105.476 194.273 105.968 194.5C106.46 194.727 106.864 195.045 107.178 195.455C107.493 195.864 107.688 196.341 107.764 196.886H106.423C106.32 196.489 106.093 196.136 105.741 195.83C105.392 195.519 104.923 195.364 104.332 195.364C103.809 195.364 103.351 195.5 102.957 195.773C102.567 196.042 102.262 196.422 102.042 196.915C101.826 197.403 101.718 197.977 101.718 198.636C101.718 199.311 101.824 199.898 102.036 200.398C102.252 200.898 102.555 201.286 102.945 201.562C103.339 201.839 103.801 201.977 104.332 201.977C104.68 201.977 104.996 201.917 105.281 201.795C105.565 201.674 105.805 201.5 106.002 201.273C106.199 201.045 106.339 200.773 106.423 200.455H107.764C107.688 200.97 107.5 201.434 107.201 201.847C106.906 202.256 106.514 202.581 106.025 202.824C105.54 203.062 104.976 203.182 104.332 203.182ZM113.383 203.182C112.542 203.182 111.817 202.996 111.207 202.625C110.601 202.25 110.133 201.727 109.803 201.057C109.478 200.383 109.315 199.598 109.315 198.705C109.315 197.811 109.478 197.023 109.803 196.341C110.133 195.655 110.591 195.121 111.178 194.739C111.769 194.352 112.459 194.159 113.246 194.159C113.701 194.159 114.15 194.235 114.593 194.386C115.036 194.538 115.44 194.784 115.803 195.125C116.167 195.462 116.457 195.909 116.673 196.466C116.889 197.023 116.996 197.708 116.996 198.523V199.091H110.269V197.932H115.633C115.633 197.439 115.534 197 115.337 196.614C115.144 196.227 114.868 195.922 114.508 195.699C114.152 195.475 113.731 195.364 113.246 195.364C112.712 195.364 112.25 195.496 111.86 195.761C111.474 196.023 111.176 196.364 110.968 196.784C110.76 197.205 110.656 197.655 110.656 198.136V198.909C110.656 199.568 110.769 200.127 110.996 200.585C111.228 201.04 111.548 201.386 111.957 201.625C112.366 201.86 112.841 201.977 113.383 201.977C113.735 201.977 114.053 201.928 114.337 201.83C114.625 201.727 114.873 201.576 115.082 201.375C115.29 201.17 115.451 200.917 115.565 200.614L116.86 200.977C116.724 201.417 116.495 201.803 116.173 202.136C115.851 202.466 115.453 202.723 114.979 202.909C114.506 203.091 113.974 203.182 113.383 203.182ZM120.377 191.364V203H119.036V191.364H120.377ZM124.174 191.364V203H122.833V191.364H124.174ZM130.289 203.182C129.448 203.182 128.723 202.996 128.113 202.625C127.507 202.25 127.039 201.727 126.71 201.057C126.384 200.383 126.221 199.598 126.221 198.705C126.221 197.811 126.384 197.023 126.71 196.341C127.039 195.655 127.497 195.121 128.085 194.739C128.675 194.352 129.365 194.159 130.153 194.159C130.607 194.159 131.056 194.235 131.499 194.386C131.942 194.538 132.346 194.784 132.71 195.125C133.073 195.462 133.363 195.909 133.579 196.466C133.795 197.023 133.903 197.708 133.903 198.523V199.091H127.175V197.932H132.539C132.539 197.439 132.441 197 132.244 196.614C132.05 196.227 131.774 195.922 131.414 195.699C131.058 195.475 130.638 195.364 130.153 195.364C129.619 195.364 129.156 195.496 128.766 195.761C128.38 196.023 128.083 196.364 127.874 196.784C127.666 197.205 127.562 197.655 127.562 198.136V198.909C127.562 199.568 127.675 200.127 127.903 200.585C128.134 201.04 128.454 201.386 128.863 201.625C129.272 201.86 129.747 201.977 130.289 201.977C130.641 201.977 130.96 201.928 131.244 201.83C131.531 201.727 131.78 201.576 131.988 201.375C132.196 201.17 132.357 200.917 132.471 200.614L133.766 200.977C133.63 201.417 133.401 201.803 133.079 202.136C132.757 202.466 132.359 202.723 131.886 202.909C131.412 203.091 130.88 203.182 130.289 203.182ZM137.283 197.75V203H135.942V194.273H137.238V195.636H137.352C137.556 195.193 137.867 194.837 138.283 194.568C138.7 194.295 139.238 194.159 139.897 194.159C140.488 194.159 141.005 194.28 141.448 194.523C141.891 194.761 142.236 195.125 142.482 195.614C142.728 196.098 142.852 196.712 142.852 197.455V203H141.511V197.545C141.511 196.86 141.333 196.326 140.977 195.943C140.621 195.557 140.132 195.364 139.511 195.364C139.083 195.364 138.7 195.456 138.363 195.642C138.03 195.828 137.766 196.098 137.573 196.455C137.38 196.811 137.283 197.242 137.283 197.75ZM148.847 203.182C148.029 203.182 147.325 202.989 146.734 202.602C146.143 202.216 145.688 201.684 145.37 201.006C145.052 200.328 144.893 199.553 144.893 198.682C144.893 197.795 145.056 197.013 145.381 196.335C145.711 195.653 146.169 195.121 146.756 194.739C147.347 194.352 148.037 194.159 148.825 194.159C149.438 194.159 149.991 194.273 150.484 194.5C150.976 194.727 151.38 195.045 151.694 195.455C152.008 195.864 152.203 196.341 152.279 196.886H150.938C150.836 196.489 150.609 196.136 150.256 195.83C149.908 195.519 149.438 195.364 148.847 195.364C148.325 195.364 147.866 195.5 147.472 195.773C147.082 196.042 146.777 196.422 146.558 196.915C146.342 197.403 146.234 197.977 146.234 198.636C146.234 199.311 146.34 199.898 146.552 200.398C146.768 200.898 147.071 201.286 147.461 201.562C147.855 201.839 148.317 201.977 148.847 201.977C149.196 201.977 149.512 201.917 149.796 201.795C150.08 201.674 150.321 201.5 150.518 201.273C150.715 201.045 150.855 200.773 150.938 200.455H152.279C152.203 200.97 152.016 201.434 151.717 201.847C151.421 202.256 151.029 202.581 150.54 202.824C150.056 203.062 149.491 203.182 148.847 203.182ZM157.898 203.182C157.058 203.182 156.332 202.996 155.722 202.625C155.116 202.25 154.648 201.727 154.319 201.057C153.993 200.383 153.83 199.598 153.83 198.705C153.83 197.811 153.993 197.023 154.319 196.341C154.648 195.655 155.107 195.121 155.694 194.739C156.285 194.352 156.974 194.159 157.762 194.159C158.217 194.159 158.665 194.235 159.109 194.386C159.552 194.538 159.955 194.784 160.319 195.125C160.683 195.462 160.972 195.909 161.188 196.466C161.404 197.023 161.512 197.708 161.512 198.523V199.091H154.785V197.932H160.148C160.148 197.439 160.05 197 159.853 196.614C159.66 196.227 159.383 195.922 159.023 195.699C158.667 195.475 158.247 195.364 157.762 195.364C157.228 195.364 156.766 195.496 156.376 195.761C155.989 196.023 155.692 196.364 155.484 196.784C155.275 197.205 155.171 197.655 155.171 198.136V198.909C155.171 199.568 155.285 200.127 155.512 200.585C155.743 201.04 156.063 201.386 156.472 201.625C156.881 201.86 157.357 201.977 157.898 201.977C158.251 201.977 158.569 201.928 158.853 201.83C159.141 201.727 159.389 201.576 159.597 201.375C159.806 201.17 159.967 200.917 160.08 200.614L161.376 200.977C161.239 201.417 161.01 201.803 160.688 202.136C160.366 202.466 159.969 202.723 159.495 202.909C159.022 203.091 158.489 203.182 157.898 203.182Z" fill="white"/>
<path d="M226.495 198C226.495 199.657 227.839 201.001 229.496 201.001C231.154 201.001 232.497 199.657 232.497 198C232.497 196.343 231.154 194.999 229.496 194.999C227.839 194.999 226.495 196.343 226.495 198ZM178.495 198C178.495 199.657 179.839 201.001 181.496 201.001C183.154 201.001 184.497 199.657 184.497 198C184.497 196.343 183.154 194.999 181.496 194.999C179.839 194.999 178.495 196.343 178.495 198ZM229.496 197.437H181.496V198.563H229.496V197.437Z" fill="white"/>
<path d="M78.5817 305H77.1726C77.0893 304.595 76.9434 304.239 76.7351 303.932C76.5306 303.625 76.2806 303.367 75.9851 303.159C75.6934 302.947 75.3696 302.788 75.0135 302.682C74.6574 302.576 74.2862 302.523 73.8999 302.523C73.1953 302.523 72.5571 302.701 71.9851 303.057C71.4169 303.413 70.9643 303.938 70.6271 304.631C70.2938 305.324 70.1271 306.174 70.1271 307.182C70.1271 308.189 70.2938 309.04 70.6271 309.733C70.9643 310.426 71.4169 310.951 71.9851 311.307C72.5571 311.663 73.1953 311.841 73.8999 311.841C74.2862 311.841 74.6574 311.788 75.0135 311.682C75.3696 311.576 75.6934 311.419 75.9851 311.21C76.2806 310.998 76.5306 310.739 76.7351 310.432C76.9434 310.121 77.0893 309.765 77.1726 309.364H78.5817C78.4756 309.958 78.2824 310.491 78.0021 310.96C77.7218 311.43 77.3734 311.83 76.9567 312.159C76.54 312.485 76.0722 312.733 75.5533 312.903C75.0381 313.074 74.487 313.159 73.8999 313.159C72.9074 313.159 72.0249 312.917 71.2521 312.432C70.4794 311.947 69.8715 311.258 69.4283 310.364C68.9851 309.47 68.7635 308.409 68.7635 307.182C68.7635 305.955 68.9851 304.894 69.4283 304C69.8715 303.106 70.4794 302.417 71.2521 301.932C72.0249 301.447 72.9074 301.205 73.8999 301.205C74.487 301.205 75.0381 301.29 75.5533 301.46C76.0722 301.631 76.54 301.881 76.9567 302.21C77.3734 302.536 77.7218 302.934 78.0021 303.403C78.2824 303.869 78.4756 304.402 78.5817 305ZM84.2223 313.182C83.4344 313.182 82.7431 312.994 82.1484 312.619C81.5575 312.244 81.0954 311.72 80.7621 311.045C80.4325 310.371 80.2678 309.583 80.2678 308.682C80.2678 307.773 80.4325 306.979 80.7621 306.301C81.0954 305.623 81.5575 305.097 82.1484 304.722C82.7431 304.347 83.4344 304.159 84.2223 304.159C85.0102 304.159 85.6996 304.347 86.2905 304.722C86.8852 305.097 87.3473 305.623 87.6769 306.301C88.0102 306.979 88.1769 307.773 88.1769 308.682C88.1769 309.583 88.0102 310.371 87.6769 311.045C87.3473 311.72 86.8852 312.244 86.2905 312.619C85.6996 312.994 85.0102 313.182 84.2223 313.182ZM84.2223 311.977C84.8208 311.977 85.3132 311.824 85.6996 311.517C86.0859 311.21 86.3719 310.807 86.5575 310.307C86.7431 309.807 86.8359 309.265 86.8359 308.682C86.8359 308.098 86.7431 307.555 86.5575 307.051C86.3719 306.547 86.0859 306.14 85.6996 305.83C85.3132 305.519 84.8208 305.364 84.2223 305.364C83.6238 305.364 83.1314 305.519 82.745 305.83C82.3587 306.14 82.0727 306.547 81.8871 307.051C81.7015 307.555 81.6087 308.098 81.6087 308.682C81.6087 309.265 81.7015 309.807 81.8871 310.307C82.0727 310.807 82.3587 311.21 82.745 311.517C83.1314 311.824 83.6238 311.977 84.2223 311.977ZM91.5646 307.75V313H90.2237V304.273H91.5192V305.636H91.6328C91.8374 305.193 92.148 304.837 92.5646 304.568C92.9813 304.295 93.5192 304.159 94.1783 304.159C94.7692 304.159 95.2862 304.28 95.7294 304.523C96.1726 304.761 96.5173 305.125 96.7635 305.614C97.0097 306.098 97.1328 306.712 97.1328 307.455V313H95.7919V307.545C95.7919 306.86 95.6139 306.326 95.2578 305.943C94.9018 305.557 94.4131 305.364 93.7919 305.364C93.3639 305.364 92.9813 305.456 92.6442 305.642C92.3109 305.828 92.0476 306.098 91.8544 306.455C91.6612 306.811 91.5646 307.242 91.5646 307.75ZM103.379 304.273V305.409H98.8558V304.273H103.379ZM100.174 302.182H101.515V310.5C101.515 310.879 101.57 311.163 101.68 311.352C101.793 311.538 101.937 311.663 102.112 311.727C102.29 311.788 102.477 311.818 102.674 311.818C102.822 311.818 102.943 311.811 103.038 311.795C103.132 311.777 103.208 311.761 103.265 311.75L103.538 312.955C103.447 312.989 103.32 313.023 103.157 313.057C102.994 313.095 102.788 313.114 102.538 313.114C102.159 313.114 101.788 313.032 101.424 312.869C101.064 312.706 100.765 312.458 100.526 312.125C100.291 311.792 100.174 311.371 100.174 310.864V302.182ZM105.396 313V304.273H106.737V313H105.396ZM106.077 302.818C105.816 302.818 105.591 302.729 105.401 302.551C105.216 302.373 105.123 302.159 105.123 301.909C105.123 301.659 105.216 301.445 105.401 301.267C105.591 301.089 105.816 301 106.077 301C106.339 301 106.562 301.089 106.748 301.267C106.937 301.445 107.032 301.659 107.032 301.909C107.032 302.159 106.937 302.373 106.748 302.551C106.562 302.729 106.339 302.818 106.077 302.818ZM110.533 307.75V313H109.192V304.273H110.488V305.636H110.602C110.806 305.193 111.117 304.837 111.533 304.568C111.95 304.295 112.488 304.159 113.147 304.159C113.738 304.159 114.255 304.28 114.698 304.523C115.141 304.761 115.486 305.125 115.732 305.614C115.978 306.098 116.102 306.712 116.102 307.455V313H114.761V307.545C114.761 306.86 114.583 306.326 114.227 305.943C113.871 305.557 113.382 305.364 112.761 305.364C112.333 305.364 111.95 305.456 111.613 305.642C111.28 305.828 111.016 306.098 110.823 306.455C110.63 306.811 110.533 307.242 110.533 307.75ZM124.052 309.432V304.273H125.393V313H124.052V311.523H123.961C123.756 311.966 123.438 312.343 123.006 312.653C122.575 312.96 122.029 313.114 121.37 313.114C120.825 313.114 120.34 312.994 119.915 312.756C119.491 312.513 119.158 312.15 118.915 311.665C118.673 311.176 118.552 310.561 118.552 309.818V304.273H119.893V309.727C119.893 310.364 120.071 310.871 120.427 311.25C120.787 311.629 121.245 311.818 121.802 311.818C122.135 311.818 122.474 311.733 122.819 311.562C123.167 311.392 123.459 311.131 123.694 310.778C123.933 310.426 124.052 309.977 124.052 309.432ZM131.394 313.182C130.606 313.182 129.915 312.994 129.32 312.619C128.729 312.244 128.267 311.72 127.934 311.045C127.604 310.371 127.44 309.583 127.44 308.682C127.44 307.773 127.604 306.979 127.934 306.301C128.267 305.623 128.729 305.097 129.32 304.722C129.915 304.347 130.606 304.159 131.394 304.159C132.182 304.159 132.871 304.347 133.462 304.722C134.057 305.097 134.519 305.623 134.849 306.301C135.182 306.979 135.349 307.773 135.349 308.682C135.349 309.583 135.182 310.371 134.849 311.045C134.519 311.72 134.057 312.244 133.462 312.619C132.871 312.994 132.182 313.182 131.394 313.182ZM131.394 311.977C131.993 311.977 132.485 311.824 132.871 311.517C133.258 311.21 133.544 310.807 133.729 310.307C133.915 309.807 134.008 309.265 134.008 308.682C134.008 308.098 133.915 307.555 133.729 307.051C133.544 306.547 133.258 306.14 132.871 305.83C132.485 305.519 131.993 305.364 131.394 305.364C130.796 305.364 130.303 305.519 129.917 305.83C129.531 306.14 129.245 306.547 129.059 307.051C128.873 307.555 128.781 308.098 128.781 308.682C128.781 309.265 128.873 309.807 129.059 310.307C129.245 310.807 129.531 311.21 129.917 311.517C130.303 311.824 130.796 311.977 131.394 311.977ZM142.896 309.432V304.273H144.237V313H142.896V311.523H142.805C142.6 311.966 142.282 312.343 141.85 312.653C141.418 312.96 140.873 313.114 140.214 313.114C139.668 313.114 139.183 312.994 138.759 312.756C138.335 312.513 138.002 312.15 137.759 311.665C137.517 311.176 137.396 310.561 137.396 309.818V304.273H138.737V309.727C138.737 310.364 138.915 310.871 139.271 311.25C139.63 311.629 140.089 311.818 140.646 311.818C140.979 311.818 141.318 311.733 141.663 311.562C142.011 311.392 142.303 311.131 142.538 310.778C142.776 310.426 142.896 309.977 142.896 309.432ZM152.874 306.227L151.67 306.568C151.594 306.367 151.482 306.172 151.335 305.983C151.191 305.79 150.994 305.631 150.744 305.506C150.494 305.381 150.174 305.318 149.783 305.318C149.249 305.318 148.804 305.441 148.448 305.688C148.096 305.93 147.92 306.239 147.92 306.614C147.92 306.947 148.041 307.21 148.283 307.403C148.526 307.597 148.905 307.758 149.42 307.886L150.715 308.205C151.496 308.394 152.077 308.684 152.46 309.074C152.842 309.46 153.033 309.958 153.033 310.568C153.033 311.068 152.889 311.515 152.602 311.909C152.317 312.303 151.92 312.614 151.408 312.841C150.897 313.068 150.302 313.182 149.624 313.182C148.734 313.182 147.997 312.989 147.414 312.602C146.831 312.216 146.461 311.652 146.306 310.909L147.579 310.591C147.7 311.061 147.929 311.413 148.266 311.648C148.607 311.883 149.052 312 149.602 312C150.227 312 150.723 311.867 151.09 311.602C151.461 311.333 151.647 311.011 151.647 310.636C151.647 310.333 151.541 310.08 151.329 309.875C151.117 309.667 150.791 309.511 150.352 309.409L148.897 309.068C148.098 308.879 147.511 308.585 147.136 308.188C146.764 307.786 146.579 307.284 146.579 306.682C146.579 306.189 146.717 305.754 146.994 305.375C147.274 304.996 147.655 304.699 148.136 304.483C148.621 304.267 149.17 304.159 149.783 304.159C150.647 304.159 151.325 304.348 151.817 304.727C152.314 305.106 152.666 305.606 152.874 306.227ZM166.097 304.273C166.029 303.697 165.753 303.25 165.268 302.932C164.783 302.614 164.188 302.455 163.484 302.455C162.969 302.455 162.518 302.538 162.131 302.705C161.749 302.871 161.45 303.1 161.234 303.392C161.022 303.684 160.915 304.015 160.915 304.386C160.915 304.697 160.989 304.964 161.137 305.188C161.289 305.407 161.482 305.591 161.717 305.739C161.951 305.883 162.198 306.002 162.455 306.097C162.713 306.187 162.95 306.261 163.165 306.318L164.347 306.636C164.65 306.716 164.987 306.826 165.359 306.966C165.734 307.106 166.092 307.297 166.433 307.54C166.777 307.778 167.061 308.085 167.285 308.46C167.508 308.835 167.62 309.295 167.62 309.841C167.62 310.47 167.455 311.038 167.126 311.545C166.8 312.053 166.323 312.456 165.694 312.756C165.069 313.055 164.309 313.205 163.415 313.205C162.582 313.205 161.861 313.07 161.251 312.801C160.645 312.532 160.167 312.157 159.819 311.676C159.474 311.195 159.279 310.636 159.234 310H160.688C160.726 310.439 160.874 310.803 161.131 311.091C161.393 311.375 161.722 311.587 162.12 311.727C162.522 311.864 162.953 311.932 163.415 311.932C163.953 311.932 164.436 311.845 164.864 311.67C165.292 311.492 165.631 311.246 165.881 310.932C166.131 310.614 166.256 310.242 166.256 309.818C166.256 309.432 166.148 309.117 165.933 308.875C165.717 308.633 165.433 308.436 165.08 308.284C164.728 308.133 164.347 308 163.938 307.886L162.506 307.477C161.597 307.216 160.878 306.843 160.347 306.358C159.817 305.873 159.552 305.239 159.552 304.455C159.552 303.803 159.728 303.235 160.08 302.75C160.436 302.261 160.914 301.883 161.512 301.614C162.114 301.341 162.787 301.205 163.529 301.205C164.279 301.205 164.946 301.339 165.529 301.608C166.112 301.873 166.575 302.237 166.915 302.699C167.26 303.161 167.442 303.686 167.461 304.273H166.097ZM175.255 309.432V304.273H176.596V313H175.255V311.523H175.164C174.96 311.966 174.641 312.343 174.21 312.653C173.778 312.96 173.232 313.114 172.573 313.114C172.028 313.114 171.543 312.994 171.119 312.756C170.694 312.513 170.361 312.15 170.119 311.665C169.876 311.176 169.755 310.561 169.755 309.818V304.273H171.096V309.727C171.096 310.364 171.274 310.871 171.63 311.25C171.99 311.629 172.448 311.818 173.005 311.818C173.338 311.818 173.677 311.733 174.022 311.562C174.371 311.392 174.662 311.131 174.897 310.778C175.136 310.426 175.255 309.977 175.255 309.432ZM179.052 316.273V304.273H180.347V305.659H180.506C180.605 305.508 180.741 305.314 180.915 305.08C181.094 304.841 181.347 304.629 181.677 304.443C182.01 304.254 182.461 304.159 183.029 304.159C183.764 304.159 184.412 304.343 184.972 304.71C185.533 305.078 185.97 305.598 186.285 306.273C186.599 306.947 186.756 307.742 186.756 308.659C186.756 309.583 186.599 310.384 186.285 311.062C185.97 311.737 185.535 312.259 184.978 312.631C184.421 312.998 183.779 313.182 183.052 313.182C182.491 313.182 182.042 313.089 181.705 312.903C181.368 312.714 181.109 312.5 180.927 312.261C180.745 312.019 180.605 311.818 180.506 311.659H180.393V316.273H179.052ZM180.37 308.636C180.37 309.295 180.467 309.877 180.66 310.381C180.853 310.881 181.135 311.273 181.506 311.557C181.878 311.837 182.332 311.977 182.87 311.977C183.431 311.977 183.898 311.83 184.273 311.534C184.652 311.235 184.936 310.833 185.126 310.33C185.319 309.822 185.415 309.258 185.415 308.636C185.415 308.023 185.321 307.47 185.131 306.977C184.946 306.481 184.664 306.089 184.285 305.801C183.91 305.509 183.438 305.364 182.87 305.364C182.325 305.364 181.866 305.502 181.495 305.778C181.124 306.051 180.844 306.434 180.654 306.926C180.465 307.415 180.37 307.985 180.37 308.636ZM188.802 316.273V304.273H190.097V305.659H190.256C190.355 305.508 190.491 305.314 190.665 305.08C190.844 304.841 191.097 304.629 191.427 304.443C191.76 304.254 192.211 304.159 192.779 304.159C193.514 304.159 194.162 304.343 194.722 304.71C195.283 305.078 195.72 305.598 196.035 306.273C196.349 306.947 196.506 307.742 196.506 308.659C196.506 309.583 196.349 310.384 196.035 311.062C195.72 311.737 195.285 312.259 194.728 312.631C194.171 312.998 193.529 313.182 192.802 313.182C192.241 313.182 191.792 313.089 191.455 312.903C191.118 312.714 190.859 312.5 190.677 312.261C190.495 312.019 190.355 311.818 190.256 311.659H190.143V316.273H188.802ZM190.12 308.636C190.12 309.295 190.217 309.877 190.41 310.381C190.603 310.881 190.885 311.273 191.256 311.557C191.628 311.837 192.082 311.977 192.62 311.977C193.181 311.977 193.648 311.83 194.023 311.534C194.402 311.235 194.686 310.833 194.876 310.33C195.069 309.822 195.165 309.258 195.165 308.636C195.165 308.023 195.071 307.47 194.881 306.977C194.696 306.481 194.414 306.089 194.035 305.801C193.66 305.509 193.188 305.364 192.62 305.364C192.075 305.364 191.616 305.502 191.245 305.778C190.874 306.051 190.594 306.434 190.404 306.926C190.215 307.415 190.12 307.985 190.12 308.636ZM202.097 313.182C201.309 313.182 200.618 312.994 200.023 312.619C199.433 312.244 198.97 311.72 198.637 311.045C198.308 310.371 198.143 309.583 198.143 308.682C198.143 307.773 198.308 306.979 198.637 306.301C198.97 305.623 199.433 305.097 200.023 304.722C200.618 304.347 201.309 304.159 202.097 304.159C202.885 304.159 203.575 304.347 204.165 304.722C204.76 305.097 205.222 305.623 205.552 306.301C205.885 306.979 206.052 307.773 206.052 308.682C206.052 309.583 205.885 310.371 205.552 311.045C205.222 311.72 204.76 312.244 204.165 312.619C203.575 312.994 202.885 313.182 202.097 313.182ZM202.097 311.977C202.696 311.977 203.188 311.824 203.575 311.517C203.961 311.21 204.247 310.807 204.433 310.307C204.618 309.807 204.711 309.265 204.711 308.682C204.711 308.098 204.618 307.555 204.433 307.051C204.247 306.547 203.961 306.14 203.575 305.83C203.188 305.519 202.696 305.364 202.097 305.364C201.499 305.364 201.006 305.519 200.62 305.83C200.234 306.14 199.948 306.547 199.762 307.051C199.576 307.555 199.484 308.098 199.484 308.682C199.484 309.265 199.576 309.807 199.762 310.307C199.948 310.807 200.234 311.21 200.62 311.517C201.006 311.824 201.499 311.977 202.097 311.977ZM208.099 313V304.273H209.394V305.591H209.485C209.644 305.159 209.932 304.809 210.349 304.54C210.765 304.271 211.235 304.136 211.758 304.136C211.856 304.136 211.979 304.138 212.127 304.142C212.275 304.146 212.387 304.152 212.462 304.159V305.523C212.417 305.511 212.313 305.494 212.15 305.472C211.991 305.445 211.822 305.432 211.644 305.432C211.22 305.432 210.841 305.521 210.508 305.699C210.178 305.873 209.917 306.116 209.724 306.426C209.534 306.733 209.44 307.083 209.44 307.477V313H208.099ZM218.394 304.273V305.409H213.871V304.273H218.394ZM215.19 302.182H216.531V310.5C216.531 310.879 216.585 311.163 216.695 311.352C216.809 311.538 216.953 311.663 217.127 311.727C217.305 311.788 217.493 311.818 217.69 311.818C217.837 311.818 217.959 311.811 218.053 311.795C218.148 311.777 218.224 311.761 218.281 311.75L218.553 312.955C218.462 312.989 218.335 313.023 218.173 313.057C218.01 313.095 217.803 313.114 217.553 313.114C217.174 313.114 216.803 313.032 216.44 312.869C216.08 312.706 215.781 312.458 215.542 312.125C215.307 311.792 215.19 311.371 215.19 310.864V302.182Z" fill="white"/>
<path d="M266.495 278C266.495 279.657 267.839 281.001 269.496 281.001C271.154 281.001 272.497 279.657 272.497 278C272.497 276.343 271.154 274.999 269.496 274.999C267.839 274.999 266.495 276.343 266.495 278ZM269.496 308V308.563H270.059V308H269.496ZM228.495 308C228.495 309.657 229.839 311.001 231.496 311.001C233.154 311.001 234.497 309.657 234.497 308C234.497 306.343 233.154 304.999 231.496 304.999C229.839 304.999 228.495 306.343 228.495 308ZM268.934 278V308H270.059V278H268.934ZM269.496 307.437H231.496V308.563H269.496V307.437Z" fill="white"/>
<path d="M48.7067 106H47.2976C47.2143 105.595 47.0684 105.239 46.8601 104.932C46.6556 104.625 46.4056 104.367 46.1101 104.159C45.8184 103.947 45.4946 103.788 45.1385 103.682C44.7824 103.576 44.4112 103.523 44.0249 103.523C43.3203 103.523 42.6821 103.701 42.1101 104.057C41.5419 104.413 41.0893 104.938 40.7521 105.631C40.4188 106.324 40.2521 107.174 40.2521 108.182C40.2521 109.189 40.4188 110.04 40.7521 110.733C41.0893 111.426 41.5419 111.951 42.1101 112.307C42.6821 112.663 43.3203 112.841 44.0249 112.841C44.4112 112.841 44.7824 112.788 45.1385 112.682C45.4946 112.576 45.8184 112.419 46.1101 112.21C46.4056 111.998 46.6556 111.739 46.8601 111.432C47.0684 111.121 47.2143 110.765 47.2976 110.364H48.7067C48.6006 110.958 48.4074 111.491 48.1271 111.96C47.8468 112.43 47.4984 112.83 47.0817 113.159C46.665 113.485 46.1972 113.733 45.6783 113.903C45.1631 114.074 44.612 114.159 44.0249 114.159C43.0324 114.159 42.1499 113.917 41.3771 113.432C40.6044 112.947 39.9965 112.258 39.5533 111.364C39.1101 110.47 38.8885 109.409 38.8885 108.182C38.8885 106.955 39.1101 105.894 39.5533 105C39.9965 104.106 40.6044 103.417 41.3771 102.932C42.1499 102.447 43.0324 102.205 44.0249 102.205C44.612 102.205 45.1631 102.29 45.6783 102.46C46.1972 102.631 46.665 102.881 47.0817 103.21C47.4984 103.536 47.8468 103.934 48.1271 104.403C48.4074 104.869 48.6006 105.402 48.7067 106ZM56.3019 110.432V105.273H57.6428V114H56.3019V112.523H56.2109C56.0064 112.966 55.6882 113.343 55.2564 113.653C54.8246 113.96 54.2791 114.114 53.62 114.114C53.0746 114.114 52.5897 113.994 52.1655 113.756C51.7413 113.513 51.4079 113.15 51.1655 112.665C50.9231 112.176 50.8019 111.561 50.8019 110.818V105.273H52.1428V110.727C52.1428 111.364 52.3208 111.871 52.6769 112.25C53.0367 112.629 53.495 112.818 54.0519 112.818C54.3852 112.818 54.7242 112.733 55.0689 112.562C55.4174 112.392 55.7091 112.131 55.9439 111.778C56.1825 111.426 56.3019 110.977 56.3019 110.432ZM66.2806 107.227L65.076 107.568C65.0002 107.367 64.8885 107.172 64.7408 106.983C64.5968 106.79 64.3999 106.631 64.1499 106.506C63.8999 106.381 63.5798 106.318 63.1896 106.318C62.6556 106.318 62.2105 106.441 61.8544 106.688C61.5021 106.93 61.326 107.239 61.326 107.614C61.326 107.947 61.4472 108.21 61.6896 108.403C61.9321 108.597 62.3109 108.758 62.826 108.886L64.1215 109.205C64.9018 109.394 65.4832 109.684 65.8658 110.074C66.2484 110.46 66.4396 110.958 66.4396 111.568C66.4396 112.068 66.2957 112.515 66.0078 112.909C65.7237 113.303 65.326 113.614 64.8146 113.841C64.3033 114.068 63.7086 114.182 63.0306 114.182C62.1404 114.182 61.4037 113.989 60.8203 113.602C60.237 113.216 59.8677 112.652 59.7124 111.909L60.9851 111.591C61.1063 112.061 61.3355 112.413 61.6726 112.648C62.0135 112.883 62.4586 113 63.0078 113C63.6328 113 64.129 112.867 64.4965 112.602C64.8677 112.333 65.0533 112.011 65.0533 111.636C65.0533 111.333 64.9472 111.08 64.7351 110.875C64.523 110.667 64.1972 110.511 63.7578 110.409L62.3033 110.068C61.504 109.879 60.9169 109.585 60.5419 109.188C60.1707 108.786 59.9851 108.284 59.9851 107.682C59.9851 107.189 60.1234 106.754 60.3999 106.375C60.6802 105.996 61.0609 105.699 61.5419 105.483C62.0268 105.267 62.576 105.159 63.1896 105.159C64.0533 105.159 64.7313 105.348 65.2237 105.727C65.7199 106.106 66.0722 106.606 66.2806 107.227ZM72.2536 105.273V106.409H67.7308V105.273H72.2536ZM69.049 103.182H70.3899V111.5C70.3899 111.879 70.4449 112.163 70.5547 112.352C70.6683 112.538 70.8123 112.663 70.9865 112.727C71.1645 112.788 71.352 112.818 71.549 112.818C71.6967 112.818 71.818 112.811 71.9127 112.795C72.0074 112.777 72.0831 112.761 72.1399 112.75L72.4127 113.955C72.3217 113.989 72.1949 114.023 72.032 114.057C71.8691 114.095 71.6627 114.114 71.4127 114.114C71.0339 114.114 70.6627 114.032 70.299 113.869C69.9392 113.706 69.6399 113.458 69.4013 113.125C69.1664 112.792 69.049 112.371 69.049 111.864V103.182ZM77.7223 114.182C76.9344 114.182 76.2431 113.994 75.6484 113.619C75.0575 113.244 74.5954 112.72 74.2621 112.045C73.9325 111.371 73.7678 110.583 73.7678 109.682C73.7678 108.773 73.9325 107.979 74.2621 107.301C74.5954 106.623 75.0575 106.097 75.6484 105.722C76.2431 105.347 76.9344 105.159 77.7223 105.159C78.5102 105.159 79.1996 105.347 79.7905 105.722C80.3852 106.097 80.8473 106.623 81.1769 107.301C81.5102 107.979 81.6769 108.773 81.6769 109.682C81.6769 110.583 81.5102 111.371 81.1769 112.045C80.8473 112.72 80.3852 113.244 79.7905 113.619C79.1996 113.994 78.5102 114.182 77.7223 114.182ZM77.7223 112.977C78.3208 112.977 78.8132 112.824 79.1996 112.517C79.5859 112.21 79.8719 111.807 80.0575 111.307C80.2431 110.807 80.3359 110.265 80.3359 109.682C80.3359 109.098 80.2431 108.555 80.0575 108.051C79.8719 107.547 79.5859 107.14 79.1996 106.83C78.8132 106.519 78.3208 106.364 77.7223 106.364C77.1238 106.364 76.6314 106.519 76.245 106.83C75.8587 107.14 75.5727 107.547 75.3871 108.051C75.2015 108.555 75.1087 109.098 75.1087 109.682C75.1087 110.265 75.2015 110.807 75.3871 111.307C75.5727 111.807 75.8587 112.21 76.245 112.517C76.6314 112.824 77.1238 112.977 77.7223 112.977ZM83.7237 114V105.273H85.0192V106.636H85.1328C85.3146 106.17 85.6082 105.809 86.0135 105.551C86.4188 105.29 86.9056 105.159 87.4737 105.159C88.0495 105.159 88.5287 105.29 88.9112 105.551C89.2976 105.809 89.5987 106.17 89.8146 106.636H89.9056C90.129 106.186 90.4643 105.828 90.9112 105.562C91.3582 105.294 91.8942 105.159 92.5192 105.159C93.2995 105.159 93.9377 105.403 94.434 105.892C94.9302 106.377 95.1783 107.133 95.1783 108.159V114H93.8374V108.159C93.8374 107.515 93.6612 107.055 93.309 106.778C92.9567 106.502 92.5419 106.364 92.0646 106.364C91.451 106.364 90.9756 106.549 90.6385 106.92C90.3014 107.288 90.1328 107.754 90.1328 108.318V114H88.7692V108.023C88.7692 107.527 88.6082 107.127 88.2862 106.824C87.9643 106.517 87.5495 106.364 87.0419 106.364C86.6934 106.364 86.3677 106.456 86.0646 106.642C85.7654 106.828 85.523 107.085 85.3374 107.415C85.1556 107.741 85.0646 108.117 85.0646 108.545V114H83.7237ZM101.289 114.182C100.448 114.182 99.7228 113.996 99.1129 113.625C98.5069 113.25 98.0391 112.727 97.7095 112.057C97.3838 111.383 97.2209 110.598 97.2209 109.705C97.2209 108.811 97.3838 108.023 97.7095 107.341C98.0391 106.655 98.4974 106.121 99.0845 105.739C99.6754 105.352 100.365 105.159 101.153 105.159C101.607 105.159 102.056 105.235 102.499 105.386C102.942 105.538 103.346 105.784 103.71 106.125C104.073 106.462 104.363 106.909 104.579 107.466C104.795 108.023 104.903 108.708 104.903 109.523V110.091H98.1754V108.932H103.539C103.539 108.439 103.441 108 103.244 107.614C103.05 107.227 102.774 106.922 102.414 106.699C102.058 106.475 101.638 106.364 101.153 106.364C100.619 106.364 100.156 106.496 99.7663 106.761C99.38 107.023 99.0826 107.364 98.8743 107.784C98.666 108.205 98.5618 108.655 98.5618 109.136V109.909C98.5618 110.568 98.6754 111.127 98.9027 111.585C99.1338 112.04 99.4538 112.386 99.8629 112.625C100.272 112.86 100.747 112.977 101.289 112.977C101.641 112.977 101.96 112.928 102.244 112.83C102.531 112.727 102.78 112.576 102.988 112.375C103.196 112.17 103.357 111.917 103.471 111.614L104.766 111.977C104.63 112.417 104.401 112.803 104.079 113.136C103.757 113.466 103.359 113.723 102.886 113.909C102.412 114.091 101.88 114.182 101.289 114.182ZM106.942 114V105.273H108.238V106.591H108.329C108.488 106.159 108.776 105.809 109.192 105.54C109.609 105.271 110.079 105.136 110.602 105.136C110.7 105.136 110.823 105.138 110.971 105.142C111.119 105.146 111.23 105.152 111.306 105.159V106.523C111.261 106.511 111.156 106.494 110.994 106.472C110.835 106.445 110.666 106.432 110.488 106.432C110.064 106.432 109.685 106.521 109.352 106.699C109.022 106.873 108.761 107.116 108.567 107.426C108.378 107.733 108.283 108.083 108.283 108.477V114H106.942ZM117.577 114V102.364H124.555V103.614H118.987V107.545H124.032V108.795H118.987V114H117.577ZM129.691 114.182C128.903 114.182 128.212 113.994 127.617 113.619C127.026 113.244 126.564 112.72 126.231 112.045C125.901 111.371 125.737 110.583 125.737 109.682C125.737 108.773 125.901 107.979 126.231 107.301C126.564 106.623 127.026 106.097 127.617 105.722C128.212 105.347 128.903 105.159 129.691 105.159C130.479 105.159 131.168 105.347 131.759 105.722C132.354 106.097 132.816 106.623 133.146 107.301C133.479 107.979 133.646 108.773 133.646 109.682C133.646 110.583 133.479 111.371 133.146 112.045C132.816 112.72 132.354 113.244 131.759 113.619C131.168 113.994 130.479 114.182 129.691 114.182ZM129.691 112.977C130.29 112.977 130.782 112.824 131.168 112.517C131.555 112.21 131.841 111.807 132.026 111.307C132.212 110.807 132.305 110.265 132.305 109.682C132.305 109.098 132.212 108.555 132.026 108.051C131.841 107.547 131.555 107.14 131.168 106.83C130.782 106.519 130.29 106.364 129.691 106.364C129.093 106.364 128.6 106.519 128.214 106.83C127.827 107.14 127.541 107.547 127.356 108.051C127.17 108.555 127.077 109.098 127.077 109.682C127.077 110.265 127.17 110.807 127.356 111.307C127.541 111.807 127.827 112.21 128.214 112.517C128.6 112.824 129.093 112.977 129.691 112.977ZM139.238 114.182C138.42 114.182 137.715 113.989 137.124 113.602C136.533 113.216 136.079 112.684 135.761 112.006C135.442 111.328 135.283 110.553 135.283 109.682C135.283 108.795 135.446 108.013 135.772 107.335C136.102 106.653 136.56 106.121 137.147 105.739C137.738 105.352 138.427 105.159 139.215 105.159C139.829 105.159 140.382 105.273 140.874 105.5C141.367 105.727 141.77 106.045 142.085 106.455C142.399 106.864 142.594 107.341 142.67 107.886H141.329C141.227 107.489 140.999 107.136 140.647 106.83C140.299 106.519 139.829 106.364 139.238 106.364C138.715 106.364 138.257 106.5 137.863 106.773C137.473 107.042 137.168 107.422 136.948 107.915C136.732 108.403 136.624 108.977 136.624 109.636C136.624 110.311 136.73 110.898 136.942 111.398C137.158 111.898 137.461 112.286 137.852 112.562C138.246 112.839 138.708 112.977 139.238 112.977C139.586 112.977 139.903 112.917 140.187 112.795C140.471 112.674 140.711 112.5 140.908 112.273C141.105 112.045 141.246 111.773 141.329 111.455H142.67C142.594 111.97 142.406 112.434 142.107 112.847C141.812 113.256 141.42 113.581 140.931 113.824C140.446 114.062 139.882 114.182 139.238 114.182ZM150.13 110.432V105.273H151.471V114H150.13V112.523H150.039C149.835 112.966 149.516 113.343 149.085 113.653C148.653 113.96 148.107 114.114 147.448 114.114C146.903 114.114 146.418 113.994 145.994 113.756C145.569 113.513 145.236 113.15 144.994 112.665C144.751 112.176 144.63 111.561 144.63 110.818V105.273H145.971V110.727C145.971 111.364 146.149 111.871 146.505 112.25C146.865 112.629 147.323 112.818 147.88 112.818C148.213 112.818 148.552 112.733 148.897 112.562C149.246 112.392 149.537 112.131 149.772 111.778C150.011 111.426 150.13 110.977 150.13 110.432ZM160.109 107.227L158.904 107.568C158.828 107.367 158.717 107.172 158.569 106.983C158.425 106.79 158.228 106.631 157.978 106.506C157.728 106.381 157.408 106.318 157.018 106.318C156.484 106.318 156.039 106.441 155.683 106.688C155.33 106.93 155.154 107.239 155.154 107.614C155.154 107.947 155.275 108.21 155.518 108.403C155.76 108.597 156.139 108.758 156.654 108.886L157.95 109.205C158.73 109.394 159.311 109.684 159.694 110.074C160.076 110.46 160.268 110.958 160.268 111.568C160.268 112.068 160.124 112.515 159.836 112.909C159.552 113.303 159.154 113.614 158.643 113.841C158.131 114.068 157.537 114.182 156.859 114.182C155.969 114.182 155.232 113.989 154.648 113.602C154.065 113.216 153.696 112.652 153.54 111.909L154.813 111.591C154.934 112.061 155.164 112.413 155.501 112.648C155.842 112.883 156.287 113 156.836 113C157.461 113 157.957 112.867 158.325 112.602C158.696 112.333 158.881 112.011 158.881 111.636C158.881 111.333 158.775 111.08 158.563 110.875C158.351 110.667 158.025 110.511 157.586 110.409L156.131 110.068C155.332 109.879 154.745 109.585 154.37 109.188C153.999 108.786 153.813 108.284 153.813 107.682C153.813 107.189 153.951 106.754 154.228 106.375C154.508 105.996 154.889 105.699 155.37 105.483C155.855 105.267 156.404 105.159 157.018 105.159C157.881 105.159 158.559 105.348 159.052 105.727C159.548 106.106 159.9 106.606 160.109 107.227Z" fill="white"/>
<path d="M239.108 110C239.108 111.657 240.452 113.001 242.109 113.001C243.767 113.001 245.11 111.657 245.11 110C245.11 108.343 243.767 106.999 242.109 106.999C240.452 106.999 239.108 108.343 239.108 110ZM193.495 110C193.495 111.657 194.839 113.001 196.496 113.001C198.154 113.001 199.497 111.657 199.497 110C199.497 108.343 198.154 106.999 196.496 106.999C194.839 106.999 193.495 108.343 193.495 110ZM242.109 109.437H196.496V110.563H242.109V109.437Z" fill="white"/>
<defs>
<linearGradient id="paint0_linear_664_1318" x1="370.33" y1="35.4066" x2="235.363" y2="142.482" gradientUnits="userSpaceOnUse">
<stop stop-color="#1A0076" stop-opacity="0.8"/>
<stop offset="1" stop-color="#1D0043" stop-opacity="0.9"/>
</linearGradient>
<linearGradient id="paint1_linear_664_1318" x1="310.548" y1="318.262" x2="457.931" y2="208.777" gradientUnits="userSpaceOnUse">
<stop stop-color="#1A0076" stop-opacity="0.8"/>
<stop offset="1" stop-color="#1D0043" stop-opacity="0.9"/>
</linearGradient>
<linearGradient id="paint2_linear_664_1318" x1="455.583" y1="49.4615" x2="329.406" y2="116.605" gradientUnits="userSpaceOnUse">
<stop stop-color="#1A0076" stop-opacity="0.8"/>
<stop offset="1" stop-color="#1D0043" stop-opacity="0.9"/>
</linearGradient>
<linearGradient id="paint3_linear_664_1318" x1="236.884" y1="300.188" x2="354.551" y2="229.593" gradientUnits="userSpaceOnUse">
<stop stop-color="#1A0076" stop-opacity="0.8"/>
<stop offset="1" stop-color="#1D0043" stop-opacity="0.9"/>
</linearGradient>
<linearGradient id="paint4_linear_664_1318" x1="381.655" y1="116.813" x2="286.089" y2="167.964" gradientUnits="userSpaceOnUse">
<stop stop-color="#1A0076" stop-opacity="0.8"/>
<stop offset="1" stop-color="#1D0043" stop-opacity="0.9"/>
</linearGradient>
</defs>
</svg>
