<svg viewBox="0 0 32 32" xmlns="http://www.w3.org/2000/svg">
  <path d="M3.3335 9.33325C3.3335 10.1212 3.48869 10.9014 3.79022 11.6294C4.09175 12.3573 4.5337 13.0187 5.09086 13.5759C5.64801 14.133 6.30944 14.575 7.0374 14.8765C7.76535 15.1781 8.54556 15.3333 9.3335 15.3333C10.1214 15.3333 10.9016 15.1781 11.6296 14.8765C12.3575 14.575 13.019 14.133 13.5761 13.5759C14.1333 13.0187 14.5752 12.3573 14.8768 11.6294C15.1783 10.9014 15.3335 10.1212 15.3335 9.33325C15.3335 7.74195 14.7014 6.21583 13.5761 5.09061C12.4509 3.96539 10.9248 3.33325 9.3335 3.33325C7.7422 3.33325 6.21607 3.96539 5.09086 5.09061C3.96564 6.21583 3.3335 7.74195 3.3335 9.33325ZM3.3335 22.6666C3.3335 23.4545 3.48869 24.2347 3.79022 24.9627C4.09175 25.6906 4.5337 26.3521 5.09086 26.9092C5.64801 27.4664 6.30944 27.9083 7.0374 28.2099C7.76535 28.5114 8.54556 28.6666 9.3335 28.6666C10.1214 28.6666 10.9016 28.5114 11.6296 28.2099C12.3575 27.9083 13.019 27.4664 13.5761 26.9092C14.1333 26.3521 14.5752 25.6906 14.8768 24.9627C15.1783 24.2347 15.3335 23.4545 15.3335 22.6666C15.3335 21.0753 14.7014 19.5492 13.5761 18.4239C12.4509 17.2987 10.9248 16.6666 9.3335 16.6666C7.7422 16.6666 6.21607 17.2987 5.09086 18.4239C3.96564 19.5492 3.3335 21.0753 3.3335 22.6666ZM16.6668 22.6666C16.6668 24.2579 17.299 25.784 18.4242 26.9092C19.5494 28.0344 21.0755 28.6666 22.6668 28.6666C24.2581 28.6666 25.7843 28.0344 26.9095 26.9092C28.0347 25.784 28.6668 24.2579 28.6668 22.6666C28.6668 21.0753 28.0347 19.5492 26.9095 18.4239C25.7843 17.2987 24.2581 16.6666 22.6668 16.6666C21.0755 16.6666 19.5494 17.2987 18.4242 18.4239C17.299 19.5492 16.6668 21.0753 16.6668 22.6666ZM12.6668 9.33325C12.6668 10.2173 12.3156 11.0652 11.6905 11.6903C11.0654 12.3154 10.2176 12.6666 9.3335 12.6666C8.44944 12.6666 7.60159 12.3154 6.97647 11.6903C6.35135 11.0652 6.00016 10.2173 6.00016 9.33325C6.00016 8.4492 6.35135 7.60135 6.97647 6.97623C7.60159 6.35111 8.44944 5.99992 9.3335 5.99992C10.2176 5.99992 11.0654 6.35111 11.6905 6.97623C12.3156 7.60135 12.6668 8.4492 12.6668 9.33325ZM12.6668 22.6666C12.6668 23.5506 12.3156 24.3985 11.6905 25.0236C11.0654 25.6487 10.2176 25.9999 9.3335 25.9999C8.44944 25.9999 7.60159 25.6487 6.97647 25.0236C6.35135 24.3985 6.00016 23.5506 6.00016 22.6666C6.00016 21.7825 6.35135 20.9347 6.97647 20.3096C7.60159 19.6844 8.44944 19.3333 9.3335 19.3333C10.2176 19.3333 11.0654 19.6844 11.6905 20.3096C12.3156 20.9347 12.6668 21.7825 12.6668 22.6666ZM26.0002 22.6666C26.0002 23.5506 25.649 24.3985 25.0239 25.0236C24.3987 25.6487 23.5509 25.9999 22.6668 25.9999C21.7828 25.9999 20.9349 25.6487 20.3098 25.0236C19.6847 24.3985 19.3335 23.5506 19.3335 22.6666C19.3335 21.7825 19.6847 20.9347 20.3098 20.3096C20.9349 19.6844 21.7828 19.3333 22.6668 19.3333C23.5509 19.3333 24.3987 19.6844 25.0239 20.3096C25.649 20.9347 26.0002 21.7825 26.0002 22.6666ZM23.3668 14.8733L23.7375 14.0253C24.3848 12.5224 25.5724 11.3172 27.0655 10.6479L28.2042 10.1413C28.8215 9.86792 28.8215 8.97059 28.2042 8.69725L27.1295 8.21859C25.5972 7.5326 24.3878 6.28309 23.7522 4.72925L23.3722 3.81192C23.3156 3.67108 23.2183 3.55039 23.0926 3.46538C22.9669 3.38038 22.8186 3.33495 22.6668 3.33495C22.5151 3.33495 22.3668 3.38038 22.2411 3.46538C22.1154 3.55039 22.018 3.67108 21.9615 3.81192L21.5815 4.72925C20.9458 6.28309 19.7364 7.5326 18.2042 8.21859L17.1295 8.69725C16.5122 8.97059 16.5122 9.86792 17.1295 10.1413L18.2682 10.6479C19.7613 11.3172 20.9489 12.5224 21.5962 14.0253L21.9668 14.8733C22.025 15.0108 22.1224 15.1282 22.2469 15.2107C22.3714 15.2933 22.5175 15.3373 22.6668 15.3373C22.8162 15.3373 22.9622 15.2933 23.0867 15.2107C23.2112 15.1282 23.3087 15.0108 23.3668 14.8733Z" />
</svg>
