<svg viewBox="0 0 28 23" xmlns="http://www.w3.org/2000/svg">
  <path d="M14.0002 17.9999V8.9999M14.0002 8.9999L18.0002 12.9999M14.0002 8.9999L10.0002 12.9999M7.00018 21.9999C5.57275 22.0014 4.19154 21.494 3.10457 20.5688C2.01761 19.6436 1.29611 18.3611 1.06966 16.9518C0.843196 15.5424 1.12661 14.0985 1.869 12.8794C2.61139 11.6602 3.76412 10.7456 5.12018 10.2999C4.77178 8.51479 5.13185 6.66417 6.12416 5.13992C7.11646 3.61567 8.66306 2.53749 10.4365 2.1337C12.2099 1.72991 14.0708 2.03221 15.6252 2.97658C17.1796 3.92096 18.3054 5.43326 18.7642 7.19323C19.4735 6.96253 20.2332 6.93478 20.9575 7.11309C21.6818 7.29141 22.3418 7.6687 22.863 8.20235C23.3842 8.736 23.7457 9.40474 23.9069 10.133C24.068 10.8614 24.0223 11.6202 23.7748 12.3239C24.8664 12.7408 25.7775 13.5267 26.3503 14.5452C26.923 15.5636 27.1211 16.7504 26.9103 17.8997C26.6996 19.049 26.0931 20.0883 25.1962 20.8372C24.2994 21.5861 23.1686 21.9975 22.0002 21.9999H7.00018Z" stroke-linecap="round" stroke-linejoin="round"/>
</svg>
