<svg viewBox="0 0 32 32" xmlns="http://www.w3.org/2000/svg">
  <g>
    <path id="Vector"
      d="M6 27C5.73586 26.9965 5.4835 26.8901 5.29671 26.7033C5.10992 26.5165 5.00345 26.2641 5 26V6C5 5.73478 5.10536 5.48043 5.29289 5.29289C5.48043 5.10536 5.73478 5 6 5C6.26522 5 6.51957 5.10536 6.70711 5.29289C6.89464 5.48043 7 5.73478 7 6V26C6.99655 26.2641 6.89008 26.5165 6.70329 26.7033C6.5165 26.8901 6.26414 26.9965 6 27Z"
      fill="#E5C6F3" />
    <path id="Vector_2"
      d="M26 27.0001H6C5.73478 27.0001 5.48043 26.8948 5.29289 26.7072C5.10536 26.5197 5 26.2653 5 26.0001C5 25.7349 5.10536 25.4806 5.29289 25.293C5.48043 25.1055 5.73478 25.0001 6 25.0001H26C26.2652 25.0001 26.5196 25.1055 26.7071 25.293C26.8946 25.4806 27 25.7349 27 26.0001C27 26.2653 26.8946 26.5197 26.7071 26.7072C26.5196 26.8948 26.2652 27.0001 26 27.0001ZM18.6667 19.6668C18.5353 19.6674 18.4051 19.6418 18.2837 19.5914C18.1624 19.541 18.0523 19.4669 17.96 19.3735L14.6667 16.0801L11.3733 19.3735C11.1838 19.5501 10.933 19.6463 10.674 19.6417C10.4149 19.6371 10.1677 19.5322 9.9845 19.349C9.80129 19.1657 9.69634 18.9186 9.69177 18.6595C9.6872 18.4004 9.78336 18.1497 9.96 17.9601L13.96 13.9601C14.1475 13.7729 14.4017 13.6677 14.6667 13.6677C14.9317 13.6677 15.1858 13.7729 15.3733 13.9601L18.6667 17.2535L23.2933 12.6268C23.4829 12.4501 23.7336 12.354 23.9927 12.3586C24.2518 12.3631 24.4989 12.4681 24.6822 12.6513C24.8654 12.8345 24.9703 13.0817 24.9749 13.3408C24.9795 13.5998 24.8833 13.8506 24.7067 14.0401L19.3733 19.3735C19.281 19.4669 19.1709 19.541 19.0496 19.5914C18.9282 19.6418 18.7981 19.6674 18.6667 19.6668Z"
      fill="#E5C6F3" />
    <path id="Vector_3"
      d="M24.6667 18.4533C24.4025 18.4498 24.1502 18.3434 23.9634 18.1566C23.7766 17.9698 23.6701 17.7174 23.6667 17.4533V13.6666H20C19.7348 13.6666 19.4804 13.5613 19.2929 13.3737C19.1054 13.1862 19 12.9318 19 12.6666C19 12.4014 19.1054 12.1471 19.2929 11.9595C19.4804 11.772 19.7348 11.6666 20 11.6666H24.6667C24.9308 11.6701 25.1832 11.7765 25.37 11.9633C25.5567 12.1501 25.6632 12.4025 25.6667 12.6666V17.4533C25.6632 17.7174 25.5567 17.9698 25.37 18.1566C25.1832 18.3434 24.9308 18.4498 24.6667 18.4533Z"
      fill="#E5C6F3" />
  </g>
</svg>