<svg viewBox="0 0 30 24" xmlns="http://www.w3.org/2000/svg">
  <path d="M28.5 8.5H25.5V1.5C25.4995 1.10233 25.3413 0.721085 25.0601 0.439888C24.7789 0.158691 24.3977 0.000496161 24 0H1.5C1.10233 0.000496161 0.721085 0.158691 0.439888 0.439888C0.158691 0.721085 0.000496161 1.10233 0 1.5V16.875C0.000496161 17.2727 0.158691 17.6539 0.439888 17.9351C0.721085 18.2163 1.10233 18.3745 1.5 18.375H12.25V21.5H8.5V23.5H18V21.5H14.25V18.375H20V22C20.0004 22.3977 20.1586 22.779 20.4398 23.0602C20.721 23.3414 21.1023 23.4996 21.5 23.5H28.5C28.8977 23.4996 29.279 23.3414 29.5602 23.0602C29.8414 22.779 29.9996 22.3977 30 22V10C29.9996 9.60231 29.8414 9.22104 29.5602 8.93983C29.279 8.65862 28.8977 8.50045 28.5 8.5ZM20 10V16.375H2V2H23.5V8.5H21.5C21.1023 8.50045 20.721 8.65862 20.4398 8.93983C20.1586 9.22104 20.0004 9.60231 20 10ZM28 21.5H22V10.5H28V21.5Z" />
</svg>
