<svg viewBox="0 0 24 28" xmlns="http://www.w3.org/2000/svg">
  <path d="M17 21V25.5C17 26.328 16.328 27 15.5 27H2.5C2.10218 27 1.72064 26.842 1.43934 26.5607C1.15804 26.2794 1 25.8978 1 25.5V8.5C1 7.672 1.672 7 2.5 7H5C5.6701 6.99955 6.33907 7.05485 7 7.16534M17 21H21.5C22.328 21 23 20.328 23 19.5V13C23 7.05334 18.676 2.11867 13 1.16534C12.3391 1.05485 11.6701 0.999547 11 1H8.5C7.672 1 7 1.672 7 2.5V7.16534M17 21H8.5C8.10218 21 7.72064 20.842 7.43934 20.5607C7.15804 20.2794 7 19.8978 7 19.5V7.16534M23 16V13.5C23 12.3065 22.5259 11.1619 21.682 10.318C20.8381 9.47411 19.6935 9 18.5 9H16.5C16.1022 9 15.7206 8.84197 15.4393 8.56066C15.158 8.27936 15 7.89783 15 7.5V5.5C15 4.90905 14.8836 4.32389 14.6575 3.77793C14.4313 3.23196 14.0998 2.73589 13.682 2.31802C13.2641 1.90016 12.768 1.56869 12.2221 1.34254C11.6761 1.1164 11.0909 1 10.5 1H9" stroke-linecap="round" stroke-linejoin="round"/>
</svg>
