<svg viewBox="0 0 32 32" xmlns="http://www.w3.org/2000/svg">
  <path d="M26.6668 9.33329V28C26.6668 28.3536 26.5264 28.6927 26.2763 28.9428C26.0263 29.1928 25.6871 29.3333 25.3335 29.3333H6.66683C6.31321 29.3333 5.97407 29.1928 5.72402 28.9428C5.47397 28.6927 5.3335 28.3536 5.3335 28V3.99996C5.3335 3.64634 5.47397 3.3072 5.72402 3.05715C5.97407 2.8071 6.31321 2.66663 6.66683 2.66663H20.0002M26.6668 9.33329H20.0002V2.66663M26.6668 9.33329L20.0002 2.66663M11.3335 16.6666H20.6668L17.3335 13.3333M20.6668 20.6666H11.3335L14.6668 24" />
</svg>
