<svg viewBox="0 0 32 32" xmlns="http://www.w3.org/2000/svg">
  <path d="M8.25546 10.7161C8.04353 10.9281 7.76156 11.0554 7.46245 11.0742C7.16335 11.093 6.86765 11.002 6.63085 10.8183L6.51515 10.7161L2.82285 7.02383C2.61094 6.8119 2.48364 6.52994 2.46483 6.23083C2.44602 5.93172 2.537 5.63602 2.72069 5.39922L2.82285 5.28353L6.51515 1.59122C6.72708 1.37931 7.00905 1.25201 7.30816 1.2332C7.60727 1.21439 7.90297 1.30537 8.13977 1.48906L8.25546 1.59122L11.5884 4.92291H23.3299L23.6007 4.92906C25.198 5.00023 26.7064 5.68487 27.8116 6.84038C28.9167 7.99589 29.5335 9.5332 29.5335 11.1321C29.5335 12.7311 28.9167 14.2684 27.8116 15.4239C26.7064 16.5794 25.198 17.264 23.6007 17.3352L23.3299 17.3401L20.0942 17.3389L16.8708 20.5635C16.6588 20.7753 16.3767 20.9023 16.0776 20.9209C15.7785 20.9395 15.4829 20.8483 15.2462 20.6645L15.1305 20.5623L11.9059 17.3389H8.56192L8.34777 17.3463C7.423 17.4028 6.55462 17.81 5.91977 18.4848C5.28492 19.1596 4.93145 20.0512 4.93145 20.9777C4.93145 21.9042 5.28492 22.7958 5.91977 23.4706C6.55462 24.1454 7.423 24.5526 8.34777 24.6091L8.56192 24.6152H23.3853V22.1537C23.3853 21.1051 24.5988 20.5574 25.3828 21.19L25.4862 21.2835L29.1785 24.9758C29.3904 25.1878 29.5177 25.4697 29.5366 25.7688C29.5554 26.068 29.4644 26.3636 29.2807 26.6005L29.1785 26.7161L25.4862 30.4085C24.7453 31.1506 23.4998 30.6792 23.3927 29.6786L23.3853 29.5383V27.0768H8.56192L8.29731 27.0706C6.72858 27.0001 5.24748 26.3273 4.16232 25.1922C3.07716 24.0572 2.47154 22.5474 2.47154 20.9771C2.47154 19.4068 3.07716 17.8969 4.16232 16.7619C5.24748 15.6269 6.72858 14.954 8.29731 14.8835L8.56192 14.8786L11.6881 14.8774L15.1305 11.4374C15.3425 11.2255 15.6244 11.0982 15.9235 11.0794C16.2227 11.0605 16.5184 11.1515 16.7552 11.3352L16.8708 11.4374L20.3121 14.8774H23.3312L23.5502 14.8724C24.5035 14.8151 25.3989 14.396 26.0535 13.7007C26.7082 13.0055 27.0728 12.0865 27.0728 11.1315C27.0728 10.1766 26.7082 9.2576 26.0535 8.56234C25.3989 7.86709 24.5035 7.44798 23.5502 7.3906L23.3312 7.38445H11.5872L8.25546 10.7161Z" />
</svg>