<svg viewBox="0 0 20 20" xmlns="http://www.w3.org/2000/svg">
  <path d="M16.4537 4.65809C16.4537 5.29901 15.9342 5.81847 15.2933 5.81847C14.6524 5.81847 14.1329 5.29901 14.1329 4.65809C14.1329 4.01716 14.6524 3.4977 15.2933 3.4977C15.9342 3.4977 16.4537 4.01716 16.4537 4.65809ZM15.009 9.85889C15.009 12.5461 12.8226 14.7325 10.1359 14.7325C7.44869 14.7325 5.26231 12.5461 5.26231 9.85889C5.26231 7.17165 7.44869 4.98579 10.1359 4.98579C12.8232 4.98579 15.009 7.17217 15.009 9.85889ZM13.2579 9.85889C13.2579 8.13769 11.8571 6.73696 10.1359 6.73696C8.41473 6.73696 7.01399 8.13769 7.01399 9.85889C7.01399 11.5806 8.41473 12.9808 10.1359 12.9808C11.8571 12.9808 13.2579 11.5806 13.2579 9.85889ZM19.9995 5.94407C19.9995 2.66139 17.3381 0 14.0554 0H5.94407C2.66139 0 0 2.66139 0 5.94407V14.0559C0 17.3386 2.66139 20 5.94407 20H14.0554C17.3386 20 19.9995 17.3386 19.9995 14.0559V5.94407ZM18.0483 13.9665C18.0483 16.2211 16.2201 18.0488 13.9655 18.0488H6.03348C3.77887 18.0488 1.95068 16.2211 1.95068 13.9665V6.03349C1.95068 3.77888 3.77835 1.95121 6.03348 1.95121H13.966C16.2206 1.95121 18.0488 3.77888 18.0488 6.03349L18.0483 13.9665Z"/>
</svg>