<svg viewBox="0 0 32 32" xmlns="http://www.w3.org/2000/svg">
  <path d="M19.8095 22.776C22.2938 22.4819 24.7347 21.8956 27.0815 21.0293C25.094 18.8277 23.9958 15.966 24.0002 13V12C24.0002 9.87827 23.1573 7.84344 21.657 6.34315C20.1568 4.84286 18.1219 4 16.0002 4C13.8785 4 11.8436 4.84286 10.3433 6.34315C8.84305 7.84344 8.00019 9.87827 8.00019 12V13C8.00422 15.9662 6.90551 18.8279 4.91753 21.0293C7.22819 21.8827 9.66419 22.476 12.1909 22.776M19.8095 22.776C17.2788 23.0762 14.7215 23.0762 12.1909 22.776M19.8095 22.776C20.0017 23.3758 20.0494 24.0125 19.949 24.6343C19.8485 25.2561 19.6026 25.8453 19.2314 26.3541C18.8601 26.8629 18.3739 27.2768 17.8124 27.5621C17.251 27.8475 16.63 27.9962 16.0002 27.9962C15.3704 27.9962 14.7494 27.8475 14.1879 27.5621C13.6265 27.2768 13.1403 26.8629 12.769 26.3541C12.3978 25.8453 12.1519 25.2561 12.0514 24.6343C11.9509 24.0125 11.9987 23.3758 12.1909 22.776M4.16553 10C4.54149 7.76663 5.54392 5.68592 7.05619 4M24.9442 4C26.4565 5.68592 27.4589 7.76663 27.8349 10" stroke-linecap="round" stroke-linejoin="round" />
</svg>