<svg viewBox="0 0 32 32" xmlns="http://www.w3.org/2000/svg">
  <path d="M14.6665 29.3332C13.5758 29.3332 12.5332 28.8932 10.4492 28.0132C5.26117 25.8212 2.6665 24.7238 2.6665 22.8798V9.33317M14.6665 29.3332V15.1398M14.6665 29.3332C15.1198 29.3332 15.5278 29.2572 15.9998 29.1038M26.6665 9.33317V15.3332M6.6665 15.9998L9.33317 17.3332M21.3332 5.33317L7.99984 11.9998M26.8425 26.8785L29.3332 29.3332M9.76784 12.9212L5.87317 11.0372C3.73584 10.0025 2.6665 9.48517 2.6665 8.6665C2.6665 7.84784 3.73584 7.3305 5.87317 6.29584L9.7665 4.41184C12.1732 3.24784 13.3732 2.6665 14.6665 2.6665C15.9598 2.6665 17.1612 3.24784 19.5652 4.41184L23.4598 6.29584C25.5972 7.3305 26.6665 7.84784 26.6665 8.6665C26.6665 9.48517 25.5972 10.0025 23.4598 11.0372L19.5665 12.9212C17.1598 14.0852 15.9598 14.6665 14.6665 14.6665C13.3732 14.6665 12.1718 14.0852 9.76784 12.9212ZM28.2758 23.4612C28.2753 24.0915 28.1506 24.7156 27.9089 25.2977C27.6672 25.8799 27.3132 26.4088 26.8671 26.8541C26.421 27.2995 25.8916 27.6526 25.309 27.8933C24.7265 28.1341 24.1022 28.2577 23.4718 28.2572C22.8414 28.2579 22.217 28.1344 21.6342 27.8937C21.0515 27.653 20.5219 27.2999 20.0757 26.8546C19.6295 26.4092 19.2753 25.8803 19.0335 25.2981C18.7917 24.7158 18.667 24.0916 18.6665 23.4612C18.6672 22.8308 18.7921 22.2068 19.0339 21.6247C19.2758 21.0426 19.6299 20.5138 20.0762 20.0686C20.5224 19.6234 21.0519 19.2704 21.6345 19.0298C22.2172 18.7893 22.8415 18.6658 23.4718 18.6665C24.7446 18.6654 25.9658 19.17 26.8666 20.0691C27.7675 20.9682 28.2744 22.1884 28.2758 23.4612Z" stroke-linecap="round" stroke-linejoin="round"/>
</svg>
