<svg viewBox="0 0 28 25" xmlns="http://www.w3.org/2000/svg">
  <path d="M20.7452 16.6947C21.3689 16.2687 22.1004 16.0281 22.8552 16.0006C23.61 15.9731 24.3572 16.1598 25.0102 16.5392C25.6633 16.9186 26.1956 17.4752 26.5456 18.1445C26.8956 18.8138 27.0489 19.5685 26.9878 20.3213C25.388 20.8804 23.6888 21.098 21.9998 20.96C21.9946 19.4488 21.5595 17.969 20.7452 16.696C20.0224 15.5624 19.0253 14.6294 17.8463 13.9833C16.6672 13.3373 15.3443 12.9991 13.9998 13C12.6556 12.9993 11.3329 13.3376 10.1541 13.9837C8.97533 14.6297 7.97849 15.5626 7.25582 16.696M21.9985 20.9587L21.9998 21C21.9998 21.3 21.9838 21.596 21.9505 21.888C19.531 23.2762 16.7893 24.0045 13.9998 24C11.1065 24 8.39048 23.232 6.04915 21.888C6.01487 21.5794 5.9984 21.2691 5.99982 20.9587M5.99982 20.9587C4.31132 21.1017 2.61303 20.8849 1.01448 20.3227C0.953619 19.5701 1.10701 18.8156 1.45692 18.1465C1.80683 17.4774 2.33898 16.9211 2.99182 16.5417C3.64466 16.1624 4.39155 15.9755 5.14611 16.0028C5.90067 16.0301 6.6321 16.2705 7.25582 16.696M5.99982 20.9587C6.00461 19.4476 6.44198 17.9692 7.25582 16.696M17.9998 5C17.9998 6.06087 17.5784 7.07828 16.8282 7.82843C16.0781 8.57857 15.0607 9 13.9998 9C12.939 9 11.9215 8.57857 11.1714 7.82843C10.4212 7.07828 9.99982 6.06087 9.99982 5C9.99982 3.93913 10.4212 2.92172 11.1714 2.17157C11.9215 1.42143 12.939 1 13.9998 1C15.0607 1 16.0781 1.42143 16.8282 2.17157C17.5784 2.92172 17.9998 3.93913 17.9998 5ZM25.9998 9C25.9998 9.39397 25.9222 9.78407 25.7715 10.1481C25.6207 10.512 25.3997 10.8427 25.1211 11.1213C24.8426 11.3999 24.5118 11.6209 24.1479 11.7716C23.7839 11.9224 23.3938 12 22.9998 12C22.6059 12 22.2157 11.9224 21.8518 11.7716C21.4878 11.6209 21.1571 11.3999 20.8785 11.1213C20.5999 10.8427 20.3789 10.512 20.2282 10.1481C20.0774 9.78407 19.9998 9.39397 19.9998 9C19.9998 8.20435 20.3159 7.44129 20.8785 6.87868C21.4411 6.31607 22.2042 6 22.9998 6C23.7955 6 24.5585 6.31607 25.1211 6.87868C25.6837 7.44129 25.9998 8.20435 25.9998 9ZM7.99982 9C7.99982 9.39397 7.92222 9.78407 7.77146 10.1481C7.62069 10.512 7.39971 10.8427 7.12114 11.1213C6.84256 11.3999 6.51184 11.6209 6.14787 11.7716C5.78389 11.9224 5.39378 12 4.99982 12C4.60585 12 4.21574 11.9224 3.85177 11.7716C3.48779 11.6209 3.15707 11.3999 2.8785 11.1213C2.59992 10.8427 2.37894 10.512 2.22818 10.1481C2.07741 9.78407 1.99982 9.39397 1.99982 9C1.99982 8.20435 2.31589 7.44129 2.8785 6.87868C3.44111 6.31607 4.20417 6 4.99982 6C5.79547 6 6.55853 6.31607 7.12114 6.87868C7.68375 7.44129 7.99982 8.20435 7.99982 9Z" stroke-linecap="round" stroke-linejoin="round"/>
</svg>
