<svg viewBox="0 0 32 32" xmlns="http://www.w3.org/2000/svg">
  <g>
    <path d="M11.4998 11.3333H5.49984C5.14622 11.3333 4.80708 11.1928 4.55703 10.9428C4.30698 10.6927 4.1665 10.3536 4.1665 9.99996V3.99996C4.1665 3.64634 4.30698 3.3072 4.55703 3.05715C4.80708 2.8071 5.14622 2.66663 5.49984 2.66663C5.85346 2.66663 6.1926 2.8071 6.44265 3.05715C6.69269 3.3072 6.83317 3.64634 6.83317 3.99996V8.66663H11.4998C11.8535 8.66663 12.1926 8.8071 12.4426 9.05715C12.6927 9.3072 12.8332 9.64634 12.8332 9.99996C12.8332 10.3536 12.6927 10.6927 12.4426 10.9428C12.1926 11.1928 11.8535 11.3333 11.4998 11.3333Z" />
    <path d="M28.0007 17.3334C27.6471 17.3334 27.3079 17.193 27.0579 16.9429C26.8078 16.6929 26.6674 16.3537 26.6674 16.0001C26.6684 13.6528 25.8946 11.3708 24.4661 9.50824C23.0377 7.64565 21.0344 6.30662 18.7671 5.69893C16.4999 5.09124 14.0954 5.24887 11.9269 6.14736C9.75841 7.04585 7.94709 8.63496 6.77402 10.6681C6.59685 10.9742 6.30536 11.1973 5.96367 11.2884C5.62198 11.3796 5.25808 11.3313 4.95202 11.1541C4.64596 10.9769 4.42281 10.6854 4.33167 10.3437C4.24053 10.0021 4.28885 9.63815 4.46602 9.3321C5.93302 6.79108 8.1976 4.80522 10.9084 3.68261C13.6193 2.56 16.6248 2.36339 19.4588 3.12328C22.2928 3.88317 24.7968 5.55708 26.5823 7.88533C28.3678 10.2136 29.3351 13.066 29.334 16.0001C29.334 16.3537 29.1935 16.6929 28.9435 16.9429C28.6934 17.193 28.3543 17.3334 28.0007 17.3334ZM26.5007 29.3334C26.1471 29.3334 25.8079 29.193 25.5579 28.9429C25.3078 28.6929 25.1674 28.3537 25.1674 28.0001V23.3334H20.5007C20.1471 23.3334 19.8079 23.193 19.5579 22.9429C19.3078 22.6929 19.1674 22.3537 19.1674 22.0001C19.1674 21.6465 19.3078 21.3073 19.5579 21.0573C19.8079 20.8072 20.1471 20.6668 20.5007 20.6668H26.5007C26.8543 20.6668 27.1934 20.8072 27.4435 21.0573C27.6935 21.3073 27.834 21.6465 27.834 22.0001V28.0001C27.834 28.3537 27.6935 28.6929 27.4435 28.9429C27.1934 29.193 26.8543 29.3334 26.5007 29.3334Z" />
    <path d="M15.9998 29.3333C12.4647 29.3298 9.07537 27.9239 6.57565 25.4242C4.07593 22.9244 2.67003 19.5351 2.6665 16C2.6665 15.6463 2.80698 15.3072 3.05703 15.0572C3.30708 14.8071 3.64622 14.6666 3.99984 14.6666C4.35346 14.6666 4.6926 14.8071 4.94265 15.0572C5.19269 15.3072 5.33317 15.6463 5.33317 16C5.33216 18.3472 6.10592 20.6292 7.53438 22.4918C8.96284 24.3544 10.9661 25.6934 13.2334 26.3011C15.5006 26.9088 17.9051 26.7512 20.0736 25.8527C22.2421 24.9542 24.0534 23.3651 25.2265 21.332C25.3142 21.1804 25.4309 21.0476 25.57 20.9412C25.709 20.8348 25.8677 20.7567 26.0368 20.7116C26.206 20.6665 26.3825 20.6551 26.556 20.6782C26.7296 20.7012 26.897 20.7582 27.0485 20.846C27.2001 20.9337 27.3328 21.0504 27.4393 21.1894C27.5457 21.3285 27.6237 21.4871 27.6689 21.6563C27.714 21.8255 27.7253 22.0019 27.7023 22.1755C27.6792 22.3491 27.6222 22.5164 27.5345 22.668C26.3621 24.6901 24.6801 26.3696 22.6562 27.5391C20.6323 28.7086 18.3373 29.3272 15.9998 29.3333Z" />
  </g>
</svg>