<svg viewBox="0 0 32 32" xmlns="http://www.w3.org/2000/svg">
  <path d="M21.3326 15.9999C22.3934 15.9999 23.4108 16.4213 24.161 17.1714C24.9111 17.9216 25.3326 18.939 25.3326 19.9999V27.9999C25.3326 28.3535 25.1921 28.6926 24.942 28.9427C24.692 29.1927 24.3528 29.3332 23.9992 29.3332C23.6456 29.3332 23.3065 29.1927 23.0564 28.9427C22.8064 28.6926 22.6659 28.3535 22.6659 27.9999V19.9999C22.6659 19.6462 22.5254 19.3071 22.2754 19.057C22.0253 18.807 21.6862 18.6665 21.3326 18.6665H10.6659C10.3123 18.6665 9.97313 18.807 9.72308 19.057C9.47304 19.3071 9.33256 19.6462 9.33256 19.9999V27.9999C9.33256 28.3535 9.19208 28.6926 8.94204 28.9427C8.69199 29.1927 8.35285 29.3332 7.99923 29.3332C7.6456 29.3332 7.30647 29.1927 7.05642 28.9427C6.80637 28.6926 6.66589 28.3535 6.66589 27.9999V19.9999C6.66589 18.939 7.08732 17.9216 7.83747 17.1714C8.58761 16.4213 9.60503 15.9999 10.6659 15.9999H21.3326ZM18.6659 21.3332C19.0057 21.3336 19.3326 21.4637 19.5797 21.697C19.8268 21.9303 19.9755 22.2491 19.9955 22.5884C20.0154 22.9276 19.905 23.2617 19.6869 23.5223C19.4688 23.7829 19.1594 23.9504 18.8219 23.9905L18.6659 23.9999H13.3326C12.9927 23.9995 12.6658 23.8693 12.4187 23.6361C12.1716 23.4028 12.0229 23.0839 12.003 22.7447C11.9831 22.4054 12.0935 22.0713 12.3116 21.8107C12.5297 21.5501 12.8391 21.3827 13.1766 21.3425L13.3326 21.3332H18.6659ZM15.9992 10.6665C17.4126 10.6665 18.7286 11.1079 19.8086 11.8612C20.0987 12.0635 20.2966 12.3727 20.3588 12.7209C20.4209 13.0691 20.3422 13.4277 20.1399 13.7179C19.9376 14.008 19.6284 14.2059 19.2802 14.268C18.932 14.3302 18.5734 14.2515 18.2832 14.0492C17.6128 13.583 16.8158 13.3331 15.9992 13.3332C15.1472 13.3332 14.3619 13.5972 13.7152 14.0492C13.5718 14.1536 13.4091 14.2284 13.2364 14.2691C13.0638 14.3098 12.8847 14.3157 12.7098 14.2864C12.5348 14.2571 12.3675 14.1931 12.2176 14.0983C12.0677 14.0035 11.9382 13.8797 11.8367 13.7342C11.7352 13.5887 11.6638 13.4245 11.6266 13.251C11.5894 13.0776 11.5872 12.8985 11.62 12.7242C11.6529 12.5499 11.7203 12.3839 11.8181 12.2359C11.916 12.088 12.0424 11.961 12.1899 11.8625C13.3077 11.084 14.6371 10.6667 15.9992 10.6665ZM15.9992 6.66652C18.5566 6.66652 20.9072 7.56785 22.7459 9.07052C22.8845 9.18034 22.9998 9.31664 23.0852 9.47146C23.1706 9.62628 23.2244 9.79655 23.2433 9.97234C23.2623 10.1481 23.2461 10.3259 23.1958 10.4954C23.1454 10.6649 23.0618 10.8227 22.9498 10.9596C22.8379 11.0964 22.6999 11.2097 22.5437 11.2927C22.3876 11.3757 22.2166 11.4268 22.0405 11.4431C21.8644 11.4594 21.6869 11.4405 21.5182 11.3875C21.3495 11.3345 21.193 11.2485 21.0579 11.1345C19.6312 9.96627 17.8432 9.32957 15.9992 9.33318C14.0792 9.33318 12.3219 10.0079 10.9432 11.1332C10.8079 11.2459 10.6515 11.3307 10.4831 11.3827C10.3148 11.4347 10.1378 11.4527 9.96244 11.4359C9.78706 11.4191 9.61677 11.3676 9.46139 11.2846C9.30601 11.2015 9.16863 11.0885 9.05719 10.952C8.94575 10.8156 8.86246 10.6584 8.81213 10.4896C8.76181 10.3207 8.74544 10.1436 8.76398 9.96838C8.78251 9.79317 8.83559 9.62338 8.92014 9.46881C9.00469 9.31425 9.11903 9.17797 9.25656 9.06785C11.1588 7.51181 13.5416 6.6632 15.9992 6.66652ZM15.9992 2.66652C19.5316 2.6615 22.9462 3.93612 25.6112 6.25452C25.8713 6.48825 26.0291 6.81479 26.0507 7.16378C26.0723 7.51276 25.956 7.85628 25.7268 8.12031C25.4975 8.38434 25.1737 8.54775 24.8252 8.57535C24.4766 8.60295 24.1312 8.49252 23.8632 8.26785C21.6831 6.37064 18.8892 5.32802 15.9992 5.33318C13.1074 5.32764 10.3119 6.37238 8.13256 8.27318C7.86558 8.50516 7.51737 8.62158 7.16455 8.59682C6.81174 8.57207 6.4832 8.40817 6.25123 8.14118C6.01925 7.8742 5.90283 7.526 5.92759 7.17318C5.95234 6.82036 6.11624 6.49183 6.38323 6.25985C9.04854 3.93861 12.4648 2.66201 15.9992 2.66652Z" />
</svg>