<svg viewBox="0 0 32 32" xmlns="http://www.w3.org/2000/svg">
  <path d="M5.3335 10.6668V8.00016C5.3335 7.29292 5.61445 6.61464 6.11454 6.11454C6.61464 5.61445 7.29292 5.3335 8.00016 5.3335H10.6668M5.3335 21.3335V24.0002C5.3335 24.7074 5.61445 25.3857 6.11454 25.8858C6.61464 26.3859 7.29292 26.6668 8.00016 26.6668H10.6668M21.3335 5.3335H24.0002C24.7074 5.3335 25.3857 5.61445 25.8858 6.11454C26.3859 6.61464 26.6668 7.29292 26.6668 8.00016V10.6668M21.3335 26.6668H24.0002C24.7074 26.6668 25.3857 26.3859 25.8858 25.8858C26.3859 25.3857 26.6668 24.7074 26.6668 24.0002V21.3335M13.3335 14.6668V12.0002C13.3335 11.2929 13.6144 10.6146 14.1145 10.1145C14.6146 9.61445 15.2929 9.3335 16.0002 9.3335C16.7074 9.3335 17.3857 9.61445 17.8858 10.1145C18.3859 10.6146 18.6668 11.2929 18.6668 12.0002V14.6668M10.6668 16.0002C10.6668 15.6465 10.8073 15.3074 11.0574 15.0574C11.3074 14.8073 11.6465 14.6668 12.0002 14.6668H20.0002C20.3538 14.6668 20.6929 14.8073 20.943 15.0574C21.193 15.3074 21.3335 15.6465 21.3335 16.0002V20.0002C21.3335 20.3538 21.193 20.6929 20.943 20.943C20.6929 21.193 20.3538 21.3335 20.0002 21.3335H12.0002C11.6465 21.3335 11.3074 21.193 11.0574 20.943C10.8073 20.6929 10.6668 20.3538 10.6668 20.0002V16.0002Z" stroke-linecap="round" stroke-linejoin="round"/>
</svg>
