<svg viewBox="0 0 24 28" xmlns="http://www.w3.org/2000/svg">
  <path d="M11.1333 3.11467C11.0467 3.39467 11 3.692 11 4C11 4.552 11.448 5 12 5H18C18.2652 5 18.5196 4.89464 18.7071 4.70711C18.8946 4.51957 19 4.26522 19 4C19.0001 3.69988 18.9551 3.40145 18.8667 3.11467M11.1333 3.11467C11.3227 2.50226 11.7032 1.96658 12.219 1.58605C12.7349 1.20553 13.359 1.00015 14 1H16C17.3493 1 18.4893 1.89067 18.8667 3.11467M11.1333 3.11467C10.632 3.14533 10.1333 3.18133 9.63467 3.22133C8.12667 3.34667 7 4.63067 7 6.144V9M18.8667 3.11467C19.368 3.14533 19.8667 3.18133 20.3653 3.22133C21.8733 3.34667 23 4.63067 23 6.144V20C23 20.7957 22.6839 21.5587 22.1213 22.1213C21.5587 22.6839 20.7957 23 20 23H17M7 9H2.5C1.672 9 1 9.672 1 10.5V25.5C1 26.328 1.672 27 2.5 27H15.5C16.328 27 17 26.328 17 25.5V23M7 9H15.5C16.328 9 17 9.672 17 10.5V23M6 19L8 21L12 16" stroke-linecap="round" stroke-linejoin="round"/>
</svg>
