<svg viewBox="0 0 32 32" xmlns="http://www.w3.org/2000/svg">
  <path d="M29.53 17.53L25.53 21.53C25.3878 21.6625 25.1998 21.7346 25.0055 21.7312C24.8112 21.7278 24.6258 21.649 24.4884 21.5116C24.351 21.3742 24.2723 21.1888 24.2688 20.9945C24.2654 20.8002 24.3375 20.6122 24.47 20.47L27.1887 17.75H15.3137L7.81375 25.25H12C12.1989 25.25 12.3897 25.329 12.5303 25.4697C12.671 25.6103 12.75 25.8011 12.75 26C12.75 26.1989 12.671 26.3897 12.5303 26.5303C12.3897 26.671 12.1989 26.75 12 26.75H6C5.80109 26.75 5.61032 26.671 5.46967 26.5303C5.32902 26.3897 5.25 26.1989 5.25 26V20C5.25 19.8011 5.32902 19.6103 5.46967 19.4697C5.61032 19.329 5.80109 19.25 6 19.25C6.19891 19.25 6.38968 19.329 6.53033 19.4697C6.67098 19.6103 6.75 19.8011 6.75 20V24.1888L14.25 16.6888V4.81376L11.53 7.53001C11.3878 7.66249 11.1998 7.73461 11.0055 7.73119C10.8112 7.72776 10.6258 7.64905 10.4884 7.51163C10.351 7.37422 10.2723 7.18883 10.2688 6.99453C10.2654 6.80023 10.3375 6.61219 10.47 6.47001L14.47 2.47001C14.6106 2.32956 14.8012 2.25067 15 2.25067C15.1988 2.25067 15.3894 2.32956 15.53 2.47001L19.53 6.47001C19.6037 6.53867 19.6628 6.62147 19.7038 6.71347C19.7448 6.80547 19.7668 6.90479 19.7686 7.00549C19.7704 7.10619 19.7518 7.20622 19.7141 7.29961C19.6764 7.393 19.6203 7.47783 19.549 7.54905C19.4778 7.62027 19.393 7.67641 19.2996 7.71413C19.2062 7.75185 19.1062 7.77038 19.0055 7.7686C18.9048 7.76683 18.8055 7.74478 18.7135 7.70379C18.6215 7.6628 18.5387 7.6037 18.47 7.53001L15.75 4.81126V16.25H27.1887L24.47 13.53C24.3375 13.3878 24.2654 13.1998 24.2688 13.0055C24.2723 12.8112 24.351 12.6258 24.4884 12.4884C24.6258 12.351 24.8112 12.2723 25.0055 12.2688C25.1998 12.2654 25.3878 12.3375 25.53 12.47L29.53 16.47C29.6705 16.6106 29.7493 16.8013 29.7493 17C29.7493 17.1988 29.6705 17.3894 29.53 17.53Z" />
</svg>
