<svg width="36" height="37" viewBox="0 0 36 37" fill="none" xmlns="http://www.w3.org/2000/svg">
<path fill-rule="evenodd" clip-rule="evenodd" d="M15.2948 10.2719C15.0108 10.3718 14.7242 10.49 14.4528 10.6216C14.1267 10.7784 13.7668 10.7554 13.465 10.5595L11.7537 9.45396C11.7055 9.42225 11.6499 9.42833 11.6104 9.46872L9.46619 11.6124C9.42668 11.6528 9.4206 11.708 9.45143 11.7558L10.5583 13.4669C10.7532 13.7701 10.7776 14.1302 10.6195 14.4551C10.4879 14.7288 10.3694 15.0124 10.2712 15.2978C10.1497 15.638 9.88088 15.8764 9.52742 15.9525L7.53867 16.3808C7.48353 16.3925 7.44662 16.4359 7.44662 16.4928V19.5245C7.44662 19.5814 7.48353 19.6248 7.53867 19.6365L9.52742 20.0648C9.88131 20.1404 10.1497 20.3785 10.2712 20.7195C10.3694 21.0049 10.4879 21.2877 10.6195 21.5622C10.7749 21.8871 10.7537 22.2472 10.5583 22.5504L9.45143 24.2624C9.4206 24.3102 9.42668 24.3653 9.46619 24.4057L11.6104 26.5494C11.6499 26.5894 11.7055 26.5955 11.7537 26.5642L13.465 25.4583C13.633 25.3488 13.8219 25.2932 14.0108 25.2932C14.1602 25.2932 14.3095 25.3275 14.4528 25.3966C14.7277 25.5278 15.0108 25.6459 15.2948 25.7463C15.6361 25.8657 15.8745 26.1355 15.9474 26.4882L16.3777 28.479C16.3895 28.5351 16.4329 28.5702 16.4876 28.5702H19.5189C19.5771 28.5702 19.6197 28.5351 19.6318 28.4799L20.0591 26.4886C20.1351 26.1359 20.3735 25.8657 20.7117 25.7467C20.9983 25.6468 21.2823 25.5295 21.5563 25.397C21.8798 25.2402 22.2398 25.2632 22.5446 25.4583L24.2524 26.5642C24.301 26.5955 24.3562 26.5894 24.3961 26.5494L26.5403 24.4057C26.5798 24.3653 26.5859 24.3102 26.5551 24.2624L25.4513 22.5504C25.2533 22.2472 25.2316 21.8871 25.387 21.5622C25.5216 21.2885 25.6371 21.0049 25.7379 20.7199C25.8569 20.3802 26.1287 20.1417 26.4791 20.0657L28.4709 19.6374C28.526 19.6252 28.559 19.5822 28.559 19.5253V16.4933C28.559 16.4368 28.5252 16.3934 28.4709 16.3812L26.4791 15.9533C26.1278 15.8777 25.8569 15.6393 25.7379 15.2987C25.6371 15.0133 25.5216 14.7301 25.387 14.456C25.2316 14.1311 25.2524 13.7709 25.4513 13.4673L26.5551 11.7567C26.5859 11.708 26.5798 11.6533 26.5403 11.6129L24.3961 9.46959C24.3562 9.42919 24.301 9.42311 24.2524 9.45439L22.5446 10.5604C22.2398 10.7563 21.8798 10.7784 21.5563 10.6216C21.2814 10.4895 20.9983 10.3718 20.7117 10.2719C20.3735 10.1525 20.1351 9.88183 20.0591 9.52997L19.6318 7.53872C19.6197 7.48269 19.5771 7.4475 19.5189 7.4475H16.4876C16.432 7.4475 16.3895 7.48269 16.3777 7.53829L15.9474 9.52911C15.8745 9.8827 15.637 10.1525 15.2948 10.2719ZM5.85519 29.9003H3.95502C3.7505 30.7887 2.95457 31.4537 2.00579 31.4537C0.90199 31.4537 0.00488281 30.5554 0.00488281 29.4521C0.00488281 28.3483 0.90199 27.4504 2.00579 27.4504C2.95457 27.4504 3.7505 28.1154 3.95502 29.0038H5.85519C6.16652 29.0038 6.42272 28.8982 6.64243 28.6814L9.56867 25.7953L10.2026 26.4296L7.27032 29.3196C6.88299 29.7044 6.40405 29.9003 5.85519 29.9003ZM3.10959 29.4521C3.10959 28.8422 2.61544 28.347 2.00579 28.347C1.3957 28.347 0.90199 28.843 0.90199 29.4521C0.90199 30.0615 1.39657 30.5571 2.00579 30.5571C2.61587 30.5571 3.10959 30.0611 3.10959 29.4521ZM20.0044 34.0132C20.0044 33.0636 19.3396 32.2673 18.4516 32.0632V29.482H17.5549V32.0632C16.6674 32.2673 16.0021 33.0645 16.0021 34.0132C16.0021 35.117 16.9018 36.0148 18.003 36.0148C19.1073 36.0148 20.0044 35.1174 20.0044 34.0132ZM18.0035 32.9081C18.614 32.9081 19.1073 33.4042 19.1073 34.0132C19.1073 34.6231 18.6131 35.1183 18.0035 35.1183C17.3964 35.1183 16.8997 34.6222 16.8997 34.0132C16.8988 33.4042 17.3964 32.9081 18.0035 32.9081ZM29.365 28.681C29.5842 28.8973 29.8435 29.0029 30.1548 29.0029H32.0519C32.2565 28.1146 33.0519 27.4495 34.0042 27.4495C35.1054 27.4495 36.0051 28.3478 36.0051 29.4512C36.0051 30.5545 35.1054 31.4529 34.0042 31.4529C33.0528 31.4529 32.2565 30.7878 32.0519 29.8995H30.1548C29.6029 29.8995 29.1274 29.7044 28.7366 29.3196L25.8047 26.4296L26.4387 25.7953L29.365 28.681ZM32.8969 29.4521C32.8969 30.0615 33.3941 30.5571 34.0038 30.5571C34.6108 30.5571 35.1076 30.0611 35.1076 29.4521C35.1076 28.8422 34.6099 28.347 34.0038 28.347C33.3941 28.3461 32.8969 28.8422 32.8969 29.4521ZM32.0519 17.5601H29.4709V18.4567H32.0519C32.2565 19.3451 33.0519 20.0101 34.0042 20.0101C35.1054 20.0101 36.0051 19.1122 36.0051 18.0084C36.0051 16.9042 35.1054 16.0072 34.0042 16.0072C33.0519 16.0072 32.2565 16.6718 32.0519 17.5601ZM32.8969 18.0093C32.8969 17.3999 33.3941 16.9042 34.0038 16.9042C34.6108 16.9042 35.1076 17.3999 35.1076 18.0093C35.1076 18.6183 34.6099 19.1144 34.0038 19.1144C33.3941 19.1144 32.8969 18.6183 32.8969 18.0093ZM32.0519 6.11869C32.2565 5.23036 33.0519 4.56531 34.0042 4.56531C35.1054 4.56531 36.0051 5.4632 36.0051 6.56699C36.0051 7.67121 35.1054 8.56823 34.0042 8.56823C33.0528 8.56823 32.2565 7.90361 32.0519 7.01528H30.1548C29.8435 7.01528 29.5842 7.1204 29.365 7.33716L26.4387 10.2233L25.8047 9.58905L28.7366 6.69904C29.1274 6.31417 29.6029 6.11913 30.1548 6.11913H32.0519V6.11869ZM32.8969 6.56699C32.8969 7.17644 33.3941 7.67165 34.0038 7.67165C34.6108 7.67165 35.1076 7.17557 35.1076 6.56699C35.1076 5.9571 34.6099 5.46189 34.0038 5.46189C33.3941 5.46103 32.8969 5.9571 32.8969 6.56699ZM16.0026 2.00457C16.0026 2.95415 16.6674 3.75082 17.5554 3.95499V6.53615H18.4525V3.95499C19.3396 3.75082 20.0052 2.95415 20.0052 2.00457C20.0052 0.97897 19.2306 0.131037 18.2358 0.0163574H17.7742C16.7794 0.131037 16.0026 0.97897 16.0026 2.00457ZM18.0035 3.10966C17.3964 3.10966 16.8997 2.61446 16.8997 2.00457C16.8997 1.39512 17.3973 0.899911 18.0035 0.899911C18.614 0.899911 19.1073 1.39599 19.1073 2.00457C19.1073 2.61359 18.614 3.10966 18.0035 3.10966ZM3.95502 7.01528C3.7505 7.90361 2.95457 8.56823 2.00579 8.56823C0.90199 8.56823 0.00488281 7.67034 0.00488281 6.56699C0.00488281 5.4632 0.90199 4.56531 2.00579 4.56531C2.95457 4.56531 3.7505 5.23036 3.95502 6.11869H5.85519C6.40405 6.11869 6.88299 6.31374 7.27032 6.69817L10.2026 9.58818L9.56867 10.2224L6.64243 7.33716C6.42272 7.1204 6.16652 7.01528 5.85519 7.01528H3.95502ZM3.10959 6.56699C3.10959 5.9571 2.61544 5.46189 2.00579 5.46189C1.3957 5.46189 0.90199 5.95797 0.90199 6.56699C0.90199 7.17644 1.39657 7.67165 2.00579 7.67165C2.61587 7.67165 3.10959 7.17557 3.10959 6.56699ZM3.95502 17.5601C3.7505 16.6718 2.95457 16.0072 2.00579 16.0072C0.90199 16.0072 0.00488281 16.9051 0.00488281 18.0084C0.00488281 19.1122 0.90199 20.0101 2.00579 20.0101C2.95457 20.0101 3.7505 19.3451 3.95502 18.4567H6.53648V17.5601H3.95502ZM2.00579 16.9042C2.61587 16.9042 3.10959 17.4003 3.10959 18.0093C3.10959 18.6183 2.61544 19.1144 2.00579 19.1144C1.3957 19.1144 0.90199 18.6183 0.90199 18.0093C0.90199 17.3999 1.3957 16.9042 2.00579 16.9042ZM20.9163 15.6275C20.9163 15.3795 21.1182 15.1792 21.3644 15.1792C21.6119 15.1792 21.8125 15.3795 21.8125 15.6275V20.319C21.8125 20.5661 21.611 20.7673 21.3644 20.7673C21.1173 20.7673 20.9163 20.5661 20.9163 20.319V15.6275ZM17.3904 15.499L19.7356 20.1904C19.8455 20.4115 19.7573 20.6812 19.5341 20.7916C19.4699 20.8237 19.4025 20.8394 19.3361 20.8394C19.1711 20.8394 19.0126 20.7486 18.9336 20.5913L18.4273 19.5753H15.554L15.0447 20.5913C14.9348 20.8129 14.6665 20.9032 14.4433 20.7916C14.2209 20.6812 14.1319 20.4124 14.2418 20.1904L16.5866 15.499C16.663 15.3473 16.8185 15.2509 16.9896 15.2509C17.1589 15.2509 17.3144 15.3473 17.3904 15.499ZM17.9792 18.6783H16.0026L16.9909 16.7018L17.9792 18.6783ZM18.0035 11.817C21.4169 11.817 24.1951 14.595 24.1951 18.0093C24.1951 21.4236 21.4169 24.2016 18.0035 24.2016C14.5905 24.2016 11.8153 21.4236 11.8153 18.0093C11.8153 14.595 14.5905 11.817 18.0035 11.817Z" fill="#02010A"/>
</svg>
