<svg width="36" height="36" viewBox="0 0 36 36" fill="none" xmlns="http://www.w3.org/2000/svg">
<path d="M33.8304 0H2.11019C0.968845 0 0 0.955412 0 2.08135V26.2119C0 27.3928 0.968845 28.2933 2.11019 28.2933H14.3188V32.1173H11.866C10.9527 32.1173 10.2119 32.8484 10.2119 33.7489V35.4367C10.2119 35.7742 10.4399 35.9985 10.7825 35.9985H25.216C25.5586 35.9985 25.7866 35.7742 25.7866 35.4367V33.7489C25.7866 32.8484 25.0446 32.1173 24.1313 32.1173H21.6785V28.2933H33.8871C35.0852 28.2933 35.9985 27.3367 35.9985 26.2119V2.08135C35.9418 0.955412 34.9717 0 33.8304 0ZM2.11019 1.12477H33.7737C34.3444 1.12477 34.7437 1.57445 34.7437 2.08135V22.4989H1.08345V2.08135C1.14016 1.57445 1.59741 1.12477 2.11019 1.12477ZM24.6453 33.7489V34.8737H11.2953V33.7489C11.2953 33.4675 11.5233 33.2432 11.8093 33.2432H24.0746C24.4172 33.2432 24.6453 33.4675 24.6453 33.7489ZM20.4804 32.1173H15.4602V28.2933H20.4804V32.1173ZM33.8304 27.1674H2.11019C1.53952 27.1674 1.14016 26.7177 1.14016 26.2119V23.6237H34.8004V26.2119C34.8004 26.7177 34.3444 27.1674 33.8304 27.1674Z" fill="#02010A"/>
<path d="M19.9678 24.8054H16.031C15.6884 24.8054 15.4603 25.0297 15.4603 25.3672C15.4603 25.7048 15.6884 25.9302 16.031 25.9302H19.9678C20.3093 25.9302 20.5373 25.7048 20.5373 25.3672C20.5373 25.0857 20.2526 24.8054 19.9678 24.8054Z" fill="#02010A"/>
<path d="M3.36497 20.8682H32.5756C32.9171 20.8682 33.1463 20.6428 33.1463 20.3053C33.1463 10.1239 33.1463 9.78638 33.1463 3.37413C33.1463 3.03659 32.9171 2.81233 32.5756 2.81233H3.36497C3.02351 2.81233 2.79548 3.03659 2.79548 3.37413C2.79548 9.44883 2.79548 13.6676 2.79548 20.3053C2.79548 20.5867 3.02351 20.8682 3.36497 20.8682ZM3.93565 19.7423V7.48077H32.005V19.7423H3.93565ZM3.93565 3.88104H32.005V6.356H3.93565V3.88104Z" fill="#02010A"/>
<path d="M6.73132 4.55604H6.56C6.21854 4.55604 5.99051 4.78029 5.99051 5.11784C5.99051 5.45539 6.21854 5.68081 6.56 5.68081H6.73132C7.07396 5.68081 7.30199 5.45539 7.30199 5.11784C7.30199 4.78029 7.07396 4.55604 6.73132 4.55604Z" fill="#02010A"/>
<path d="M9.46984 4.55604H9.29852C8.95588 4.55604 8.72785 4.78029 8.72785 5.11784C8.72785 5.45539 8.95588 5.68081 9.29852 5.68081H9.46984C9.81248 5.68081 10.0405 5.45539 10.0405 5.11784C10.0405 4.78029 9.81248 4.55604 9.46984 4.55604Z" fill="#02010A"/>
<path d="M12.2085 4.55604H12.0372C11.6946 4.55604 11.4665 4.78029 11.4665 5.11784C11.4665 5.45539 11.6946 5.68081 12.0372 5.68081H12.2085C12.55 5.68081 12.7792 5.45539 12.7792 5.11784C12.7792 4.78029 12.4933 4.55604 12.2085 4.55604Z" fill="#02010A"/>
<path d="M29.3811 4.55604H16.544C16.2025 4.55604 15.9745 4.78029 15.9745 5.11784C15.9745 5.45539 16.2025 5.68081 16.544 5.68081H29.3811C29.7226 5.68081 29.9518 5.45539 29.9518 5.11784C29.9518 4.78029 29.6659 4.55604 29.3811 4.55604Z" fill="#02010A"/>
<path d="M22.8198 10.6868C22.5917 10.4614 22.2491 10.4614 22.0211 10.6868L19.5682 13.2739C19.339 13.4993 19.339 13.8369 19.5682 14.0611L22.0211 16.6494C22.2491 16.8736 22.5917 16.8736 22.8198 16.6494C23.0478 16.424 23.0478 16.0864 22.8198 15.861L20.7084 13.6675L22.8198 11.474C23.0478 11.2486 23.0478 10.9111 22.8198 10.6868Z" fill="#02010A"/>
<path d="M27.7834 10.7429C27.5553 10.5175 27.2127 10.5175 26.9847 10.7429C26.7566 10.9684 26.7566 11.3059 26.9847 11.5302L29.0948 13.7236L26.9847 15.9183C26.7566 16.1425 26.7566 16.4801 26.9847 16.7055C27.2127 16.9298 27.5553 16.9298 27.7834 16.7055L30.2362 14.1184C30.4642 13.893 30.4642 13.5555 30.2362 13.33L27.7834 10.7429Z" fill="#02010A"/>
<path d="M25.7865 9.16839C25.5006 9.11115 25.1591 9.33658 25.1012 9.61806L23.5617 17.5487C23.5038 17.8302 23.7319 18.1677 24.0178 18.2238C24.3025 18.2798 24.6452 18.0556 24.7019 17.7741L26.2426 9.84231C26.2993 9.562 26.0713 9.22445 25.7865 9.16839Z" fill="#02010A"/>
<path d="M14.9464 9.11116H6.56C6.21854 9.11116 5.99051 9.33658 5.99051 9.67413V17.718C5.99051 18.0556 6.21854 18.2798 6.56 18.2798H14.9464C15.2891 18.2798 15.5171 18.0556 15.5171 17.718V9.67413C15.5171 9.39264 15.2891 9.11116 14.9464 9.11116ZM14.3769 17.2111H7.13067V10.2371H14.3769V17.2111Z" fill="#02010A"/>
</svg>
