<svg width="424" height="327" viewBox="0 0 424 327" fill="none" xmlns="http://www.w3.org/2000/svg">
<g style="mix-blend-mode:plus-lighter">
<path d="M127.406 131.391V155.193L139.205 149.7M127.406 131.391L139.205 149.7M127.406 131.391L136.153 117.353M127.406 131.391L137.579 132.465M139.205 149.7L164.025 135.256M139.205 149.7L137.579 132.465M136.153 117.353L148.563 125.325M136.153 117.353L137.579 132.465M136.153 117.353L144.291 110.843M164.025 135.256L158.227 119.795M164.025 135.256L216.308 106.164M164.025 135.256L148.563 125.325M164.025 135.256L137.579 132.465M164.025 135.256L148.563 115.726M152.429 104.333L164.025 97.8233M152.429 104.333L158.227 119.795M152.429 104.333L144.291 110.843M164.025 97.8233L158.227 119.795M164.025 97.8233L181.317 107.588M164.025 97.8233L177.452 92.127M158.227 119.795L198.609 117.353L181.317 107.588M158.227 119.795L181.317 107.588M158.227 119.795L148.563 115.726M190.878 86.4307L181.317 107.588M190.878 86.4307L216.308 106.164M190.878 86.4307L204.102 76.0553M190.878 86.4307H213.053M190.878 86.4307L177.452 92.127M181.317 107.588L216.308 106.164M181.317 107.588L213.053 86.4307M181.317 107.588L177.452 92.127M216.308 106.164L213.053 86.4307M216.308 106.164L230.142 93.7545M213.053 86.4307L204.102 76.0553M213.053 86.4307L230.753 79.1069M213.053 86.4307L230.142 93.7545M213.053 86.4307V61.4077M204.102 76.0553L213.053 61.4077M230.142 93.7545L230.753 79.1069M230.753 79.1069L213.053 61.4077M148.563 115.726V125.325M148.563 115.726L144.291 110.843M148.563 125.325L137.579 132.465" stroke="url(#paint0_linear_664_1722)" stroke-width="0.818614" stroke-linecap="round"/>
<path d="M319.204 211.946L319.655 186.116L307.118 191.86M319.204 211.946L307.118 191.86M319.204 211.946L309.721 227.018M319.204 211.946L308.505 210.594M307.118 191.86L280.693 207.078M307.118 191.86L308.505 210.594M309.721 227.018L296.796 218.14M309.721 227.018L308.505 210.594M309.721 227.018L301.023 233.933M280.693 207.078L286.509 223.963M280.693 207.078L225.051 237.686M280.693 207.078L296.796 218.14M280.693 207.078L308.505 210.594M280.693 207.078L296.614 228.556M292.325 240.848L279.984 247.7M292.325 240.848L286.509 223.963M292.325 240.848L301.023 233.933M279.984 247.7L286.509 223.963M279.984 247.7L261.948 236.785M279.984 247.7L265.728 253.634M286.509 223.963L243.912 225.87L261.948 236.785M286.509 223.963L261.948 236.785M286.509 223.963L296.614 228.556M251.472 259.569L261.948 236.785M251.472 259.569L225.051 237.686M251.472 259.569L237.342 270.585M251.472 259.569L228.107 259.161M251.472 259.569L265.728 253.634M261.948 236.785L225.051 237.686M261.948 236.785L228.107 259.161M261.948 236.785L265.728 253.634M225.051 237.686L228.107 259.161M225.051 237.686L210.24 250.899M228.107 259.161L237.342 270.585M228.107 259.161L209.319 266.783M228.107 259.161L210.24 250.899M228.107 259.161L227.633 286.316M237.342 270.585L227.633 286.316M210.24 250.899L209.319 266.783M209.319 266.783L227.633 286.316M296.614 228.556L296.796 218.14M296.614 228.556L301.023 233.933M296.796 218.14L308.505 210.594" stroke="url(#paint1_linear_664_1722)" stroke-width="0.818614" stroke-linecap="round"/>
<path d="M276.73 180.623L304.194 163.986M276.73 180.623L296.464 157.024M276.73 180.623L291.282 147.881M276.73 180.623L266.253 171.367M255.776 162.11L291.282 147.881M255.776 162.11L266.253 171.367M255.776 162.11L242.959 145.428M255.776 162.11L278.459 143.902M301.143 125.694L310.094 140.342M301.143 125.694L291.282 147.881M301.143 125.694L278.459 143.902M301.143 125.694L270.627 123.864M301.143 125.694L294.836 119.591M304.194 163.986L319.045 154.99L310.094 140.342M304.194 163.986L310.094 140.342M304.194 163.986L296.464 157.024M310.094 140.342L291.282 147.881M310.094 140.342L296.464 157.024M296.464 157.024L291.282 147.881M291.282 147.881L266.253 171.367M242.959 145.428L278.459 143.902M242.959 145.428L249.062 116.54M242.959 145.428L270.627 123.864M278.459 143.902L270.627 123.864M278.459 143.902L249.062 116.54M270.627 123.864L249.062 116.54M270.627 123.864L294.195 119.704M270.627 123.864L280.544 99.756M249.062 116.54L266.253 95.9924M249.062 116.54L294.836 103.52M266.253 95.9924L294.195 119.704M266.253 95.9924L280.544 99.756M266.253 95.9924L294.836 77.6829M294.836 103.52V119.591M294.836 103.52V77.6829M294.836 103.52L291.282 102.584M294.836 119.591L294.195 119.704M280.544 99.756L294.836 77.6829M280.544 99.756L291.282 102.584M294.836 77.6829L291.282 102.584" stroke="url(#paint2_linear_664_1722)" stroke-width="0.818614" stroke-linecap="round"/>
<path d="M161.581 167.196L135.337 179.199M161.581 167.196L146.917 187.663M161.581 167.196L152.57 196.523M161.581 167.196L174.454 173.299M183.756 182.454L152.57 196.523M183.756 182.454L174.454 173.299M183.756 182.454L198.201 199.825M183.756 182.454L165.583 199.825M144.901 219.426L132.695 206.053M144.901 219.426L152.57 196.523M144.901 219.426L165.583 199.825M144.901 219.426L174.454 219.426M144.901 219.426L151.135 225.611M135.337 179.199L124.758 193.44L132.695 206.053M135.337 179.199L132.695 206.053M135.337 179.199L146.917 187.663M132.695 206.053L152.57 196.523M132.695 206.053L146.917 187.663M146.917 187.663L152.57 196.523M152.57 196.523L174.454 173.299M198.201 199.825L165.583 199.825M198.201 199.825L196.372 225.611M198.201 199.825L174.454 219.426M165.583 199.825L174.454 219.426M165.583 199.825L196.372 225.611M174.454 219.426L196.372 225.611M174.454 219.426L151.135 224.813M174.454 219.426L165.811 244.02M196.372 225.611L180.28 247.03M196.372 225.611L152.57 240.231M180.28 247.03L151.135 224.813M180.28 247.03L165.811 244.02M180.28 247.03L152.694 266.81M152.57 240.231L151.135 225.611M152.57 240.231L152.694 266.81M152.57 240.231L154.94 241.758M151.135 225.611L151.135 224.813M165.811 244.02L152.694 266.81M165.811 244.02L154.94 241.758M152.694 266.81L154.94 241.758" stroke="url(#paint3_linear_664_1722)" stroke-width="0.818614" stroke-linecap="round"/>
<path d="M235.432 214.597L232.787 209.104M235.432 214.597L246.417 200.763M235.432 214.597L231.261 163.534M232.787 209.104L198.813 145.021M232.787 209.104L246.417 200.763M232.787 209.104L210.35 184.692M193.523 166.382L191.896 155.193M193.523 166.382L249.672 190.185M193.523 166.382L213.053 136.884M193.523 166.382L231.261 163.534M193.523 166.382L210.35 184.692M191.896 155.193L198.813 145.021M191.896 155.193L246.417 200.763M191.896 155.193L214.07 145.021M198.813 145.021L213.053 136.884M198.813 145.021L248.452 182.047M213.053 136.884L214.07 145.021M214.07 145.021L231.261 163.534M248.452 182.047L249.672 190.185M248.452 182.047L231.261 163.534M249.672 190.185L246.417 200.763M246.417 200.763L231.261 163.534M231.261 163.534L210.35 184.692" stroke="url(#paint4_linear_664_1722)" stroke-width="0.818614" stroke-linecap="round"/>
</g>
<g style="mix-blend-mode:soft-light">
<path d="M127.406 131.391V155.193L139.205 149.7M127.406 131.391L139.205 149.7M127.406 131.391L136.153 117.353M127.406 131.391L137.579 132.465M139.205 149.7L164.025 135.256M139.205 149.7L137.579 132.465M136.153 117.353L148.563 125.325M136.153 117.353L137.579 132.465M136.153 117.353L144.291 110.843M164.025 135.256L158.227 119.795M164.025 135.256L216.308 106.164M164.025 135.256L148.563 125.325M164.025 135.256L137.579 132.465M164.025 135.256L148.563 115.726M152.429 104.333L164.025 97.8233M152.429 104.333L158.227 119.795M152.429 104.333L144.291 110.843M164.025 97.8233L158.227 119.795M164.025 97.8233L181.317 107.588M164.025 97.8233L177.452 92.127M158.227 119.795L198.609 117.353L181.317 107.588M158.227 119.795L181.317 107.588M158.227 119.795L148.563 115.726M190.878 86.4307L181.317 107.588M190.878 86.4307L216.308 106.164M190.878 86.4307L204.102 76.0553M190.878 86.4307H213.053M190.878 86.4307L177.452 92.127M181.317 107.588L216.308 106.164M181.317 107.588L213.053 86.4307M181.317 107.588L177.452 92.127M216.308 106.164L213.053 86.4307M216.308 106.164L230.142 93.7545M213.053 86.4307L204.102 76.0553M213.053 86.4307L230.753 79.1069M213.053 86.4307L230.142 93.7545M213.053 86.4307V61.4077M204.102 76.0553L213.053 61.4077M230.142 93.7545L230.753 79.1069M230.753 79.1069L213.053 61.4077M148.563 115.726V125.325M148.563 115.726L144.291 110.843M148.563 125.325L137.579 132.465" stroke="white" stroke-width="0.818614" stroke-linecap="round"/>
<path d="M319.204 211.946L319.655 186.116L307.118 191.86M319.204 211.946L307.118 191.86M319.204 211.946L309.721 227.018M319.204 211.946L308.505 210.594M307.118 191.86L280.693 207.078M307.118 191.86L308.505 210.594M309.721 227.018L296.796 218.14M309.721 227.018L308.505 210.594M309.721 227.018L301.023 233.933M280.693 207.078L286.509 223.963M280.693 207.078L225.051 237.686M280.693 207.078L296.796 218.14M280.693 207.078L308.505 210.594M280.693 207.078L296.614 228.556M292.325 240.848L279.984 247.7M292.325 240.848L286.509 223.963M292.325 240.848L301.023 233.933M279.984 247.7L286.509 223.963M279.984 247.7L261.948 236.785M279.984 247.7L265.728 253.634M286.509 223.963L243.912 225.87L261.948 236.785M286.509 223.963L261.948 236.785M286.509 223.963L296.614 228.556M251.472 259.569L261.948 236.785M251.472 259.569L225.051 237.686M251.472 259.569L237.342 270.585M251.472 259.569L228.107 259.161M251.472 259.569L265.728 253.634M261.948 236.785L225.051 237.686M261.948 236.785L228.107 259.161M261.948 236.785L265.728 253.634M225.051 237.686L228.107 259.161M225.051 237.686L210.24 250.899M228.107 259.161L237.342 270.585M228.107 259.161L209.319 266.783M228.107 259.161L210.24 250.899M228.107 259.161L227.633 286.316M237.342 270.585L227.633 286.316M210.24 250.899L209.319 266.783M209.319 266.783L227.633 286.316M296.614 228.556L296.796 218.14M296.614 228.556L301.023 233.933M296.796 218.14L308.505 210.594" stroke="white" stroke-width="0.818614" stroke-linecap="round"/>
<path d="M276.73 180.623L304.194 163.986M276.73 180.623L296.464 157.024M276.73 180.623L291.282 147.881M276.73 180.623L266.253 171.367M255.776 162.11L291.282 147.881M255.776 162.11L266.253 171.367M255.776 162.11L242.959 145.428M255.776 162.11L278.459 143.902M301.143 125.694L310.094 140.342M301.143 125.694L291.282 147.881M301.143 125.694L278.459 143.902M301.143 125.694L270.627 123.864M301.143 125.694L294.836 119.591M304.194 163.986L319.045 154.99L310.094 140.342M304.194 163.986L310.094 140.342M304.194 163.986L296.464 157.024M310.094 140.342L291.282 147.881M310.094 140.342L296.464 157.024M296.464 157.024L291.282 147.881M291.282 147.881L266.253 171.367M242.959 145.428L278.459 143.902M242.959 145.428L249.062 116.54M242.959 145.428L270.627 123.864M278.459 143.902L270.627 123.864M278.459 143.902L249.062 116.54M270.627 123.864L249.062 116.54M270.627 123.864L294.195 119.704M270.627 123.864L280.544 99.756M249.062 116.54L266.253 95.9924M249.062 116.54L294.836 103.52M266.253 95.9924L294.195 119.704M266.253 95.9924L280.544 99.756M266.253 95.9924L294.836 77.6829M294.836 103.52V119.591M294.836 103.52V77.6829M294.836 103.52L291.282 102.584M294.836 119.591L294.195 119.704M280.544 99.756L294.836 77.6829M280.544 99.756L291.282 102.584M294.836 77.6829L291.282 102.584" stroke="white" stroke-width="0.818614" stroke-linecap="round"/>
<path d="M161.581 167.196L135.337 179.199M161.581 167.196L146.917 187.663M161.581 167.196L152.57 196.523M161.581 167.196L174.454 173.299M183.756 182.454L152.57 196.523M183.756 182.454L174.454 173.299M183.756 182.454L198.201 199.825M183.756 182.454L165.583 199.825M144.901 219.426L132.695 206.053M144.901 219.426L152.57 196.523M144.901 219.426L165.583 199.825M144.901 219.426L174.454 219.426M144.901 219.426L151.135 225.611M135.337 179.199L124.758 193.44L132.695 206.053M135.337 179.199L132.695 206.053M135.337 179.199L146.917 187.663M132.695 206.053L152.57 196.523M132.695 206.053L146.917 187.663M146.917 187.663L152.57 196.523M152.57 196.523L174.454 173.299M198.201 199.825L165.583 199.825M198.201 199.825L196.372 225.611M198.201 199.825L174.454 219.426M165.583 199.825L174.454 219.426M165.583 199.825L196.372 225.611M174.454 219.426L196.372 225.611M174.454 219.426L151.135 224.813M174.454 219.426L165.811 244.02M196.372 225.611L180.28 247.03M196.372 225.611L152.57 240.231M180.28 247.03L151.135 224.813M180.28 247.03L165.811 244.02M180.28 247.03L152.694 266.81M152.57 240.231L151.135 225.611M152.57 240.231L152.694 266.81M152.57 240.231L154.94 241.758M151.135 225.611L151.135 224.813M165.811 244.02L152.694 266.81M165.811 244.02L154.94 241.758M152.694 266.81L154.94 241.758" stroke="white" stroke-width="0.818614" stroke-linecap="round"/>
<path d="M235.432 214.597L232.787 209.104M235.432 214.597L246.417 200.763M235.432 214.597L231.261 163.534M232.787 209.104L198.813 145.021M232.787 209.104L246.417 200.763M232.787 209.104L210.35 184.692M193.523 166.382L191.896 155.193M193.523 166.382L249.672 190.185M193.523 166.382L213.053 136.884M193.523 166.382L231.261 163.534M193.523 166.382L210.35 184.692M191.896 155.193L198.813 145.021M191.896 155.193L246.417 200.763M191.896 155.193L214.07 145.021M198.813 145.021L213.053 136.884M198.813 145.021L248.452 182.047M213.053 136.884L214.07 145.021M214.07 145.021L231.261 163.534M248.452 182.047L249.672 190.185M248.452 182.047L231.261 163.534M249.672 190.185L246.417 200.763M246.417 200.763L231.261 163.534M231.261 163.534L210.35 184.692" stroke="white" stroke-width="0.818614" stroke-linecap="round"/>
</g>
<path d="M256.773 4.61364V3.36364H265.5V4.61364H261.841V15H260.432V4.61364H256.773ZM269.773 15.1818C268.985 15.1818 268.294 14.9943 267.699 14.6193C267.108 14.2443 266.646 13.7197 266.312 13.0455C265.983 12.3712 265.818 11.5833 265.818 10.6818C265.818 9.77273 265.983 8.97917 266.312 8.30114C266.646 7.62311 267.108 7.09659 267.699 6.72159C268.294 6.34659 268.985 6.15909 269.773 6.15909C270.561 6.15909 271.25 6.34659 271.841 6.72159C272.436 7.09659 272.898 7.62311 273.227 8.30114C273.561 8.97917 273.727 9.77273 273.727 10.6818C273.727 11.5833 273.561 12.3712 273.227 13.0455C272.898 13.7197 272.436 14.2443 271.841 14.6193C271.25 14.9943 270.561 15.1818 269.773 15.1818ZM269.773 13.9773C270.371 13.9773 270.864 13.8239 271.25 13.517C271.636 13.2102 271.922 12.8068 272.108 12.3068C272.294 11.8068 272.386 11.2652 272.386 10.6818C272.386 10.0985 272.294 9.55492 272.108 9.05114C271.922 8.54735 271.636 8.14015 271.25 7.82955C270.864 7.51894 270.371 7.36364 269.773 7.36364C269.174 7.36364 268.682 7.51894 268.295 7.82955C267.909 8.14015 267.623 8.54735 267.438 9.05114C267.252 9.55492 267.159 10.0985 267.159 10.6818C267.159 11.2652 267.252 11.8068 267.438 12.3068C267.623 12.8068 267.909 13.2102 268.295 13.517C268.682 13.8239 269.174 13.9773 269.773 13.9773ZM279.57 6.27273V7.40909H275.047V6.27273H279.57ZM276.365 4.18182H277.706V12.5C277.706 12.8788 277.761 13.1629 277.871 13.3523C277.984 13.5379 278.128 13.6629 278.303 13.7273C278.481 13.7879 278.668 13.8182 278.865 13.8182C279.013 13.8182 279.134 13.8106 279.229 13.7955C279.323 13.7765 279.399 13.7614 279.456 13.75L279.729 14.9545C279.638 14.9886 279.511 15.0227 279.348 15.0568C279.185 15.0947 278.979 15.1136 278.729 15.1136C278.35 15.1136 277.979 15.0322 277.615 14.8693C277.255 14.7064 276.956 14.4583 276.717 14.125C276.482 13.7917 276.365 13.3712 276.365 12.8636V4.18182ZM284.155 15.2045C283.602 15.2045 283.1 15.1004 282.649 14.892C282.198 14.6799 281.84 14.375 281.575 13.9773C281.31 13.5758 281.178 13.0909 281.178 12.5227C281.178 12.0227 281.276 11.6174 281.473 11.3068C281.67 10.9924 281.933 10.7462 282.263 10.5682C282.592 10.3902 282.956 10.2576 283.354 10.1705C283.755 10.0795 284.159 10.0076 284.564 9.95455C285.094 9.88636 285.524 9.83523 285.854 9.80114C286.187 9.76326 286.429 9.70076 286.581 9.61364C286.736 9.52652 286.814 9.375 286.814 9.15909V9.11364C286.814 8.55303 286.661 8.11742 286.354 7.80682C286.051 7.49621 285.59 7.34091 284.973 7.34091C284.333 7.34091 283.831 7.48106 283.467 7.76136C283.104 8.04167 282.848 8.34091 282.7 8.65909L281.428 8.20455C281.655 7.67424 281.958 7.26136 282.337 6.96591C282.719 6.66667 283.136 6.45833 283.587 6.34091C284.041 6.2197 284.488 6.15909 284.928 6.15909C285.208 6.15909 285.53 6.19318 285.893 6.26136C286.261 6.32576 286.615 6.46023 286.956 6.66477C287.301 6.86932 287.587 7.17803 287.814 7.59091C288.041 8.00379 288.155 8.55682 288.155 9.25V15H286.814V13.8182H286.746C286.655 14.0076 286.503 14.2102 286.291 14.4261C286.079 14.642 285.797 14.8258 285.445 14.9773C285.092 15.1288 284.662 15.2045 284.155 15.2045ZM284.359 14C284.89 14 285.337 13.8958 285.7 13.6875C286.068 13.4792 286.344 13.2102 286.53 12.8807C286.719 12.5511 286.814 12.2045 286.814 11.8409V10.6136C286.757 10.6818 286.632 10.7443 286.439 10.8011C286.25 10.8542 286.03 10.9015 285.78 10.9432C285.534 10.9811 285.293 11.0152 285.058 11.0455C284.827 11.072 284.64 11.0947 284.496 11.1136C284.147 11.1591 283.821 11.233 283.518 11.3352C283.219 11.4337 282.977 11.5833 282.791 11.7841C282.609 11.9811 282.518 12.25 282.518 12.5909C282.518 13.0568 282.691 13.4091 283.036 13.6477C283.384 13.8826 283.825 14 284.359 14ZM291.943 3.36364V15H290.602V3.36364H291.943ZM298.899 18.2727V6.27273H300.195V7.65909H300.354C300.452 7.50758 300.589 7.31439 300.763 7.07955C300.941 6.84091 301.195 6.62879 301.524 6.44318C301.857 6.25379 302.308 6.15909 302.876 6.15909C303.611 6.15909 304.259 6.3428 304.82 6.71023C305.38 7.07765 305.818 7.59848 306.132 8.27273C306.446 8.94697 306.604 9.74242 306.604 10.6591C306.604 11.5833 306.446 12.3845 306.132 13.0625C305.818 13.7367 305.382 14.2595 304.825 14.6307C304.268 14.9981 303.626 15.1818 302.899 15.1818C302.339 15.1818 301.89 15.089 301.553 14.9034C301.215 14.714 300.956 14.5 300.774 14.2614C300.592 14.0189 300.452 13.8182 300.354 13.6591H300.24V18.2727H298.899ZM300.217 10.6364C300.217 11.2955 300.314 11.8769 300.507 12.3807C300.7 12.8807 300.982 13.2727 301.354 13.5568C301.725 13.8371 302.179 13.9773 302.717 13.9773C303.278 13.9773 303.746 13.8295 304.121 13.5341C304.5 13.2348 304.784 12.8333 304.973 12.3295C305.166 11.822 305.263 11.2576 305.263 10.6364C305.263 10.0227 305.168 9.4697 304.979 8.97727C304.793 8.48106 304.511 8.08902 304.132 7.80114C303.757 7.50947 303.286 7.36364 302.717 7.36364C302.172 7.36364 301.714 7.50189 301.342 7.77841C300.971 8.05114 300.691 8.43371 300.501 8.92614C300.312 9.41477 300.217 9.98485 300.217 10.6364ZM312.308 15.1818C311.467 15.1818 310.742 14.9962 310.132 14.625C309.526 14.25 309.058 13.7273 308.729 13.0568C308.403 12.3826 308.24 11.5985 308.24 10.7045C308.24 9.81061 308.403 9.02273 308.729 8.34091C309.058 7.6553 309.517 7.12121 310.104 6.73864C310.695 6.35227 311.384 6.15909 312.172 6.15909C312.626 6.15909 313.075 6.23485 313.518 6.38636C313.962 6.53788 314.365 6.78409 314.729 7.125C315.092 7.46212 315.382 7.90909 315.598 8.46591C315.814 9.02273 315.922 9.70833 315.922 10.5227V11.0909H309.195V9.93182H314.558C314.558 9.43939 314.46 9 314.263 8.61364C314.07 8.22727 313.793 7.92235 313.433 7.69886C313.077 7.47538 312.657 7.36364 312.172 7.36364C311.638 7.36364 311.176 7.49621 310.786 7.76136C310.399 8.02273 310.102 8.36364 309.893 8.78409C309.685 9.20455 309.581 9.6553 309.581 10.1364V10.9091C309.581 11.5682 309.695 12.1269 309.922 12.5852C310.153 13.0398 310.473 13.3864 310.882 13.625C311.291 13.8598 311.767 13.9773 312.308 13.9773C312.661 13.9773 312.979 13.928 313.263 13.8295C313.551 13.7273 313.799 13.5758 314.007 13.375C314.215 13.1705 314.376 12.9167 314.49 12.6136L315.786 12.9773C315.649 13.4167 315.42 13.803 315.098 14.1364C314.776 14.4659 314.378 14.7235 313.905 14.9091C313.431 15.0909 312.899 15.1818 312.308 15.1818ZM317.962 15V6.27273H319.257V7.59091H319.348C319.507 7.15909 319.795 6.80871 320.212 6.53977C320.628 6.27083 321.098 6.13636 321.621 6.13636C321.719 6.13636 321.842 6.13826 321.99 6.14205C322.138 6.14583 322.25 6.15152 322.325 6.15909V7.52273C322.28 7.51136 322.176 7.49432 322.013 7.47159C321.854 7.44508 321.685 7.43182 321.507 7.43182C321.083 7.43182 320.704 7.52083 320.371 7.69886C320.041 7.87311 319.78 8.11553 319.587 8.42614C319.397 8.73295 319.303 9.08333 319.303 9.47727V15H317.962ZM330.097 8.22727L328.892 8.56818C328.816 8.36742 328.705 8.17235 328.557 7.98295C328.413 7.78977 328.216 7.63068 327.966 7.50568C327.716 7.38068 327.396 7.31818 327.006 7.31818C326.472 7.31818 326.027 7.44129 325.67 7.6875C325.318 7.92992 325.142 8.23864 325.142 8.61364C325.142 8.94697 325.263 9.21023 325.506 9.40341C325.748 9.59659 326.127 9.75758 326.642 9.88636L327.938 10.2045C328.718 10.3939 329.299 10.6837 329.682 11.0739C330.064 11.4602 330.256 11.9583 330.256 12.5682C330.256 13.0682 330.112 13.5152 329.824 13.9091C329.54 14.303 329.142 14.6136 328.631 14.8409C328.119 15.0682 327.525 15.1818 326.847 15.1818C325.956 15.1818 325.22 14.9886 324.636 14.6023C324.053 14.2159 323.684 13.6515 323.528 12.9091L324.801 12.5909C324.922 13.0606 325.152 13.4129 325.489 13.6477C325.83 13.8826 326.275 14 326.824 14C327.449 14 327.945 13.8674 328.312 13.6023C328.684 13.3333 328.869 13.0114 328.869 12.6364C328.869 12.3333 328.763 12.0795 328.551 11.875C328.339 11.6667 328.013 11.5114 327.574 11.4091L326.119 11.0682C325.32 10.8788 324.733 10.5852 324.358 10.1875C323.987 9.78598 323.801 9.28409 323.801 8.68182C323.801 8.18939 323.939 7.75379 324.216 7.375C324.496 6.99621 324.877 6.69886 325.358 6.48295C325.843 6.26705 326.392 6.15909 327.006 6.15909C327.869 6.15909 328.547 6.34848 329.04 6.72727C329.536 7.10606 329.888 7.60606 330.097 8.22727ZM335.82 15.1818C335.032 15.1818 334.34 14.9943 333.746 14.6193C333.155 14.2443 332.693 13.7197 332.359 13.0455C332.03 12.3712 331.865 11.5833 331.865 10.6818C331.865 9.77273 332.03 8.97917 332.359 8.30114C332.693 7.62311 333.155 7.09659 333.746 6.72159C334.34 6.34659 335.032 6.15909 335.82 6.15909C336.607 6.15909 337.297 6.34659 337.888 6.72159C338.482 7.09659 338.945 7.62311 339.274 8.30114C339.607 8.97917 339.774 9.77273 339.774 10.6818C339.774 11.5833 339.607 12.3712 339.274 13.0455C338.945 13.7197 338.482 14.2443 337.888 14.6193C337.297 14.9943 336.607 15.1818 335.82 15.1818ZM335.82 13.9773C336.418 13.9773 336.911 13.8239 337.297 13.517C337.683 13.2102 337.969 12.8068 338.155 12.3068C338.34 11.8068 338.433 11.2652 338.433 10.6818C338.433 10.0985 338.34 9.55492 338.155 9.05114C337.969 8.54735 337.683 8.14015 337.297 7.82955C336.911 7.51894 336.418 7.36364 335.82 7.36364C335.221 7.36364 334.729 7.51894 334.342 7.82955C333.956 8.14015 333.67 8.54735 333.484 9.05114C333.299 9.55492 333.206 10.0985 333.206 10.6818C333.206 11.2652 333.299 11.8068 333.484 12.3068C333.67 12.8068 333.956 13.2102 334.342 13.517C334.729 13.8239 335.221 13.9773 335.82 13.9773ZM343.162 9.75V15H341.821V6.27273H343.116V7.63636H343.23C343.435 7.19318 343.745 6.83712 344.162 6.56818C344.579 6.29545 345.116 6.15909 345.776 6.15909C346.366 6.15909 346.884 6.2803 347.327 6.52273C347.77 6.76136 348.115 7.125 348.361 7.61364C348.607 8.09848 348.73 8.71212 348.73 9.45455V15H347.389V9.54545C347.389 8.85985 347.211 8.32576 346.855 7.94318C346.499 7.55682 346.01 7.36364 345.389 7.36364C344.961 7.36364 344.579 7.45644 344.241 7.64205C343.908 7.82765 343.645 8.09848 343.452 8.45455C343.259 8.81061 343.162 9.24242 343.162 9.75ZM353.749 15.2045C353.196 15.2045 352.694 15.1004 352.243 14.892C351.792 14.6799 351.434 14.375 351.169 13.9773C350.904 13.5758 350.771 13.0909 350.771 12.5227C350.771 12.0227 350.87 11.6174 351.067 11.3068C351.264 10.9924 351.527 10.7462 351.857 10.5682C352.186 10.3902 352.55 10.2576 352.947 10.1705C353.349 10.0795 353.752 10.0076 354.158 9.95455C354.688 9.88636 355.118 9.83523 355.447 9.80114C355.781 9.76326 356.023 9.70076 356.175 9.61364C356.33 9.52652 356.408 9.375 356.408 9.15909V9.11364C356.408 8.55303 356.254 8.11742 355.947 7.80682C355.644 7.49621 355.184 7.34091 354.567 7.34091C353.927 7.34091 353.425 7.48106 353.061 7.76136C352.697 8.04167 352.442 8.34091 352.294 8.65909L351.021 8.20455C351.249 7.67424 351.552 7.26136 351.93 6.96591C352.313 6.66667 352.73 6.45833 353.18 6.34091C353.635 6.2197 354.082 6.15909 354.521 6.15909C354.802 6.15909 355.124 6.19318 355.487 6.26136C355.855 6.32576 356.209 6.46023 356.55 6.66477C356.894 6.86932 357.18 7.17803 357.408 7.59091C357.635 8.00379 357.749 8.55682 357.749 9.25V15H356.408V13.8182H356.339C356.249 14.0076 356.097 14.2102 355.885 14.4261C355.673 14.642 355.391 14.8258 355.038 14.9773C354.686 15.1288 354.256 15.2045 353.749 15.2045ZM353.953 14C354.483 14 354.93 13.8958 355.294 13.6875C355.661 13.4792 355.938 13.2102 356.124 12.8807C356.313 12.5511 356.408 12.2045 356.408 11.8409V10.6136C356.351 10.6818 356.226 10.7443 356.033 10.8011C355.843 10.8542 355.624 10.9015 355.374 10.9432C355.127 10.9811 354.887 11.0152 354.652 11.0455C354.421 11.072 354.233 11.0947 354.089 11.1136C353.741 11.1591 353.415 11.233 353.112 11.3352C352.813 11.4337 352.571 11.5833 352.385 11.7841C352.203 11.9811 352.112 12.25 352.112 12.5909C352.112 13.0568 352.285 13.4091 352.629 13.6477C352.978 13.8826 353.419 14 353.953 14ZM361.537 3.36364V15H360.196V3.36364H361.537ZM363.993 15V6.27273H365.334V15H363.993ZM364.675 4.81818C364.413 4.81818 364.188 4.72917 363.999 4.55114C363.813 4.37311 363.72 4.15909 363.72 3.90909C363.72 3.65909 363.813 3.44508 363.999 3.26705C364.188 3.08902 364.413 3 364.675 3C364.936 3 365.16 3.08902 365.345 3.26705C365.535 3.44508 365.629 3.65909 365.629 3.90909C365.629 4.15909 365.535 4.37311 365.345 4.55114C365.16 4.72917 364.936 4.81818 364.675 4.81818ZM367.54 15V13.9773L372.494 7.61364V7.52273H367.699V6.27273H374.222V7.34091L369.403 13.6591V13.75H374.381V15H367.54ZM379.014 15.2045C378.461 15.2045 377.959 15.1004 377.509 14.892C377.058 14.6799 376.7 14.375 376.435 13.9773C376.17 13.5758 376.037 13.0909 376.037 12.5227C376.037 12.0227 376.135 11.6174 376.332 11.3068C376.529 10.9924 376.793 10.7462 377.122 10.5682C377.452 10.3902 377.815 10.2576 378.213 10.1705C378.615 10.0795 379.018 10.0076 379.423 9.95455C379.954 9.88636 380.384 9.83523 380.713 9.80114C381.046 9.76326 381.289 9.70076 381.44 9.61364C381.596 9.52652 381.673 9.375 381.673 9.15909V9.11364C381.673 8.55303 381.52 8.11742 381.213 7.80682C380.91 7.49621 380.45 7.34091 379.832 7.34091C379.192 7.34091 378.69 7.48106 378.327 7.76136C377.963 8.04167 377.707 8.34091 377.56 8.65909L376.287 8.20455C376.514 7.67424 376.817 7.26136 377.196 6.96591C377.579 6.66667 377.995 6.45833 378.446 6.34091C378.901 6.2197 379.348 6.15909 379.787 6.15909C380.067 6.15909 380.389 6.19318 380.753 6.26136C381.12 6.32576 381.474 6.46023 381.815 6.66477C382.16 6.86932 382.446 7.17803 382.673 7.59091C382.901 8.00379 383.014 8.55682 383.014 9.25V15H381.673V13.8182H381.605C381.514 14.0076 381.363 14.2102 381.151 14.4261C380.938 14.642 380.656 14.8258 380.304 14.9773C379.952 15.1288 379.522 15.2045 379.014 15.2045ZM379.219 14C379.749 14 380.196 13.8958 380.56 13.6875C380.927 13.4792 381.204 13.2102 381.389 12.8807C381.579 12.5511 381.673 12.2045 381.673 11.8409V10.6136C381.616 10.6818 381.491 10.7443 381.298 10.8011C381.109 10.8542 380.889 10.9015 380.639 10.9432C380.393 10.9811 380.152 11.0152 379.918 11.0455C379.687 11.072 379.499 11.0947 379.355 11.1136C379.007 11.1591 378.681 11.233 378.378 11.3352C378.079 11.4337 377.836 11.5833 377.651 11.7841C377.469 11.9811 377.378 12.25 377.378 12.5909C377.378 13.0568 377.55 13.4091 377.895 13.6477C378.243 13.8826 378.685 14 379.219 14ZM389.257 6.27273V7.40909H384.734V6.27273H389.257ZM386.053 4.18182H387.393V12.5C387.393 12.8788 387.448 13.1629 387.558 13.3523C387.672 13.5379 387.816 13.6629 387.99 13.7273C388.168 13.7879 388.356 13.8182 388.553 13.8182C388.7 13.8182 388.821 13.8106 388.916 13.7955C389.011 13.7765 389.087 13.7614 389.143 13.75L389.416 14.9545C389.325 14.9886 389.198 15.0227 389.036 15.0568C388.873 15.0947 388.666 15.1136 388.416 15.1136C388.037 15.1136 387.666 15.0322 387.303 14.8693C386.943 14.7064 386.643 14.4583 386.405 14.125C386.17 13.7917 386.053 13.3712 386.053 12.8636V4.18182ZM391.274 15V6.27273H392.615V15H391.274ZM391.956 4.81818C391.695 4.81818 391.469 4.72917 391.28 4.55114C391.094 4.37311 391.001 4.15909 391.001 3.90909C391.001 3.65909 391.094 3.44508 391.28 3.26705C391.469 3.08902 391.695 3 391.956 3C392.217 3 392.441 3.08902 392.626 3.26705C392.816 3.44508 392.911 3.65909 392.911 3.90909C392.911 4.15909 392.816 4.37311 392.626 4.55114C392.441 4.72917 392.217 4.81818 391.956 4.81818ZM398.616 15.1818C397.829 15.1818 397.137 14.9943 396.543 14.6193C395.952 14.2443 395.49 13.7197 395.156 13.0455C394.827 12.3712 394.662 11.5833 394.662 10.6818C394.662 9.77273 394.827 8.97917 395.156 8.30114C395.49 7.62311 395.952 7.09659 396.543 6.72159C397.137 6.34659 397.829 6.15909 398.616 6.15909C399.404 6.15909 400.094 6.34659 400.685 6.72159C401.279 7.09659 401.741 7.62311 402.071 8.30114C402.404 8.97917 402.571 9.77273 402.571 10.6818C402.571 11.5833 402.404 12.3712 402.071 13.0455C401.741 13.7197 401.279 14.2443 400.685 14.6193C400.094 14.9943 399.404 15.1818 398.616 15.1818ZM398.616 13.9773C399.215 13.9773 399.707 13.8239 400.094 13.517C400.48 13.2102 400.766 12.8068 400.952 12.3068C401.137 11.8068 401.23 11.2652 401.23 10.6818C401.23 10.0985 401.137 9.55492 400.952 9.05114C400.766 8.54735 400.48 8.14015 400.094 7.82955C399.707 7.51894 399.215 7.36364 398.616 7.36364C398.018 7.36364 397.526 7.51894 397.139 7.82955C396.753 8.14015 396.467 8.54735 396.281 9.05114C396.096 9.55492 396.003 10.0985 396.003 10.6818C396.003 11.2652 396.096 11.8068 396.281 12.3068C396.467 12.8068 396.753 13.2102 397.139 13.517C397.526 13.8239 398.018 13.9773 398.616 13.9773ZM405.959 9.75V15H404.618V6.27273H405.913V7.63636H406.027C406.232 7.19318 406.542 6.83712 406.959 6.56818C407.375 6.29545 407.913 6.15909 408.572 6.15909C409.163 6.15909 409.68 6.2803 410.124 6.52273C410.567 6.76136 410.911 7.125 411.158 7.61364C411.404 8.09848 411.527 8.71212 411.527 9.45455V15H410.186V9.54545C410.186 8.85985 410.008 8.32576 409.652 7.94318C409.296 7.55682 408.807 7.36364 408.186 7.36364C407.758 7.36364 407.375 7.45644 407.038 7.64205C406.705 7.82765 406.442 8.09848 406.249 8.45455C406.055 8.81061 405.959 9.24242 405.959 9.75Z" fill="white"/>
<path d="M211.405 50C211.405 51.6574 212.748 53.001 214.406 53.001C216.063 53.001 217.406 51.6574 217.406 50C217.406 48.3426 216.063 46.999 214.406 46.999C212.748 46.999 211.405 48.3426 211.405 50ZM214.406 10V9.43732H213.843V10H214.406ZM241.405 10C241.405 11.6574 242.748 13.001 244.406 13.001C246.063 13.001 247.406 11.6574 247.406 10C247.406 8.34261 246.063 6.99903 244.406 6.99903C242.748 6.99903 241.405 8.34261 241.405 10ZM214.968 50V10H213.843V50H214.968ZM214.406 10.5627H244.406V9.43732H214.406V10.5627Z" fill="white"/>
<path d="M338.732 72.3636V84H337.323V72.3636H338.732ZM342.717 78.75V84H341.376V75.2727H342.671V76.6364H342.785C342.989 76.1932 343.3 75.8371 343.717 75.5682C344.133 75.2955 344.671 75.1591 345.33 75.1591C345.921 75.1591 346.438 75.2803 346.881 75.5227C347.325 75.7614 347.669 76.125 347.915 76.6136C348.162 77.0985 348.285 77.7121 348.285 78.4545V84H346.944V78.5455C346.944 77.8598 346.766 77.3258 346.41 76.9432C346.054 76.5568 345.565 76.3636 344.944 76.3636C344.516 76.3636 344.133 76.4564 343.796 76.642C343.463 76.8277 343.2 77.0985 343.006 77.4545C342.813 77.8106 342.717 78.2424 342.717 78.75ZM352.076 78.75V84H350.735V75.2727H352.03V76.6364H352.144C352.349 76.1932 352.659 75.8371 353.076 75.5682C353.493 75.2955 354.03 75.1591 354.69 75.1591C355.28 75.1591 355.798 75.2803 356.241 75.5227C356.684 75.7614 357.029 76.125 357.275 76.6136C357.521 77.0985 357.644 77.7121 357.644 78.4545V84H356.303V78.5455C356.303 77.8598 356.125 77.3258 355.769 76.9432C355.413 76.5568 354.924 76.3636 354.303 76.3636C353.875 76.3636 353.493 76.4564 353.155 76.642C352.822 76.8277 352.559 77.0985 352.366 77.4545C352.173 77.8106 352.076 78.2424 352.076 78.75ZM363.64 84.1818C362.852 84.1818 362.161 83.9943 361.566 83.6193C360.975 83.2443 360.513 82.7197 360.18 82.0455C359.85 81.3712 359.685 80.5833 359.685 79.6818C359.685 78.7727 359.85 77.9792 360.18 77.3011C360.513 76.6231 360.975 76.0966 361.566 75.7216C362.161 75.3466 362.852 75.1591 363.64 75.1591C364.428 75.1591 365.117 75.3466 365.708 75.7216C366.303 76.0966 366.765 76.6231 367.094 77.3011C367.428 77.9792 367.594 78.7727 367.594 79.6818C367.594 80.5833 367.428 81.3712 367.094 82.0455C366.765 82.7197 366.303 83.2443 365.708 83.6193C365.117 83.9943 364.428 84.1818 363.64 84.1818ZM363.64 82.9773C364.238 82.9773 364.731 82.8239 365.117 82.517C365.504 82.2102 365.789 81.8068 365.975 81.3068C366.161 80.8068 366.254 80.2652 366.254 79.6818C366.254 79.0985 366.161 78.5549 365.975 78.0511C365.789 77.5473 365.504 77.1402 365.117 76.8295C364.731 76.5189 364.238 76.3636 363.64 76.3636C363.041 76.3636 362.549 76.5189 362.163 76.8295C361.776 77.1402 361.49 77.5473 361.305 78.0511C361.119 78.5549 361.026 79.0985 361.026 79.6818C361.026 80.2652 361.119 80.8068 361.305 81.3068C361.49 81.8068 361.776 82.2102 362.163 82.517C362.549 82.8239 363.041 82.9773 363.64 82.9773ZM376.465 75.2727L373.238 84H371.874L368.647 75.2727H370.102L372.511 82.2273H372.602L375.011 75.2727H376.465ZM380.538 84.2045C379.985 84.2045 379.483 84.1004 379.032 83.892C378.581 83.6799 378.223 83.375 377.958 82.9773C377.693 82.5758 377.56 82.0909 377.56 81.5227C377.56 81.0227 377.659 80.6174 377.856 80.3068C378.053 79.9924 378.316 79.7462 378.646 79.5682C378.975 79.3902 379.339 79.2576 379.736 79.1705C380.138 79.0795 380.541 79.0076 380.947 78.9545C381.477 78.8864 381.907 78.8352 382.236 78.8011C382.57 78.7633 382.812 78.7008 382.964 78.6136C383.119 78.5265 383.197 78.375 383.197 78.1591V78.1136C383.197 77.553 383.043 77.1174 382.736 76.8068C382.433 76.4962 381.973 76.3409 381.356 76.3409C380.716 76.3409 380.214 76.4811 379.85 76.7614C379.486 77.0417 379.231 77.3409 379.083 77.6591L377.81 77.2045C378.038 76.6742 378.341 76.2614 378.719 75.9659C379.102 75.6667 379.519 75.4583 379.969 75.3409C380.424 75.2197 380.871 75.1591 381.31 75.1591C381.591 75.1591 381.913 75.1932 382.276 75.2614C382.644 75.3258 382.998 75.4602 383.339 75.6648C383.683 75.8693 383.969 76.178 384.197 76.5909C384.424 77.0038 384.538 77.5568 384.538 78.25V84H383.197V82.8182H383.129C383.038 83.0076 382.886 83.2102 382.674 83.4261C382.462 83.642 382.18 83.8258 381.827 83.9773C381.475 84.1288 381.045 84.2045 380.538 84.2045ZM380.742 83C381.272 83 381.719 82.8958 382.083 82.6875C382.45 82.4792 382.727 82.2102 382.913 81.8807C383.102 81.5511 383.197 81.2045 383.197 80.8409V79.6136C383.14 79.6818 383.015 79.7443 382.822 79.8011C382.632 79.8542 382.413 79.9015 382.163 79.9432C381.916 79.9811 381.676 80.0152 381.441 80.0455C381.21 80.072 381.022 80.0947 380.879 80.1136C380.53 80.1591 380.204 80.233 379.901 80.3352C379.602 80.4337 379.36 80.5833 379.174 80.7841C378.992 80.9811 378.901 81.25 378.901 81.5909C378.901 82.0568 379.074 82.4091 379.418 82.6477C379.767 82.8826 380.208 83 380.742 83ZM390.78 75.2727V76.4091H386.258V75.2727H390.78ZM387.576 73.1818H388.917V81.5C388.917 81.8788 388.972 82.1629 389.082 82.3523C389.195 82.5379 389.339 82.6629 389.513 82.7273C389.691 82.7879 389.879 82.8182 390.076 82.8182C390.224 82.8182 390.345 82.8106 390.44 82.7955C390.534 82.7765 390.61 82.7614 390.667 82.75L390.94 83.9545C390.849 83.9886 390.722 84.0227 390.559 84.0568C390.396 84.0947 390.19 84.1136 389.94 84.1136C389.561 84.1136 389.19 84.0322 388.826 83.8693C388.466 83.7064 388.167 83.4583 387.928 83.125C387.693 82.7917 387.576 82.3712 387.576 81.8636V73.1818ZM392.798 84V75.2727H394.138V84H392.798ZM393.479 73.8182C393.218 73.8182 392.993 73.7292 392.803 73.5511C392.618 73.3731 392.525 73.1591 392.525 72.9091C392.525 72.6591 392.618 72.4451 392.803 72.267C392.993 72.089 393.218 72 393.479 72C393.741 72 393.964 72.089 394.15 72.267C394.339 72.4451 394.434 72.6591 394.434 72.9091C394.434 73.1591 394.339 73.3731 394.15 73.5511C393.964 73.7292 393.741 73.8182 393.479 73.8182ZM400.14 84.1818C399.352 84.1818 398.661 83.9943 398.066 83.6193C397.475 83.2443 397.013 82.7197 396.68 82.0455C396.35 81.3712 396.185 80.5833 396.185 79.6818C396.185 78.7727 396.35 77.9792 396.68 77.3011C397.013 76.6231 397.475 76.0966 398.066 75.7216C398.661 75.3466 399.352 75.1591 400.14 75.1591C400.928 75.1591 401.617 75.3466 402.208 75.7216C402.803 76.0966 403.265 76.6231 403.594 77.3011C403.928 77.9792 404.094 78.7727 404.094 79.6818C404.094 80.5833 403.928 81.3712 403.594 82.0455C403.265 82.7197 402.803 83.2443 402.208 83.6193C401.617 83.9943 400.928 84.1818 400.14 84.1818ZM400.14 82.9773C400.738 82.9773 401.231 82.8239 401.617 82.517C402.004 82.2102 402.289 81.8068 402.475 81.3068C402.661 80.8068 402.754 80.2652 402.754 79.6818C402.754 79.0985 402.661 78.5549 402.475 78.0511C402.289 77.5473 402.004 77.1402 401.617 76.8295C401.231 76.5189 400.738 76.3636 400.14 76.3636C399.541 76.3636 399.049 76.5189 398.663 76.8295C398.276 77.1402 397.99 77.5473 397.805 78.0511C397.619 78.5549 397.526 79.0985 397.526 79.6818C397.526 80.2652 397.619 80.8068 397.805 81.3068C397.99 81.8068 398.276 82.2102 398.663 82.517C399.049 82.8239 399.541 82.9773 400.14 82.9773ZM407.482 78.75V84H406.141V75.2727H407.437V76.6364H407.55C407.755 76.1932 408.066 75.8371 408.482 75.5682C408.899 75.2955 409.437 75.1591 410.096 75.1591C410.687 75.1591 411.204 75.2803 411.647 75.5227C412.09 75.7614 412.435 76.125 412.681 76.6136C412.927 77.0985 413.05 77.7121 413.05 78.4545V84H411.709V78.5455C411.709 77.8598 411.531 77.3258 411.175 76.9432C410.819 76.5568 410.331 76.3636 409.709 76.3636C409.281 76.3636 408.899 76.4564 408.562 76.642C408.228 76.8277 407.965 77.0985 407.772 77.4545C407.579 77.8106 407.482 78.2424 407.482 78.75Z" fill="white"/>
<path d="M301.731 80C301.731 81.6574 303.075 83.001 304.732 83.001C306.39 83.001 307.733 81.6574 307.733 80C307.733 78.3426 306.39 76.999 304.732 76.999C303.075 76.999 301.731 78.3426 301.731 80ZM325.686 80C325.686 81.6574 327.029 83.001 328.687 83.001C330.344 83.001 331.687 81.6574 331.687 80C331.687 78.3426 330.344 76.999 328.687 76.999C327.029 76.999 325.686 78.3426 325.686 80ZM304.732 80.5627H328.687V79.4373H304.732V80.5627Z" fill="white"/>
<path d="M324.402 211H322.925L327.197 199.364H328.652L332.925 211H331.447L327.97 201.205H327.879L324.402 211ZM324.947 206.455H330.902V207.705H324.947V206.455ZM336.146 199.364V211H334.737V199.364H336.146ZM343.29 211V202.273H344.631V211H343.29ZM343.972 200.818C343.71 200.818 343.485 200.729 343.295 200.551C343.11 200.373 343.017 200.159 343.017 199.909C343.017 199.659 343.11 199.445 343.295 199.267C343.485 199.089 343.71 199 343.972 199C344.233 199 344.456 199.089 344.642 199.267C344.831 199.445 344.926 199.659 344.926 199.909C344.926 200.159 344.831 200.373 344.642 200.551C344.456 200.729 344.233 200.818 343.972 200.818ZM348.428 205.75V211H347.087V202.273H348.382V203.636H348.496C348.7 203.193 349.011 202.837 349.428 202.568C349.844 202.295 350.382 202.159 351.041 202.159C351.632 202.159 352.149 202.28 352.592 202.523C353.036 202.761 353.38 203.125 353.626 203.614C353.873 204.098 353.996 204.712 353.996 205.455V211H352.655V205.545C352.655 204.86 352.477 204.326 352.121 203.943C351.765 203.557 351.276 203.364 350.655 203.364C350.227 203.364 349.844 203.456 349.507 203.642C349.174 203.828 348.911 204.098 348.717 204.455C348.524 204.811 348.428 205.242 348.428 205.75ZM360.241 202.273V203.409H355.719V202.273H360.241ZM357.037 200.182H358.378V208.5C358.378 208.879 358.433 209.163 358.543 209.352C358.656 209.538 358.8 209.663 358.974 209.727C359.152 209.788 359.34 209.818 359.537 209.818C359.685 209.818 359.806 209.811 359.901 209.795C359.995 209.777 360.071 209.761 360.128 209.75L360.401 210.955C360.31 210.989 360.183 211.023 360.02 211.057C359.857 211.095 359.651 211.114 359.401 211.114C359.022 211.114 358.651 211.032 358.287 210.869C357.927 210.706 357.628 210.458 357.389 210.125C357.154 209.792 357.037 209.371 357.037 208.864V200.182ZM365.824 211.182C364.983 211.182 364.258 210.996 363.648 210.625C363.042 210.25 362.574 209.727 362.244 209.057C361.919 208.383 361.756 207.598 361.756 206.705C361.756 205.811 361.919 205.023 362.244 204.341C362.574 203.655 363.032 203.121 363.619 202.739C364.21 202.352 364.9 202.159 365.688 202.159C366.142 202.159 366.591 202.235 367.034 202.386C367.477 202.538 367.881 202.784 368.244 203.125C368.608 203.462 368.898 203.909 369.114 204.466C369.33 205.023 369.438 205.708 369.438 206.523V207.091H362.71V205.932H368.074C368.074 205.439 367.975 205 367.778 204.614C367.585 204.227 367.309 203.922 366.949 203.699C366.593 203.475 366.172 203.364 365.688 203.364C365.153 203.364 364.691 203.496 364.301 203.761C363.915 204.023 363.617 204.364 363.409 204.784C363.201 205.205 363.097 205.655 363.097 206.136V206.909C363.097 207.568 363.21 208.127 363.438 208.585C363.669 209.04 363.989 209.386 364.398 209.625C364.807 209.86 365.282 209.977 365.824 209.977C366.176 209.977 366.494 209.928 366.778 209.83C367.066 209.727 367.314 209.576 367.523 209.375C367.731 209.17 367.892 208.917 368.006 208.614L369.301 208.977C369.165 209.417 368.936 209.803 368.614 210.136C368.292 210.466 367.894 210.723 367.42 210.909C366.947 211.091 366.415 211.182 365.824 211.182ZM375 214.455C374.352 214.455 373.795 214.371 373.33 214.205C372.864 214.042 372.475 213.826 372.165 213.557C371.858 213.292 371.614 213.008 371.432 212.705L372.5 211.955C372.621 212.114 372.775 212.295 372.96 212.5C373.146 212.708 373.4 212.888 373.722 213.04C374.047 213.195 374.473 213.273 375 213.273C375.705 213.273 376.286 213.102 376.744 212.761C377.203 212.42 377.432 211.886 377.432 211.159V209.386H377.318C377.22 209.545 377.08 209.742 376.898 209.977C376.72 210.208 376.462 210.415 376.125 210.597C375.792 210.775 375.341 210.864 374.773 210.864C374.068 210.864 373.436 210.697 372.875 210.364C372.318 210.03 371.877 209.545 371.551 208.909C371.229 208.273 371.068 207.5 371.068 206.591C371.068 205.697 371.225 204.919 371.54 204.256C371.854 203.589 372.292 203.074 372.852 202.71C373.413 202.343 374.061 202.159 374.795 202.159C375.364 202.159 375.814 202.254 376.148 202.443C376.485 202.629 376.742 202.841 376.92 203.08C377.102 203.314 377.242 203.508 377.341 203.659H377.477V202.273H378.773V211.25C378.773 212 378.602 212.61 378.261 213.08C377.924 213.553 377.47 213.9 376.898 214.119C376.33 214.343 375.697 214.455 375 214.455ZM374.955 209.659C375.492 209.659 375.947 209.536 376.318 209.29C376.689 209.044 376.972 208.689 377.165 208.227C377.358 207.765 377.455 207.212 377.455 206.568C377.455 205.939 377.36 205.384 377.17 204.903C376.981 204.422 376.701 204.045 376.33 203.773C375.958 203.5 375.5 203.364 374.955 203.364C374.386 203.364 373.913 203.508 373.534 203.795C373.159 204.083 372.877 204.47 372.688 204.955C372.502 205.439 372.409 205.977 372.409 206.568C372.409 207.174 372.504 207.71 372.693 208.176C372.886 208.638 373.17 209.002 373.545 209.267C373.924 209.528 374.394 209.659 374.955 209.659ZM381.227 211V202.273H382.523V203.591H382.614C382.773 203.159 383.061 202.809 383.477 202.54C383.894 202.271 384.364 202.136 384.886 202.136C384.985 202.136 385.108 202.138 385.256 202.142C385.403 202.146 385.515 202.152 385.591 202.159V203.523C385.545 203.511 385.441 203.494 385.278 203.472C385.119 203.445 384.951 203.432 384.773 203.432C384.348 203.432 383.97 203.521 383.636 203.699C383.307 203.873 383.045 204.116 382.852 204.426C382.663 204.733 382.568 205.083 382.568 205.477V211H381.227ZM389.749 211.205C389.196 211.205 388.694 211.1 388.243 210.892C387.792 210.68 387.434 210.375 387.169 209.977C386.904 209.576 386.771 209.091 386.771 208.523C386.771 208.023 386.87 207.617 387.067 207.307C387.264 206.992 387.527 206.746 387.857 206.568C388.186 206.39 388.55 206.258 388.947 206.17C389.349 206.08 389.752 206.008 390.158 205.955C390.688 205.886 391.118 205.835 391.447 205.801C391.781 205.763 392.023 205.701 392.175 205.614C392.33 205.527 392.408 205.375 392.408 205.159V205.114C392.408 204.553 392.254 204.117 391.947 203.807C391.644 203.496 391.184 203.341 390.567 203.341C389.927 203.341 389.425 203.481 389.061 203.761C388.697 204.042 388.442 204.341 388.294 204.659L387.021 204.205C387.249 203.674 387.552 203.261 387.93 202.966C388.313 202.667 388.73 202.458 389.18 202.341C389.635 202.22 390.082 202.159 390.521 202.159C390.802 202.159 391.124 202.193 391.487 202.261C391.855 202.326 392.209 202.46 392.55 202.665C392.894 202.869 393.18 203.178 393.408 203.591C393.635 204.004 393.749 204.557 393.749 205.25V211H392.408V209.818H392.339C392.249 210.008 392.097 210.21 391.885 210.426C391.673 210.642 391.391 210.826 391.038 210.977C390.686 211.129 390.256 211.205 389.749 211.205ZM389.953 210C390.483 210 390.93 209.896 391.294 209.688C391.661 209.479 391.938 209.21 392.124 208.881C392.313 208.551 392.408 208.205 392.408 207.841V206.614C392.351 206.682 392.226 206.744 392.033 206.801C391.843 206.854 391.624 206.902 391.374 206.943C391.127 206.981 390.887 207.015 390.652 207.045C390.421 207.072 390.233 207.095 390.089 207.114C389.741 207.159 389.415 207.233 389.112 207.335C388.813 207.434 388.571 207.583 388.385 207.784C388.203 207.981 388.112 208.25 388.112 208.591C388.112 209.057 388.285 209.409 388.629 209.648C388.978 209.883 389.419 210 389.953 210ZM399.991 202.273V203.409H395.469V202.273H399.991ZM396.787 200.182H398.128V208.5C398.128 208.879 398.183 209.163 398.293 209.352C398.406 209.538 398.55 209.663 398.724 209.727C398.902 209.788 399.09 209.818 399.287 209.818C399.435 209.818 399.556 209.811 399.651 209.795C399.745 209.777 399.821 209.761 399.878 209.75L400.151 210.955C400.06 210.989 399.933 211.023 399.77 211.057C399.607 211.095 399.401 211.114 399.151 211.114C398.772 211.114 398.401 211.032 398.037 210.869C397.677 210.706 397.378 210.458 397.139 210.125C396.904 209.792 396.787 209.371 396.787 208.864V200.182ZM402.009 211V202.273H403.349V211H402.009ZM402.69 200.818C402.429 200.818 402.204 200.729 402.014 200.551C401.829 200.373 401.736 200.159 401.736 199.909C401.736 199.659 401.829 199.445 402.014 199.267C402.204 199.089 402.429 199 402.69 199C402.952 199 403.175 199.089 403.361 199.267C403.55 199.445 403.645 199.659 403.645 199.909C403.645 200.159 403.55 200.373 403.361 200.551C403.175 200.729 402.952 200.818 402.69 200.818ZM409.351 211.182C408.563 211.182 407.872 210.994 407.277 210.619C406.686 210.244 406.224 209.72 405.891 209.045C405.561 208.371 405.396 207.583 405.396 206.682C405.396 205.773 405.561 204.979 405.891 204.301C406.224 203.623 406.686 203.097 407.277 202.722C407.872 202.347 408.563 202.159 409.351 202.159C410.139 202.159 410.828 202.347 411.419 202.722C412.014 203.097 412.476 203.623 412.805 204.301C413.139 204.979 413.305 205.773 413.305 206.682C413.305 207.583 413.139 208.371 412.805 209.045C412.476 209.72 412.014 210.244 411.419 210.619C410.828 210.994 410.139 211.182 409.351 211.182ZM409.351 209.977C409.949 209.977 410.442 209.824 410.828 209.517C411.214 209.21 411.5 208.807 411.686 208.307C411.872 207.807 411.964 207.265 411.964 206.682C411.964 206.098 411.872 205.555 411.686 205.051C411.5 204.547 411.214 204.14 410.828 203.83C410.442 203.519 409.949 203.364 409.351 203.364C408.752 203.364 408.26 203.519 407.874 203.83C407.487 204.14 407.201 204.547 407.016 205.051C406.83 205.555 406.737 206.098 406.737 206.682C406.737 207.265 406.83 207.807 407.016 208.307C407.201 208.807 407.487 209.21 407.874 209.517C408.26 209.824 408.752 209.977 409.351 209.977ZM416.693 205.75V211H415.352V202.273H416.648V203.636H416.761C416.966 203.193 417.277 202.837 417.693 202.568C418.11 202.295 418.648 202.159 419.307 202.159C419.898 202.159 420.415 202.28 420.858 202.523C421.301 202.761 421.646 203.125 421.892 203.614C422.138 204.098 422.261 204.712 422.261 205.455V211H420.92V205.545C420.92 204.86 420.742 204.326 420.386 203.943C420.03 203.557 419.542 203.364 418.92 203.364C418.492 203.364 418.11 203.456 417.773 203.642C417.439 203.828 417.176 204.098 416.983 204.455C416.79 204.811 416.693 205.242 416.693 205.75Z" fill="white"/>
<path d="M323.678 154C323.678 155.657 325.021 157.001 326.679 157.001C328.336 157.001 329.68 155.657 329.68 154C329.68 152.343 328.336 150.999 326.679 150.999C325.021 150.999 323.678 152.343 323.678 154ZM346.641 154H347.203V153.437H346.641V154ZM343.64 189C343.64 190.657 344.983 192.001 346.641 192.001C348.298 192.001 349.642 190.657 349.642 189C349.642 187.343 348.298 185.999 346.641 185.999C344.983 185.999 343.64 187.343 343.64 189ZM326.679 154.563H346.641V153.437H326.679V154.563ZM346.078 154V189H347.203V154H346.078Z" fill="white"/>
<path d="M22.9269 195.364H24.4724L25.7678 197.068L26.1087 197.523L28.0406 200.091H26.4951L25.2224 198.386L24.9042 197.955L22.9269 195.364ZM28.5178 193.182C28.5178 194.409 28.2962 195.47 27.8531 196.364C27.4099 197.258 26.8019 197.947 26.0292 198.432C25.2565 198.917 24.3739 199.159 23.3815 199.159C22.389 199.159 21.5065 198.917 20.7337 198.432C19.961 197.947 19.3531 197.258 18.9099 196.364C18.4667 195.47 18.2451 194.409 18.2451 193.182C18.2451 191.955 18.4667 190.894 18.9099 190C19.3531 189.106 19.961 188.417 20.7337 187.932C21.5065 187.447 22.389 187.205 23.3815 187.205C24.3739 187.205 25.2565 187.447 26.0292 187.932C26.8019 188.417 27.4099 189.106 27.8531 190C28.2962 190.894 28.5178 191.955 28.5178 193.182ZM27.1542 193.182C27.1542 192.174 26.9856 191.324 26.6485 190.631C26.3152 189.938 25.8625 189.413 25.2906 189.057C24.7224 188.701 24.086 188.523 23.3815 188.523C22.6769 188.523 22.0387 188.701 21.4667 189.057C20.8985 189.413 20.4459 189.938 20.1087 190.631C19.7754 191.324 19.6087 192.174 19.6087 193.182C19.6087 194.189 19.7754 195.04 20.1087 195.733C20.4459 196.426 20.8985 196.951 21.4667 197.307C22.0387 197.663 22.6769 197.841 23.3815 197.841C24.086 197.841 24.7224 197.663 25.2906 197.307C25.8625 196.951 26.3152 196.426 26.6485 195.733C26.9856 195.04 27.1542 194.189 27.1542 193.182ZM36.2053 195.432V190.273H37.5462V199H36.2053V197.523H36.1144C35.9099 197.966 35.5917 198.343 35.1599 198.653C34.7281 198.96 34.1826 199.114 33.5235 199.114C32.9781 199.114 32.4932 198.994 32.069 198.756C31.6447 198.513 31.3114 198.15 31.069 197.665C30.8265 197.176 30.7053 196.561 30.7053 195.818V190.273H32.0462V195.727C32.0462 196.364 32.2243 196.871 32.5803 197.25C32.9402 197.629 33.3985 197.818 33.9553 197.818C34.2887 197.818 34.6277 197.733 34.9724 197.562C35.3209 197.392 35.6125 197.131 35.8474 196.778C36.086 196.426 36.2053 195.977 36.2053 195.432ZM42.5704 199.205C42.0173 199.205 41.5155 199.1 41.0647 198.892C40.6139 198.68 40.256 198.375 39.9908 197.977C39.7257 197.576 39.5931 197.091 39.5931 196.523C39.5931 196.023 39.6916 195.617 39.8886 195.307C40.0855 194.992 40.3488 194.746 40.6783 194.568C41.0079 194.39 41.3715 194.258 41.7692 194.17C42.1708 194.08 42.5742 194.008 42.9795 193.955C43.5098 193.886 43.9397 193.835 44.2692 193.801C44.6026 193.763 44.845 193.701 44.9965 193.614C45.1518 193.527 45.2295 193.375 45.2295 193.159V193.114C45.2295 192.553 45.0761 192.117 44.7692 191.807C44.4662 191.496 44.006 191.341 43.3886 191.341C42.7484 191.341 42.2465 191.481 41.8829 191.761C41.5192 192.042 41.2636 192.341 41.1158 192.659L39.8431 192.205C40.0704 191.674 40.3734 191.261 40.7522 190.966C41.1348 190.667 41.5514 190.458 42.0022 190.341C42.4567 190.22 42.9037 190.159 43.3431 190.159C43.6234 190.159 43.9454 190.193 44.309 190.261C44.6764 190.326 45.0306 190.46 45.3715 190.665C45.7162 190.869 46.0022 191.178 46.2295 191.591C46.4567 192.004 46.5704 192.557 46.5704 193.25V199H45.2295V197.818H45.1613C45.0704 198.008 44.9189 198.21 44.7067 198.426C44.4946 198.642 44.2124 198.826 43.8602 198.977C43.5079 199.129 43.078 199.205 42.5704 199.205ZM42.7749 198C43.3052 198 43.7522 197.896 44.1158 197.688C44.4833 197.479 44.7598 197.21 44.9454 196.881C45.1348 196.551 45.2295 196.205 45.2295 195.841V194.614C45.1727 194.682 45.0477 194.744 44.8545 194.801C44.6651 194.854 44.4454 194.902 44.1954 194.943C43.9492 194.981 43.7086 195.015 43.4738 195.045C43.2427 195.072 43.0552 195.095 42.9113 195.114C42.5628 195.159 42.237 195.233 41.934 195.335C41.6348 195.434 41.3923 195.583 41.2067 195.784C41.0249 195.981 40.934 196.25 40.934 196.591C40.934 197.057 41.1064 197.409 41.4511 197.648C41.7995 197.883 42.2408 198 42.7749 198ZM50.3587 187.364V199H49.0178V187.364H50.3587ZM52.8147 199V190.273H54.1556V199H52.8147ZM53.4965 188.818C53.2352 188.818 53.0098 188.729 52.8204 188.551C52.6348 188.373 52.542 188.159 52.542 187.909C52.542 187.659 52.6348 187.445 52.8204 187.267C53.0098 187.089 53.2352 187 53.4965 187C53.7579 187 53.9814 187.089 54.167 187.267C54.3564 187.445 54.4511 187.659 54.4511 187.909C54.4511 188.159 54.3564 188.373 54.167 188.551C53.9814 188.729 53.7579 188.818 53.4965 188.818ZM60.407 190.273V191.409H55.8843V190.273H60.407ZM57.2025 188.182H58.5434V196.5C58.5434 196.879 58.5983 197.163 58.7082 197.352C58.8218 197.538 58.9657 197.663 59.14 197.727C59.318 197.788 59.5055 197.818 59.7025 197.818C59.8502 197.818 59.9714 197.811 60.0661 197.795C60.1608 197.777 60.2366 197.761 60.2934 197.75L60.5661 198.955C60.4752 198.989 60.3483 199.023 60.1854 199.057C60.0226 199.095 59.8161 199.114 59.5661 199.114C59.1873 199.114 58.8161 199.032 58.4525 198.869C58.0926 198.706 57.7934 198.458 57.5548 198.125C57.3199 197.792 57.2025 197.371 57.2025 196.864V188.182ZM63.2877 202.273C63.0604 202.273 62.8578 202.254 62.6798 202.216C62.5017 202.182 62.3786 202.148 62.3104 202.114L62.6513 200.932C62.9771 201.015 63.265 201.045 63.515 201.023C63.765 201 63.9866 200.888 64.1798 200.688C64.3767 200.491 64.5566 200.17 64.7195 199.727L64.9695 199.045L61.7423 190.273H63.1968L65.6059 197.227H65.6968L68.1059 190.273H69.5604L65.8559 200.273C65.6892 200.723 65.4828 201.097 65.2366 201.392C64.9904 201.691 64.7044 201.913 64.3786 202.057C64.0566 202.201 63.693 202.273 63.2877 202.273ZM79.1258 199.159C78.3606 199.159 77.7015 199.019 77.1485 198.739C76.5955 198.458 76.1693 198.074 75.8701 197.585C75.5709 197.097 75.4212 196.538 75.4212 195.909C75.4212 195.424 75.5235 194.994 75.7281 194.619C75.9364 194.241 76.2224 193.89 76.586 193.568C76.9534 193.242 77.3758 192.917 77.8531 192.591L79.5349 191.341C79.8644 191.125 80.1277 190.894 80.3246 190.648C80.5254 190.402 80.6258 190.08 80.6258 189.682C80.6258 189.386 80.4951 189.1 80.2337 188.824C79.9762 188.547 79.6371 188.409 79.2167 188.409C78.9212 188.409 78.6599 188.485 78.4326 188.636C78.2091 188.784 78.033 188.973 77.9042 189.205C77.7792 189.432 77.7167 189.667 77.7167 189.909C77.7167 190.182 77.7906 190.458 77.9383 190.739C78.0898 191.015 78.2811 191.299 78.5121 191.591C78.747 191.879 78.9894 192.174 79.2394 192.477L84.5803 199H82.9667L78.5576 193.682C78.1485 193.189 77.7773 192.742 77.444 192.341C77.1106 191.939 76.8455 191.544 76.6485 191.153C76.4515 190.763 76.3531 190.341 76.3531 189.886C76.3531 189.364 76.4686 188.905 76.6996 188.511C76.9345 188.114 77.2621 187.805 77.6826 187.585C78.1068 187.362 78.6031 187.25 79.1712 187.25C79.7546 187.25 80.2565 187.364 80.6769 187.591C81.0974 187.814 81.4212 188.112 81.6485 188.483C81.8758 188.85 81.9894 189.25 81.9894 189.682C81.9894 190.239 81.8512 190.722 81.5746 191.131C81.2981 191.54 80.9212 191.92 80.444 192.273L78.1258 194C77.6031 194.386 77.2489 194.761 77.0633 195.125C76.8777 195.489 76.7849 195.75 76.7849 195.909C76.7849 196.273 76.8796 196.612 77.069 196.926C77.2584 197.241 77.5254 197.494 77.8701 197.688C78.2148 197.881 78.6182 197.977 79.0803 197.977C79.5197 197.977 79.9477 197.884 80.3644 197.699C80.7811 197.509 81.158 197.237 81.4951 196.881C81.836 196.525 82.1049 196.097 82.3019 195.597C82.5027 195.097 82.6031 194.534 82.6031 193.909H83.8985C83.8985 194.682 83.8095 195.312 83.6315 195.801C83.4534 196.29 83.2527 196.672 83.0292 196.949C82.8057 197.225 82.6258 197.432 82.4894 197.568C82.444 197.625 82.4023 197.682 82.3644 197.739C82.3265 197.795 82.2849 197.852 82.2394 197.909C81.8644 198.33 81.3909 198.644 80.819 198.852C80.247 199.057 79.6826 199.159 79.1258 199.159ZM5.63714 218V206.364H12.6599V207.614H7.04623V211.545H12.2962V212.795H7.04623V216.75H12.7508V218H5.63714ZM16.0178 209.273L18.1087 212.841L20.1996 209.273H21.7451L18.9269 213.636L21.7451 218H20.1996L18.1087 214.614L16.0178 218H14.4724L17.2451 213.636L14.4724 209.273H16.0178ZM26.8445 218.182C26.0263 218.182 25.3218 217.989 24.7309 217.602C24.14 217.216 23.6854 216.684 23.3673 216.006C23.0491 215.328 22.89 214.553 22.89 213.682C22.89 212.795 23.0529 212.013 23.3786 211.335C23.7082 210.653 24.1665 210.121 24.7536 209.739C25.3445 209.352 26.0339 209.159 26.8218 209.159C27.4354 209.159 27.9885 209.273 28.4809 209.5C28.9733 209.727 29.3767 210.045 29.6911 210.455C30.0055 210.864 30.2006 211.341 30.2763 211.886H28.9354C28.8332 211.489 28.6059 211.136 28.2536 210.83C27.9051 210.519 27.4354 210.364 26.8445 210.364C26.3218 210.364 25.8635 210.5 25.4695 210.773C25.0794 211.042 24.7745 211.422 24.5548 211.915C24.3388 212.403 24.2309 212.977 24.2309 213.636C24.2309 214.311 24.337 214.898 24.5491 215.398C24.765 215.898 25.068 216.286 25.4582 216.562C25.8521 216.839 26.3142 216.977 26.8445 216.977C27.193 216.977 27.5093 216.917 27.7934 216.795C28.0775 216.674 28.318 216.5 28.515 216.273C28.712 216.045 28.8521 215.773 28.9354 215.455H30.2763C30.2006 215.97 30.0131 216.434 29.7138 216.847C29.4184 217.256 29.0263 217.581 28.5377 217.824C28.0529 218.062 27.4885 218.182 26.8445 218.182ZM35.8957 218.182C35.0548 218.182 34.3294 217.996 33.7195 217.625C33.1135 217.25 32.6457 216.727 32.3161 216.057C31.9904 215.383 31.8275 214.598 31.8275 213.705C31.8275 212.811 31.9904 212.023 32.3161 211.341C32.6457 210.655 33.104 210.121 33.6911 209.739C34.282 209.352 34.9714 209.159 35.7593 209.159C36.2138 209.159 36.6627 209.235 37.1059 209.386C37.5491 209.538 37.9525 209.784 38.3161 210.125C38.6798 210.462 38.9695 210.909 39.1854 211.466C39.4013 212.023 39.5093 212.708 39.5093 213.523V214.091H32.782V212.932H38.1457C38.1457 212.439 38.0472 212 37.8502 211.614C37.657 211.227 37.3805 210.922 37.0207 210.699C36.6646 210.475 36.2441 210.364 35.7593 210.364C35.2252 210.364 34.7631 210.496 34.3729 210.761C33.9866 211.023 33.6892 211.364 33.4809 211.784C33.2726 212.205 33.1684 212.655 33.1684 213.136V213.909C33.1684 214.568 33.282 215.127 33.5093 215.585C33.7404 216.04 34.0604 216.386 34.4695 216.625C34.8786 216.86 35.354 216.977 35.8957 216.977C36.2479 216.977 36.5661 216.928 36.8502 216.83C37.1381 216.727 37.3862 216.576 37.5945 216.375C37.8029 216.17 37.9638 215.917 38.0775 215.614L39.3729 215.977C39.2366 216.417 39.0074 216.803 38.6854 217.136C38.3635 217.466 37.9657 217.723 37.4923 217.909C37.0188 218.091 36.4866 218.182 35.8957 218.182ZM42.89 206.364V218H41.5491V206.364H42.89ZM46.6869 206.364V218H45.3459V206.364H46.6869ZM52.8019 218.182C51.961 218.182 51.2356 217.996 50.6258 217.625C50.0197 217.25 49.5519 216.727 49.2224 216.057C48.8966 215.383 48.7337 214.598 48.7337 213.705C48.7337 212.811 48.8966 212.023 49.2224 211.341C49.5519 210.655 50.0102 210.121 50.5974 209.739C51.1883 209.352 51.8777 209.159 52.6656 209.159C53.1201 209.159 53.569 209.235 54.0121 209.386C54.4553 209.538 54.8587 209.784 55.2224 210.125C55.586 210.462 55.8758 210.909 56.0917 211.466C56.3076 212.023 56.4156 212.708 56.4156 213.523V214.091H49.6883V212.932H55.0519C55.0519 212.439 54.9534 212 54.7565 211.614C54.5633 211.227 54.2868 210.922 53.9269 210.699C53.5709 210.475 53.1504 210.364 52.6656 210.364C52.1315 210.364 51.6693 210.496 51.2792 210.761C50.8928 211.023 50.5955 211.364 50.3871 211.784C50.1788 212.205 50.0746 212.655 50.0746 213.136V213.909C50.0746 214.568 50.1883 215.127 50.4156 215.585C50.6466 216.04 50.9667 216.386 51.3758 216.625C51.7849 216.86 52.2602 216.977 52.8019 216.977C53.1542 216.977 53.4724 216.928 53.7565 216.83C54.0443 216.727 54.2924 216.576 54.5008 216.375C54.7091 216.17 54.8701 215.917 54.9837 215.614L56.2792 215.977C56.1428 216.417 55.9137 216.803 55.5917 217.136C55.2697 217.466 54.872 217.723 54.3985 217.909C53.925 218.091 53.3928 218.182 52.8019 218.182ZM59.7962 212.75V218H58.4553V209.273H59.7508V210.636H59.8644C60.069 210.193 60.3796 209.837 60.7962 209.568C61.2129 209.295 61.7508 209.159 62.4099 209.159C63.0008 209.159 63.5178 209.28 63.961 209.523C64.4042 209.761 64.7489 210.125 64.9951 210.614C65.2413 211.098 65.3644 211.712 65.3644 212.455V218H64.0235V212.545C64.0235 211.86 63.8455 211.326 63.4894 210.943C63.1334 210.557 62.6447 210.364 62.0235 210.364C61.5955 210.364 61.2129 210.456 60.8758 210.642C60.5424 210.828 60.2792 211.098 60.086 211.455C59.8928 211.811 59.7962 212.242 59.7962 212.75ZM71.3602 218.182C70.542 218.182 69.8374 217.989 69.2465 217.602C68.6556 217.216 68.2011 216.684 67.8829 216.006C67.5647 215.328 67.4056 214.553 67.4056 213.682C67.4056 212.795 67.5685 212.013 67.8942 211.335C68.2238 210.653 68.6821 210.121 69.2692 209.739C69.8602 209.352 70.5495 209.159 71.3374 209.159C71.9511 209.159 72.5041 209.273 72.9965 209.5C73.4889 209.727 73.8923 210.045 74.2067 210.455C74.5211 210.864 74.7162 211.341 74.792 211.886H73.4511C73.3488 211.489 73.1215 211.136 72.7692 210.83C72.4208 210.519 71.9511 210.364 71.3602 210.364C70.8374 210.364 70.3791 210.5 69.9852 210.773C69.595 211.042 69.2901 211.422 69.0704 211.915C68.8545 212.403 68.7465 212.977 68.7465 213.636C68.7465 214.311 68.8526 214.898 69.0647 215.398C69.2806 215.898 69.5836 216.286 69.9738 216.562C70.3677 216.839 70.8298 216.977 71.3602 216.977C71.7086 216.977 72.0249 216.917 72.309 216.795C72.5931 216.674 72.8336 216.5 73.0306 216.273C73.2276 216.045 73.3677 215.773 73.4511 215.455H74.792C74.7162 215.97 74.5287 216.434 74.2295 216.847C73.934 217.256 73.542 217.581 73.0533 217.824C72.5685 218.062 72.0041 218.182 71.3602 218.182ZM80.4113 218.182C79.5704 218.182 78.845 217.996 78.2352 217.625C77.6291 217.25 77.1613 216.727 76.8317 216.057C76.506 215.383 76.3431 214.598 76.3431 213.705C76.3431 212.811 76.506 212.023 76.8317 211.341C77.1613 210.655 77.6196 210.121 78.2067 209.739C78.7977 209.352 79.487 209.159 80.2749 209.159C80.7295 209.159 81.1783 209.235 81.6215 209.386C82.0647 209.538 82.4681 209.784 82.8317 210.125C83.1954 210.462 83.4852 210.909 83.7011 211.466C83.917 212.023 84.0249 212.708 84.0249 213.523V214.091H77.2977V212.932H82.6613C82.6613 212.439 82.5628 212 82.3658 211.614C82.1727 211.227 81.8961 210.922 81.5363 210.699C81.1802 210.475 80.7598 210.364 80.2749 210.364C79.7408 210.364 79.2787 210.496 78.8886 210.761C78.5022 211.023 78.2048 211.364 77.9965 211.784C77.7882 212.205 77.684 212.655 77.684 213.136V213.909C77.684 214.568 77.7977 215.127 78.0249 215.585C78.256 216.04 78.5761 216.386 78.9852 216.625C79.3942 216.86 79.8696 216.977 80.4113 216.977C80.7636 216.977 81.0817 216.928 81.3658 216.83C81.6537 216.727 81.9018 216.576 82.1102 216.375C82.3185 216.17 82.4795 215.917 82.5931 215.614L83.8886 215.977C83.7522 216.417 83.523 216.803 83.2011 217.136C82.8791 217.466 82.4814 217.723 82.0079 217.909C81.5344 218.091 81.0022 218.182 80.4113 218.182Z" fill="white"/>
<path d="M116.458 196C116.458 197.657 117.801 199.001 119.459 199.001C121.116 199.001 122.46 197.657 122.46 196C122.46 194.343 121.116 192.999 119.459 192.999C117.801 192.999 116.458 194.343 116.458 196ZM88.5111 196C88.5111 197.657 89.8547 199.001 91.5121 199.001C93.1695 199.001 94.5131 197.657 94.5131 196C94.5131 194.343 93.1695 192.999 91.5121 192.999C89.8547 192.999 88.5111 194.343 88.5111 196ZM119.459 195.437H91.5121V196.563H119.459V195.437Z" fill="white"/>
<path d="M30.7571 296H29.348C29.2647 295.595 29.1188 295.239 28.9105 294.932C28.706 294.625 28.456 294.367 28.1605 294.159C27.8688 293.947 27.545 293.788 27.1889 293.682C26.8329 293.576 26.4616 293.523 26.0753 293.523C25.3707 293.523 24.7325 293.701 24.1605 294.057C23.5923 294.413 23.1397 294.938 22.8026 295.631C22.4692 296.324 22.3026 297.174 22.3026 298.182C22.3026 299.189 22.4692 300.04 22.8026 300.733C23.1397 301.426 23.5923 301.951 24.1605 302.307C24.7325 302.663 25.3707 302.841 26.0753 302.841C26.4616 302.841 26.8329 302.788 27.1889 302.682C27.545 302.576 27.8688 302.419 28.1605 302.21C28.456 301.998 28.706 301.739 28.9105 301.432C29.1188 301.121 29.2647 300.765 29.348 300.364H30.7571C30.651 300.958 30.4579 301.491 30.1776 301.96C29.8973 302.43 29.5488 302.83 29.1321 303.159C28.7154 303.485 28.2476 303.733 27.7287 303.903C27.2135 304.074 26.6624 304.159 26.0753 304.159C25.0829 304.159 24.2003 303.917 23.4276 303.432C22.6548 302.947 22.0469 302.258 21.6037 301.364C21.1605 300.47 20.9389 299.409 20.9389 298.182C20.9389 296.955 21.1605 295.894 21.6037 295C22.0469 294.106 22.6548 293.417 23.4276 292.932C24.2003 292.447 25.0829 292.205 26.0753 292.205C26.6624 292.205 27.2135 292.29 27.7287 292.46C28.2476 292.631 28.7154 292.881 29.1321 293.21C29.5488 293.536 29.8973 293.934 30.1776 294.403C30.4579 294.869 30.651 295.402 30.7571 296ZM36.3977 304.182C35.6098 304.182 34.9186 303.994 34.3239 303.619C33.733 303.244 33.2708 302.72 32.9375 302.045C32.608 301.371 32.4432 300.583 32.4432 299.682C32.4432 298.773 32.608 297.979 32.9375 297.301C33.2708 296.623 33.733 296.097 34.3239 295.722C34.9186 295.347 35.6098 295.159 36.3977 295.159C37.1856 295.159 37.875 295.347 38.4659 295.722C39.0606 296.097 39.5227 296.623 39.8523 297.301C40.1856 297.979 40.3523 298.773 40.3523 299.682C40.3523 300.583 40.1856 301.371 39.8523 302.045C39.5227 302.72 39.0606 303.244 38.4659 303.619C37.875 303.994 37.1856 304.182 36.3977 304.182ZM36.3977 302.977C36.9962 302.977 37.4886 302.824 37.875 302.517C38.2614 302.21 38.5473 301.807 38.733 301.307C38.9186 300.807 39.0114 300.265 39.0114 299.682C39.0114 299.098 38.9186 298.555 38.733 298.051C38.5473 297.547 38.2614 297.14 37.875 296.83C37.4886 296.519 36.9962 296.364 36.3977 296.364C35.7992 296.364 35.3068 296.519 34.9205 296.83C34.5341 297.14 34.2481 297.547 34.0625 298.051C33.8769 298.555 33.7841 299.098 33.7841 299.682C33.7841 300.265 33.8769 300.807 34.0625 301.307C34.2481 301.807 34.5341 302.21 34.9205 302.517C35.3068 302.824 35.7992 302.977 36.3977 302.977ZM43.7401 298.75V304H42.3991V295.273H43.6946V296.636H43.8082C44.0128 296.193 44.3234 295.837 44.7401 295.568C45.1567 295.295 45.6946 295.159 46.3537 295.159C46.9446 295.159 47.4616 295.28 47.9048 295.523C48.348 295.761 48.6927 296.125 48.9389 296.614C49.1851 297.098 49.3082 297.712 49.3082 298.455V304H47.9673V298.545C47.9673 297.86 47.7893 297.326 47.4332 296.943C47.0772 296.557 46.5885 296.364 45.9673 296.364C45.5393 296.364 45.1567 296.456 44.8196 296.642C44.4863 296.828 44.223 297.098 44.0298 297.455C43.8366 297.811 43.7401 298.242 43.7401 298.75ZM55.554 295.273V296.409H51.0312V295.273H55.554ZM52.3494 293.182H53.6903V301.5C53.6903 301.879 53.7453 302.163 53.8551 302.352C53.9688 302.538 54.1127 302.663 54.2869 302.727C54.465 302.788 54.6525 302.818 54.8494 302.818C54.9972 302.818 55.1184 302.811 55.2131 302.795C55.3078 302.777 55.3835 302.761 55.4403 302.75L55.7131 303.955C55.6222 303.989 55.4953 304.023 55.3324 304.057C55.1695 304.095 54.9631 304.114 54.7131 304.114C54.3343 304.114 53.9631 304.032 53.5994 303.869C53.2396 303.706 52.9403 303.458 52.7017 303.125C52.4669 302.792 52.3494 302.371 52.3494 301.864V293.182ZM57.571 304V295.273H58.9119V304H57.571ZM58.2528 293.818C57.9915 293.818 57.7661 293.729 57.5767 293.551C57.3911 293.373 57.2983 293.159 57.2983 292.909C57.2983 292.659 57.3911 292.445 57.5767 292.267C57.7661 292.089 57.9915 292 58.2528 292C58.5142 292 58.7377 292.089 58.9233 292.267C59.1127 292.445 59.2074 292.659 59.2074 292.909C59.2074 293.159 59.1127 293.373 58.9233 293.551C58.7377 293.729 58.5142 293.818 58.2528 293.818ZM62.7088 298.75V304H61.3679V295.273H62.6634V296.636H62.777C62.9815 296.193 63.2921 295.837 63.7088 295.568C64.1255 295.295 64.6634 295.159 65.3224 295.159C65.9134 295.159 66.4304 295.28 66.8736 295.523C67.3168 295.761 67.6615 296.125 67.9077 296.614C68.1539 297.098 68.277 297.712 68.277 298.455V304H66.9361V298.545C66.9361 297.86 66.758 297.326 66.402 296.943C66.0459 296.557 65.5573 296.364 64.9361 296.364C64.508 296.364 64.1255 296.456 63.7884 296.642C63.455 296.828 63.1918 297.098 62.9986 297.455C62.8054 297.811 62.7088 298.242 62.7088 298.75ZM76.2273 300.432V295.273H77.5682V304H76.2273V302.523H76.1364C75.9318 302.966 75.6136 303.343 75.1818 303.653C74.75 303.96 74.2045 304.114 73.5455 304.114C73 304.114 72.5152 303.994 72.0909 303.756C71.6667 303.513 71.3333 303.15 71.0909 302.665C70.8485 302.176 70.7273 301.561 70.7273 300.818V295.273H72.0682V300.727C72.0682 301.364 72.2462 301.871 72.6023 302.25C72.9621 302.629 73.4205 302.818 73.9773 302.818C74.3106 302.818 74.6496 302.733 74.9943 302.562C75.3428 302.392 75.6345 302.131 75.8693 301.778C76.108 301.426 76.2273 300.977 76.2273 300.432ZM83.5696 304.182C82.7817 304.182 82.0904 303.994 81.4957 303.619C80.9048 303.244 80.4427 302.72 80.1094 302.045C79.7798 301.371 79.6151 300.583 79.6151 299.682C79.6151 298.773 79.7798 297.979 80.1094 297.301C80.4427 296.623 80.9048 296.097 81.4957 295.722C82.0904 295.347 82.7817 295.159 83.5696 295.159C84.3575 295.159 85.0469 295.347 85.6378 295.722C86.2325 296.097 86.6946 296.623 87.0241 297.301C87.3575 297.979 87.5241 298.773 87.5241 299.682C87.5241 300.583 87.3575 301.371 87.0241 302.045C86.6946 302.72 86.2325 303.244 85.6378 303.619C85.0469 303.994 84.3575 304.182 83.5696 304.182ZM83.5696 302.977C84.1681 302.977 84.6605 302.824 85.0469 302.517C85.4332 302.21 85.7192 301.807 85.9048 301.307C86.0904 300.807 86.1832 300.265 86.1832 299.682C86.1832 299.098 86.0904 298.555 85.9048 298.051C85.7192 297.547 85.4332 297.14 85.0469 296.83C84.6605 296.519 84.1681 296.364 83.5696 296.364C82.9711 296.364 82.4787 296.519 82.0923 296.83C81.706 297.14 81.42 297.547 81.2344 298.051C81.0488 298.555 80.956 299.098 80.956 299.682C80.956 300.265 81.0488 300.807 81.2344 301.307C81.42 301.807 81.706 302.21 82.0923 302.517C82.4787 302.824 82.9711 302.977 83.5696 302.977ZM95.071 300.432V295.273H96.4119V304H95.071V302.523H94.9801C94.7756 302.966 94.4574 303.343 94.0256 303.653C93.5938 303.96 93.0483 304.114 92.3892 304.114C91.8438 304.114 91.3589 303.994 90.9347 303.756C90.5104 303.513 90.1771 303.15 89.9347 302.665C89.6922 302.176 89.571 301.561 89.571 300.818V295.273H90.9119V300.727C90.9119 301.364 91.09 301.871 91.446 302.25C91.8059 302.629 92.2642 302.818 92.821 302.818C93.1544 302.818 93.4934 302.733 93.8381 302.562C94.1866 302.392 94.4782 302.131 94.7131 301.778C94.9517 301.426 95.071 300.977 95.071 300.432ZM105.05 297.227L103.845 297.568C103.769 297.367 103.658 297.172 103.51 296.983C103.366 296.79 103.169 296.631 102.919 296.506C102.669 296.381 102.349 296.318 101.959 296.318C101.425 296.318 100.98 296.441 100.624 296.688C100.271 296.93 100.095 297.239 100.095 297.614C100.095 297.947 100.216 298.21 100.459 298.403C100.701 298.597 101.08 298.758 101.595 298.886L102.891 299.205C103.671 299.394 104.252 299.684 104.635 300.074C105.018 300.46 105.209 300.958 105.209 301.568C105.209 302.068 105.065 302.515 104.777 302.909C104.493 303.303 104.095 303.614 103.584 303.841C103.072 304.068 102.478 304.182 101.8 304.182C100.91 304.182 100.173 303.989 99.5895 303.602C99.0062 303.216 98.6368 302.652 98.4815 301.909L99.7543 301.591C99.8755 302.061 100.105 302.413 100.442 302.648C100.783 302.883 101.228 303 101.777 303C102.402 303 102.898 302.867 103.266 302.602C103.637 302.333 103.822 302.011 103.822 301.636C103.822 301.333 103.716 301.08 103.504 300.875C103.292 300.667 102.966 300.511 102.527 300.409L101.072 300.068C100.273 299.879 99.6861 299.585 99.3111 299.188C98.9399 298.786 98.7543 298.284 98.7543 297.682C98.7543 297.189 98.8925 296.754 99.169 296.375C99.4493 295.996 99.83 295.699 100.311 295.483C100.796 295.267 101.345 295.159 101.959 295.159C102.822 295.159 103.5 295.348 103.993 295.727C104.489 296.106 104.841 296.606 105.05 297.227ZM54.3935 316.227L53.1889 316.568C53.1132 316.367 53.0014 316.172 52.8537 315.983C52.7098 315.79 52.5128 315.631 52.2628 315.506C52.0128 315.381 51.6927 315.318 51.3026 315.318C50.7685 315.318 50.3234 315.441 49.9673 315.688C49.6151 315.93 49.4389 316.239 49.4389 316.614C49.4389 316.947 49.5601 317.21 49.8026 317.403C50.045 317.597 50.4238 317.758 50.9389 317.886L52.2344 318.205C53.0147 318.394 53.5961 318.684 53.9787 319.074C54.3613 319.46 54.5526 319.958 54.5526 320.568C54.5526 321.068 54.4086 321.515 54.1207 321.909C53.8366 322.303 53.4389 322.614 52.9276 322.841C52.4162 323.068 51.8215 323.182 51.1435 323.182C50.2533 323.182 49.5166 322.989 48.9332 322.602C48.3499 322.216 47.9806 321.652 47.8253 320.909L49.098 320.591C49.2192 321.061 49.4484 321.413 49.7855 321.648C50.1264 321.883 50.5715 322 51.1207 322C51.7457 322 52.242 321.867 52.6094 321.602C52.9806 321.333 53.1662 321.011 53.1662 320.636C53.1662 320.333 53.0601 320.08 52.848 319.875C52.6359 319.667 52.3101 319.511 51.8707 319.409L50.4162 319.068C49.617 318.879 49.0298 318.585 48.6548 318.188C48.2836 317.786 48.098 317.284 48.098 316.682C48.098 316.189 48.2363 315.754 48.5128 315.375C48.7931 314.996 49.1738 314.699 49.6548 314.483C50.1397 314.267 50.6889 314.159 51.3026 314.159C52.1662 314.159 52.8442 314.348 53.3366 314.727C53.8329 315.106 54.1851 315.606 54.3935 316.227ZM62.071 319.432V314.273H63.4119V323H62.071V321.523H61.9801C61.7756 321.966 61.4574 322.343 61.0256 322.653C60.5938 322.96 60.0483 323.114 59.3892 323.114C58.8438 323.114 58.3589 322.994 57.9347 322.756C57.5104 322.513 57.1771 322.15 56.9347 321.665C56.6922 321.176 56.571 320.561 56.571 319.818V314.273H57.9119V319.727C57.9119 320.364 58.09 320.871 58.446 321.25C58.8059 321.629 59.2642 321.818 59.821 321.818C60.1544 321.818 60.4934 321.733 60.8381 321.562C61.1866 321.392 61.4782 321.131 61.7131 320.778C61.9517 320.426 62.071 319.977 62.071 319.432ZM65.8679 326.273V314.273H67.1634V315.659H67.3224C67.4209 315.508 67.5573 315.314 67.7315 315.08C67.9096 314.841 68.1634 314.629 68.4929 314.443C68.8262 314.254 69.277 314.159 69.8452 314.159C70.58 314.159 71.2277 314.343 71.7884 314.71C72.349 315.078 72.7865 315.598 73.1009 316.273C73.4152 316.947 73.5724 317.742 73.5724 318.659C73.5724 319.583 73.4152 320.384 73.1009 321.062C72.7865 321.737 72.3509 322.259 71.794 322.631C71.2372 322.998 70.5952 323.182 69.8679 323.182C69.3073 323.182 68.8584 323.089 68.5213 322.903C68.1842 322.714 67.9247 322.5 67.7429 322.261C67.5611 322.019 67.4209 321.818 67.3224 321.659H67.2088V326.273H65.8679ZM67.1861 318.636C67.1861 319.295 67.2827 319.877 67.4759 320.381C67.669 320.881 67.9512 321.273 68.3224 321.557C68.6937 321.837 69.1482 321.977 69.6861 321.977C70.2467 321.977 70.7145 321.83 71.0895 321.534C71.4683 321.235 71.7524 320.833 71.9418 320.33C72.1349 319.822 72.2315 319.258 72.2315 318.636C72.2315 318.023 72.1368 317.47 71.9474 316.977C71.7618 316.481 71.4796 316.089 71.1009 315.801C70.7259 315.509 70.2543 315.364 69.6861 315.364C69.1406 315.364 68.6823 315.502 68.3111 315.778C67.9399 316.051 67.6596 316.434 67.4702 316.926C67.2808 317.415 67.1861 317.985 67.1861 318.636ZM75.6179 326.273V314.273H76.9134V315.659H77.0724C77.1709 315.508 77.3073 315.314 77.4815 315.08C77.6596 314.841 77.9134 314.629 78.2429 314.443C78.5762 314.254 79.027 314.159 79.5952 314.159C80.33 314.159 80.9777 314.343 81.5384 314.71C82.099 315.078 82.5365 315.598 82.8509 316.273C83.1652 316.947 83.3224 317.742 83.3224 318.659C83.3224 319.583 83.1652 320.384 82.8509 321.062C82.5365 321.737 82.1009 322.259 81.544 322.631C80.9872 322.998 80.3452 323.182 79.6179 323.182C79.0573 323.182 78.6084 323.089 78.2713 322.903C77.9342 322.714 77.6747 322.5 77.4929 322.261C77.3111 322.019 77.1709 321.818 77.0724 321.659H76.9588V326.273H75.6179ZM76.9361 318.636C76.9361 319.295 77.0327 319.877 77.2259 320.381C77.419 320.881 77.7012 321.273 78.0724 321.557C78.4437 321.837 78.8982 321.977 79.4361 321.977C79.9967 321.977 80.4645 321.83 80.8395 321.534C81.2183 321.235 81.5024 320.833 81.6918 320.33C81.8849 319.822 81.9815 319.258 81.9815 318.636C81.9815 318.023 81.8868 317.47 81.6974 316.977C81.5118 316.481 81.2296 316.089 80.8509 315.801C80.4759 315.509 80.0043 315.364 79.4361 315.364C78.8906 315.364 78.4323 315.502 78.0611 315.778C77.6899 316.051 77.4096 316.434 77.2202 316.926C77.0308 317.415 76.9361 317.985 76.9361 318.636ZM88.9134 323.182C88.1255 323.182 87.4342 322.994 86.8395 322.619C86.2486 322.244 85.7865 321.72 85.4531 321.045C85.1236 320.371 84.9588 319.583 84.9588 318.682C84.9588 317.773 85.1236 316.979 85.4531 316.301C85.7865 315.623 86.2486 315.097 86.8395 314.722C87.4342 314.347 88.1255 314.159 88.9134 314.159C89.7012 314.159 90.3906 314.347 90.9815 314.722C91.5762 315.097 92.0384 315.623 92.3679 316.301C92.7012 316.979 92.8679 317.773 92.8679 318.682C92.8679 319.583 92.7012 320.371 92.3679 321.045C92.0384 321.72 91.5762 322.244 90.9815 322.619C90.3906 322.994 89.7012 323.182 88.9134 323.182ZM88.9134 321.977C89.5118 321.977 90.0043 321.824 90.3906 321.517C90.777 321.21 91.063 320.807 91.2486 320.307C91.4342 319.807 91.527 319.265 91.527 318.682C91.527 318.098 91.4342 317.555 91.2486 317.051C91.063 316.547 90.777 316.14 90.3906 315.83C90.0043 315.519 89.5118 315.364 88.9134 315.364C88.3149 315.364 87.8224 315.519 87.4361 315.83C87.0497 316.14 86.7637 316.547 86.5781 317.051C86.3925 317.555 86.2997 318.098 86.2997 318.682C86.2997 319.265 86.3925 319.807 86.5781 320.307C86.7637 320.807 87.0497 321.21 87.4361 321.517C87.8224 321.824 88.3149 321.977 88.9134 321.977ZM94.9148 323V314.273H96.2102V315.591H96.3011C96.4602 315.159 96.7481 314.809 97.1648 314.54C97.5814 314.271 98.0511 314.136 98.5739 314.136C98.6723 314.136 98.7955 314.138 98.9432 314.142C99.0909 314.146 99.2027 314.152 99.2784 314.159V315.523C99.233 315.511 99.1288 315.494 98.9659 315.472C98.8068 315.445 98.6383 315.432 98.4602 315.432C98.036 315.432 97.6572 315.521 97.3239 315.699C96.9943 315.873 96.733 316.116 96.5398 316.426C96.3504 316.733 96.2557 317.083 96.2557 317.477V323H94.9148ZM105.21 314.273V315.409H100.688V314.273H105.21ZM102.006 312.182H103.347V320.5C103.347 320.879 103.402 321.163 103.511 321.352C103.625 321.538 103.769 321.663 103.943 321.727C104.121 321.788 104.309 321.818 104.506 321.818C104.653 321.818 104.775 321.811 104.869 321.795C104.964 321.777 105.04 321.761 105.097 321.75L105.369 322.955C105.278 322.989 105.152 323.023 104.989 323.057C104.826 323.095 104.619 323.114 104.369 323.114C103.991 323.114 103.619 323.032 103.256 322.869C102.896 322.706 102.597 322.458 102.358 322.125C102.123 321.792 102.006 321.371 102.006 320.864V312.182Z" fill="white"/>
<path d="M150.646 276C150.646 277.657 151.99 279.001 153.647 279.001C155.304 279.001 156.648 277.657 156.648 276C156.648 274.343 155.304 272.999 153.647 272.999C151.99 272.999 150.646 274.343 150.646 276ZM153.647 306V306.563H154.21V306H153.647ZM112.719 306C112.719 307.657 114.062 309.001 115.72 309.001C117.377 309.001 118.721 307.657 118.721 306C118.721 304.343 117.377 302.999 115.72 302.999C114.062 302.999 112.719 304.343 112.719 306ZM153.084 276V306H154.21V276H153.084ZM153.647 305.437H115.72V306.563H153.647V305.437Z" fill="white"/>
<path d="M48.6293 87H47.2202C47.1368 86.5947 46.991 86.2386 46.7827 85.9318C46.5781 85.625 46.3281 85.3674 46.0327 85.1591C45.741 84.947 45.4172 84.7879 45.0611 84.6818C44.705 84.5758 44.3338 84.5227 43.9475 84.5227C43.2429 84.5227 42.6047 84.7008 42.0327 85.0568C41.4645 85.4129 41.0118 85.9375 40.6747 86.6307C40.3414 87.3239 40.1747 88.1742 40.1747 89.1818C40.1747 90.1894 40.3414 91.0398 40.6747 91.733C41.0118 92.4261 41.4645 92.9508 42.0327 93.3068C42.6047 93.6629 43.2429 93.8409 43.9475 93.8409C44.3338 93.8409 44.705 93.7879 45.0611 93.6818C45.4172 93.5758 45.741 93.4186 46.0327 93.2102C46.3281 92.9981 46.5781 92.7386 46.7827 92.4318C46.991 92.1212 47.1368 91.7652 47.2202 91.3636H48.6293C48.5232 91.9583 48.33 92.4905 48.0497 92.9602C47.7694 93.4299 47.4209 93.8295 47.0043 94.1591C46.5876 94.4848 46.1198 94.733 45.6009 94.9034C45.0857 95.0739 44.5346 95.1591 43.9475 95.1591C42.955 95.1591 42.0725 94.9167 41.2997 94.4318C40.527 93.947 39.919 93.2576 39.4759 92.3636C39.0327 91.4697 38.8111 90.4091 38.8111 89.1818C38.8111 87.9545 39.0327 86.8939 39.4759 86C39.919 85.1061 40.527 84.4167 41.2997 83.9318C42.0725 83.447 42.955 83.2045 43.9475 83.2045C44.5346 83.2045 45.0857 83.2898 45.6009 83.4602C46.1198 83.6307 46.5876 83.8807 47.0043 84.2102C47.4209 84.536 47.7694 84.9337 48.0497 85.4034C48.33 85.8693 48.5232 86.4015 48.6293 87ZM56.2244 91.4318V86.2727H57.5654V95H56.2244V93.5227H56.1335C55.929 93.9659 55.6108 94.3428 55.179 94.6534C54.7472 94.9602 54.2017 95.1136 53.5426 95.1136C52.9972 95.1136 52.5123 94.9943 52.0881 94.7557C51.6638 94.5133 51.3305 94.1496 51.0881 93.6648C50.8457 93.1761 50.7244 92.5606 50.7244 91.8182V86.2727H52.0654V91.7273C52.0654 92.3636 52.2434 92.8712 52.5994 93.25C52.9593 93.6288 53.4176 93.8182 53.9744 93.8182C54.3078 93.8182 54.6468 93.733 54.9915 93.5625C55.34 93.392 55.6316 93.1307 55.8665 92.7784C56.1051 92.4261 56.2244 91.9773 56.2244 91.4318ZM66.2031 88.2273L64.9986 88.5682C64.9228 88.3674 64.8111 88.1723 64.6634 87.983C64.5194 87.7898 64.3225 87.6307 64.0725 87.5057C63.8225 87.3807 63.5024 87.3182 63.1122 87.3182C62.5781 87.3182 62.1331 87.4413 61.777 87.6875C61.4247 87.9299 61.2486 88.2386 61.2486 88.6136C61.2486 88.947 61.3698 89.2102 61.6122 89.4034C61.8547 89.5966 62.2334 89.7576 62.7486 89.8864L64.044 90.2045C64.8243 90.3939 65.4058 90.6837 65.7884 91.0739C66.1709 91.4602 66.3622 91.9583 66.3622 92.5682C66.3622 93.0682 66.2183 93.5152 65.9304 93.9091C65.6463 94.303 65.2486 94.6136 64.7372 94.8409C64.2259 95.0682 63.6312 95.1818 62.9531 95.1818C62.063 95.1818 61.3262 94.9886 60.7429 94.6023C60.1596 94.2159 59.7903 93.6515 59.635 92.9091L60.9077 92.5909C61.0289 93.0606 61.2581 93.4129 61.5952 93.6477C61.9361 93.8826 62.3812 94 62.9304 94C63.5554 94 64.0516 93.8674 64.419 93.6023C64.7903 93.3333 64.9759 93.0114 64.9759 92.6364C64.9759 92.3333 64.8698 92.0795 64.6577 91.875C64.4456 91.6667 64.1198 91.5114 63.6804 91.4091L62.2259 91.0682C61.4266 90.8788 60.8395 90.5852 60.4645 90.1875C60.0933 89.786 59.9077 89.2841 59.9077 88.6818C59.9077 88.1894 60.0459 87.7538 60.3225 87.375C60.6028 86.9962 60.9834 86.6989 61.4645 86.483C61.9493 86.267 62.4986 86.1591 63.1122 86.1591C63.9759 86.1591 64.6539 86.3485 65.1463 86.7273C65.6425 87.1061 65.9948 87.6061 66.2031 88.2273ZM72.1761 86.2727V87.4091H67.6534V86.2727H72.1761ZM68.9716 84.1818H70.3125V92.5C70.3125 92.8788 70.3674 93.1629 70.4773 93.3523C70.5909 93.5379 70.7349 93.6629 70.9091 93.7273C71.0871 93.7879 71.2746 93.8182 71.4716 93.8182C71.6193 93.8182 71.7405 93.8106 71.8352 93.7955C71.9299 93.7765 72.0057 93.7614 72.0625 93.75L72.3352 94.9545C72.2443 94.9886 72.1174 95.0227 71.9546 95.0568C71.7917 95.0947 71.5852 95.1136 71.3352 95.1136C70.9564 95.1136 70.5852 95.0322 70.2216 94.8693C69.8618 94.7064 69.5625 94.4583 69.3239 94.125C69.089 93.7917 68.9716 93.3712 68.9716 92.8636V84.1818ZM77.6449 95.1818C76.857 95.1818 76.1657 94.9943 75.571 94.6193C74.9801 94.2443 74.518 93.7197 74.1847 93.0455C73.8551 92.3712 73.6904 91.5833 73.6904 90.6818C73.6904 89.7727 73.8551 88.9792 74.1847 88.3011C74.518 87.6231 74.9801 87.0966 75.571 86.7216C76.1657 86.3466 76.857 86.1591 77.6449 86.1591C78.4328 86.1591 79.1222 86.3466 79.7131 86.7216C80.3078 87.0966 80.7699 87.6231 81.0994 88.3011C81.4328 88.9792 81.5994 89.7727 81.5994 90.6818C81.5994 91.5833 81.4328 92.3712 81.0994 93.0455C80.7699 93.7197 80.3078 94.2443 79.7131 94.6193C79.1222 94.9943 78.4328 95.1818 77.6449 95.1818ZM77.6449 93.9773C78.2434 93.9773 78.7358 93.8239 79.1222 93.517C79.5085 93.2102 79.7945 92.8068 79.9801 92.3068C80.1657 91.8068 80.2585 91.2652 80.2585 90.6818C80.2585 90.0985 80.1657 89.5549 79.9801 89.0511C79.7945 88.5473 79.5085 88.1402 79.1222 87.8295C78.7358 87.5189 78.2434 87.3636 77.6449 87.3636C77.0464 87.3636 76.554 87.5189 76.1676 87.8295C75.7813 88.1402 75.4953 88.5473 75.3097 89.0511C75.1241 89.5549 75.0313 90.0985 75.0313 90.6818C75.0313 91.2652 75.1241 91.8068 75.3097 92.3068C75.4953 92.8068 75.7813 93.2102 76.1676 93.517C76.554 93.8239 77.0464 93.9773 77.6449 93.9773ZM83.6463 95V86.2727H84.9418V87.6364H85.0554C85.2372 87.1705 85.5308 86.8087 85.9361 86.5511C86.3414 86.2898 86.8281 86.1591 87.3963 86.1591C87.9721 86.1591 88.4512 86.2898 88.8338 86.5511C89.2202 86.8087 89.5213 87.1705 89.7372 87.6364H89.8281C90.0516 87.1856 90.3868 86.8277 90.8338 86.5625C91.2808 86.2936 91.8168 86.1591 92.4418 86.1591C93.2221 86.1591 93.8603 86.4034 94.3565 86.892C94.8528 87.3769 95.1009 88.1326 95.1009 89.1591V95H93.76V89.1591C93.76 88.5152 93.5838 88.0549 93.2315 87.7784C92.8793 87.5019 92.4645 87.3636 91.9872 87.3636C91.3736 87.3636 90.8982 87.5492 90.5611 87.9205C90.224 88.2879 90.0554 88.7538 90.0554 89.3182V95H88.6918V89.0227C88.6918 88.5265 88.5308 88.1269 88.2088 87.8239C87.8868 87.517 87.4721 87.3636 86.9645 87.3636C86.616 87.3636 86.2903 87.4564 85.9872 87.642C85.688 87.8277 85.4456 88.0852 85.26 88.4148C85.0781 88.7405 84.9872 89.1174 84.9872 89.5455V95H83.6463ZM101.212 95.1818C100.371 95.1818 99.6454 94.9962 99.0355 94.625C98.4295 94.25 97.9617 93.7273 97.6321 93.0568C97.3064 92.3826 97.1435 91.5985 97.1435 90.7045C97.1435 89.8106 97.3064 89.0227 97.6321 88.3409C97.9617 87.6553 98.42 87.1212 99.0071 86.7386C99.598 86.3523 100.287 86.1591 101.075 86.1591C101.53 86.1591 101.979 86.2348 102.422 86.3864C102.865 86.5379 103.268 86.7841 103.632 87.125C103.996 87.4621 104.286 87.9091 104.501 88.4659C104.717 89.0227 104.825 89.7083 104.825 90.5227V91.0909H98.098V89.9318H103.462C103.462 89.4394 103.363 89 103.166 88.6136C102.973 88.2273 102.697 87.9223 102.337 87.6989C101.981 87.4754 101.56 87.3636 101.075 87.3636C100.541 87.3636 100.079 87.4962 99.6889 87.7614C99.3026 88.0227 99.0052 88.3636 98.7969 88.7841C98.5886 89.2045 98.4844 89.6553 98.4844 90.1364V90.9091C98.4844 91.5682 98.598 92.1269 98.8253 92.5852C99.0564 93.0398 99.3764 93.3864 99.7855 93.625C100.195 93.8598 100.67 93.9773 101.212 93.9773C101.564 93.9773 101.882 93.928 102.166 93.8295C102.454 93.7273 102.702 93.5758 102.911 93.375C103.119 93.1705 103.28 92.9167 103.393 92.6136L104.689 92.9773C104.553 93.4167 104.323 93.803 104.001 94.1364C103.679 94.4659 103.282 94.7235 102.808 94.9091C102.335 95.0909 101.803 95.1818 101.212 95.1818ZM106.865 95V86.2727H108.161V87.5909H108.251C108.411 87.1591 108.698 86.8087 109.115 86.5398C109.532 86.2708 110.001 86.1364 110.524 86.1364C110.623 86.1364 110.746 86.1383 110.893 86.142C111.041 86.1458 111.153 86.1515 111.229 86.1591V87.5227C111.183 87.5114 111.079 87.4943 110.916 87.4716C110.757 87.4451 110.589 87.4318 110.411 87.4318C109.986 87.4318 109.607 87.5208 109.274 87.6989C108.945 87.8731 108.683 88.1155 108.49 88.4261C108.301 88.733 108.206 89.0833 108.206 89.4773V95H106.865ZM75.1577 105.273V106.409H70.4531V105.273H75.1577ZM71.8622 114V104.068C71.8622 103.568 71.9797 103.152 72.2145 102.818C72.4493 102.485 72.7543 102.235 73.1293 102.068C73.5043 101.902 73.9001 101.818 74.3168 101.818C74.6463 101.818 74.9153 101.845 75.1236 101.898C75.3319 101.951 75.4872 102 75.5895 102.045L75.2031 103.205C75.135 103.182 75.0403 103.153 74.919 103.119C74.8016 103.085 74.6463 103.068 74.4531 103.068C74.01 103.068 73.6899 103.18 73.4929 103.403C73.2997 103.627 73.2031 103.955 73.2031 104.386V114H71.8622ZM80.223 114.182C79.4351 114.182 78.7439 113.994 78.1492 113.619C77.5582 113.244 77.0961 112.72 76.7628 112.045C76.4332 111.371 76.2685 110.583 76.2685 109.682C76.2685 108.773 76.4332 107.979 76.7628 107.301C77.0961 106.623 77.5582 106.097 78.1492 105.722C78.7439 105.347 79.4351 105.159 80.223 105.159C81.0109 105.159 81.7003 105.347 82.2912 105.722C82.8859 106.097 83.348 106.623 83.6776 107.301C84.0109 107.979 84.1776 108.773 84.1776 109.682C84.1776 110.583 84.0109 111.371 83.6776 112.045C83.348 112.72 82.8859 113.244 82.2912 113.619C81.7003 113.994 81.0109 114.182 80.223 114.182ZM80.223 112.977C80.8215 112.977 81.3139 112.824 81.7003 112.517C82.0867 112.21 82.3726 111.807 82.5582 111.307C82.7439 110.807 82.8367 110.265 82.8367 109.682C82.8367 109.098 82.7439 108.555 82.5582 108.051C82.3726 107.547 82.0867 107.14 81.7003 106.83C81.3139 106.519 80.8215 106.364 80.223 106.364C79.6245 106.364 79.1321 106.519 78.7457 106.83C78.3594 107.14 78.0734 107.547 77.8878 108.051C77.7022 108.555 77.6094 109.098 77.6094 109.682C77.6094 110.265 77.7022 110.807 77.8878 111.307C78.0734 111.807 78.3594 112.21 78.7457 112.517C79.1321 112.824 79.6245 112.977 80.223 112.977ZM89.7699 114.182C88.9517 114.182 88.2472 113.989 87.6563 113.602C87.0654 113.216 86.6108 112.684 86.2926 112.006C85.9744 111.328 85.8154 110.553 85.8154 109.682C85.8154 108.795 85.9782 108.013 86.304 107.335C86.6335 106.653 87.0919 106.121 87.679 105.739C88.2699 105.352 88.9593 105.159 89.7472 105.159C90.3608 105.159 90.9138 105.273 91.4063 105.5C91.8987 105.727 92.3021 106.045 92.6165 106.455C92.9309 106.864 93.126 107.341 93.2017 107.886H91.8608C91.7585 107.489 91.5313 107.136 91.179 106.83C90.8305 106.519 90.3608 106.364 89.7699 106.364C89.2472 106.364 88.7888 106.5 88.3949 106.773C88.0047 107.042 87.6998 107.422 87.4801 107.915C87.2642 108.403 87.1563 108.977 87.1563 109.636C87.1563 110.311 87.2623 110.898 87.4744 111.398C87.6904 111.898 87.9934 112.286 88.3835 112.562C88.7775 112.839 89.2396 112.977 89.7699 112.977C90.1184 112.977 90.4347 112.917 90.7188 112.795C91.0029 112.674 91.2434 112.5 91.4404 112.273C91.6373 112.045 91.7775 111.773 91.8608 111.455H93.2017C93.126 111.97 92.9385 112.434 92.6392 112.847C92.3438 113.256 91.9517 113.581 91.4631 113.824C90.9782 114.062 90.4138 114.182 89.7699 114.182ZM100.662 110.432V105.273H102.003V114H100.662V112.523H100.571C100.366 112.966 100.048 113.343 99.6165 113.653C99.1847 113.96 98.6392 114.114 97.9801 114.114C97.4347 114.114 96.9498 113.994 96.5256 113.756C96.1013 113.513 95.768 113.15 95.5256 112.665C95.2832 112.176 95.1619 111.561 95.1619 110.818V105.273H96.5029V110.727C96.5029 111.364 96.6809 111.871 97.0369 112.25C97.3968 112.629 97.8551 112.818 98.4119 112.818C98.7453 112.818 99.0843 112.733 99.429 112.562C99.7775 112.392 100.069 112.131 100.304 111.778C100.543 111.426 100.662 110.977 100.662 110.432ZM110.641 107.227L109.436 107.568C109.36 107.367 109.249 107.172 109.101 106.983C108.957 106.79 108.76 106.631 108.51 106.506C108.26 106.381 107.94 106.318 107.55 106.318C107.016 106.318 106.571 106.441 106.214 106.688C105.862 106.93 105.686 107.239 105.686 107.614C105.686 107.947 105.807 108.21 106.05 108.403C106.292 108.597 106.671 108.758 107.186 108.886L108.482 109.205C109.262 109.394 109.843 109.684 110.226 110.074C110.608 110.46 110.8 110.958 110.8 111.568C110.8 112.068 110.656 112.515 110.368 112.909C110.084 113.303 109.686 113.614 109.175 113.841C108.663 114.068 108.069 114.182 107.391 114.182C106.5 114.182 105.764 113.989 105.18 113.602C104.597 113.216 104.228 112.652 104.072 111.909L105.345 111.591C105.466 112.061 105.696 112.413 106.033 112.648C106.374 112.883 106.819 113 107.368 113C107.993 113 108.489 112.867 108.857 112.602C109.228 112.333 109.413 112.011 109.413 111.636C109.413 111.333 109.307 111.08 109.095 110.875C108.883 110.667 108.557 110.511 108.118 110.409L106.663 110.068C105.864 109.879 105.277 109.585 104.902 109.188C104.531 108.786 104.345 108.284 104.345 107.682C104.345 107.189 104.483 106.754 104.76 106.375C105.04 105.996 105.421 105.699 105.902 105.483C106.387 105.267 106.936 105.159 107.55 105.159C108.413 105.159 109.091 105.348 109.584 105.727C110.08 106.106 110.432 106.606 110.641 107.227Z" fill="white"/>
<path d="M142.821 99C142.821 100.657 144.165 102.001 145.822 102.001C147.479 102.001 148.823 100.657 148.823 99C148.823 97.3426 147.479 95.999 145.822 95.999C144.165 95.999 142.821 97.3426 142.821 99ZM118.571 99C118.571 100.657 119.914 102.001 121.572 102.001C123.229 102.001 124.573 100.657 124.573 99C124.573 97.3426 123.229 95.999 121.572 95.999C119.914 95.999 118.571 97.3426 118.571 99ZM145.822 98.4373H121.572V99.5627H145.822V98.4373Z" fill="white"/>
<defs>
<linearGradient id="paint0_linear_664_1722" x1="248.469" y1="35.9047" x2="116.089" y2="140.928" gradientUnits="userSpaceOnUse">
<stop stop-color="#1A0076" stop-opacity="0.8"/>
<stop offset="1" stop-color="#1D0043" stop-opacity="0.9"/>
</linearGradient>
<linearGradient id="paint1_linear_664_1722" x1="189.833" y1="313.34" x2="334.391" y2="205.953" gradientUnits="userSpaceOnUse">
<stop stop-color="#1A0076" stop-opacity="0.8"/>
<stop offset="1" stop-color="#1D0043" stop-opacity="0.9"/>
</linearGradient>
<linearGradient id="paint2_linear_664_1722" x1="332.089" y1="49.6904" x2="208.33" y2="115.547" gradientUnits="userSpaceOnUse">
<stop stop-color="#1A0076" stop-opacity="0.8"/>
<stop offset="1" stop-color="#1D0043" stop-opacity="0.9"/>
</linearGradient>
<linearGradient id="paint3_linear_664_1722" x1="117.58" y1="295.612" x2="232.992" y2="226.369" gradientUnits="userSpaceOnUse">
<stop stop-color="#1A0076" stop-opacity="0.8"/>
<stop offset="1" stop-color="#1D0043" stop-opacity="0.9"/>
</linearGradient>
<linearGradient id="paint4_linear_664_1722" x1="259.577" y1="115.751" x2="165.842" y2="165.922" gradientUnits="userSpaceOnUse">
<stop stop-color="#1A0076" stop-opacity="0.8"/>
<stop offset="1" stop-color="#1D0043" stop-opacity="0.9"/>
</linearGradient>
</defs>
</svg>
