<svg width="100" height="100" viewBox="0 0 100 100" fill="none" xmlns="http://www.w3.org/2000/svg">
  <path fill-rule="evenodd" clip-rule="evenodd" d="M50.5 100C78.1142 100 100.5 77.6142 100.5 50C100.5 22.3858 78.1142 0 50.5 0C22.8858 0 0.5 22.3858 0.5 50C0.5 77.6142 22.8858 100 50.5 100ZM47.5159 15.3773C47.5159 15.6364 47.1754 16.5433 46.7564 17.3985C45.3944 20.2488 42.4871 22.3219 36.175 24.9131C28.9199 27.8672 26.1698 29.5515 23.9173 32.3242C21.9529 34.734 21.5863 36.0556 21.5863 40.5385C21.5863 42.4301 21.6386 43.959 21.7172 43.959C22.0577 43.959 23.9697 42.9224 32.0629 38.3618C34.2892 37.118 37.2488 35.4855 38.6108 34.7599C47.5945 29.9402 51.0518 27.8154 52.309 26.2606C53.6709 24.6022 54.1948 22.6328 53.7495 20.8708C53.409 19.5751 49.0088 14.9367 48.0921 14.9367C47.7255 14.9367 47.5159 15.0922 47.5159 15.3773ZM70.956 21.182C69.8036 21.8816 68.1535 22.8922 67.2892 23.4364C66.4511 23.9546 64.5915 25.5094 63.2295 26.8569C58.4103 31.573 56.3412 35.6413 56.8126 39.58C57.0745 41.7307 57.7031 42.7413 61.0556 46.2136C62.6533 47.898 64.2248 49.5823 64.5391 49.9969C65.9535 51.7849 68.2845 51.9922 70.7203 50.5411C71.5584 50.0228 72.8942 49.2713 73.68 48.8308C77.0063 46.991 80.2802 44.7107 80.516 44.0629C80.6731 43.7001 80.7779 42.845 80.7779 42.1454C80.7779 41.0829 80.6207 40.7202 79.7564 39.6318C79.2064 38.9581 78.0016 37.6884 77.1111 36.8332C76.2205 35.9781 75.0157 34.7084 74.4395 34.0088L73.418 32.739L73.4442 26.8828L73.4449 26.797V26.7968V26.7965V26.7963V26.7961C73.4905 20.5639 73.4952 19.93 73.3344 19.8849C73.3162 19.8798 73.2959 19.8822 73.2733 19.8849L73.2609 19.8864C73.1299 19.8864 72.1085 20.4823 70.956 21.182ZM42.0173 47.0686C40.5506 44.1923 42.1483 41.0828 46.208 38.9321C47.1247 38.4397 47.989 38.1028 48.0938 38.1547C48.1986 38.2324 48.3033 38.7766 48.3033 39.3985C48.3033 40.5386 49.22 42.1711 50.3201 42.9485C51.4987 43.8036 58.6228 51.422 58.9371 52.1734C59.5657 53.5986 59.4086 55.568 58.518 57.3819C57.7061 59.0662 55.5322 62.098 55.1131 62.098C54.9822 62.098 54.6679 61.6575 54.406 61.1133C54.1702 60.5951 52.9916 59.1699 51.8392 57.952C45.9199 51.8107 42.4888 48.0015 42.0173 47.0686ZM31.3805 47.5871C30.9091 47.6907 29.6257 48.2608 28.4995 48.8827C27.347 49.5046 25.4351 50.5152 24.2041 51.163C21.2182 52.6919 20.7992 53.1842 20.7992 55.0499C20.7992 56.0087 20.9563 56.7601 21.2706 57.2007C21.5063 57.5894 23.3659 59.6105 25.3827 61.6836L29.0495 65.4927L29.2066 67.3584C29.3114 68.3949 29.39 71.1417 29.4162 73.4479L29.4424 77.6976L31.1972 76.7388C36.1736 74.0439 41.6738 68.4468 43.3763 64.3785C43.7953 63.342 43.9525 62.4609 43.9525 60.673C43.9787 57.7189 43.743 57.3043 39.2118 52.3809C35.2307 48.0794 33.6068 47.0688 31.3805 47.5871ZM69.6194 59.3514C70.0647 59.17 72.6838 57.7448 75.4078 56.1641C78.1579 54.5835 80.4889 53.3397 80.6461 53.3656C80.777 53.4174 80.8556 54.9722 80.8032 57.1747C80.7246 61.4762 80.2532 63.316 78.8127 65.2854C77.765 66.6847 74.8577 68.8873 72.2386 70.2866C71.2433 70.8048 70.3266 71.3231 70.1694 71.4267C69.9337 71.6081 66.6598 73.0333 62.181 74.899C56.2093 77.3866 54.0616 79.5374 53.1449 83.9425C53.0664 84.3312 52.9092 84.6422 52.7782 84.6422C52.3592 84.6422 47.409 79.2264 47.0161 78.3454C46.5708 77.283 46.7804 75.1841 47.4875 73.8625C48.2209 72.4373 50.2377 70.4679 52.3854 69.0687C54.1926 67.8767 61.5786 63.7047 64.8002 62.0463C65.7431 61.554 67.0265 60.8284 67.6551 60.4397C68.3098 60.0251 69.1742 59.5587 69.6194 59.3514Z" fill="#ffffff"/>
</svg>
