<svg width="38" height="38" viewBox="0 0 38 38" fill="none" xmlns="http://www.w3.org/2000/svg">
<path d="M35.2054 15.1798H32.1088V2.88297C32.1088 1.84745 31.35 1 30.4139 1H2.69285C1.75988 1 1 1.84393 1 2.88179V6.25984L1.00106 22.2968C1.00106 23.3347 1.76094 24.1798 2.69497 24.1798H4.71921C4.71921 24.1798 4.71921 30.7775 4.71921 35.005C4.71921 36.1052 5.52448 36.9985 6.51339 36.9985H15.7639C16.7528 36.9985 17.557 36.1052 17.557 35.005V24.1798H20.8446V28.826C20.8446 29.925 21.6488 30.8195 22.6377 30.8195H35.2064C36.1953 30.8195 36.9995 29.9262 36.9995 28.826C36.9995 25.8312 36.9995 24.7498 36.9995 17.1745C36.9985 16.0755 36.1943 15.1798 35.2054 15.1798ZM21.6868 17.1745C21.6868 16.5926 22.1132 16.119 22.6367 16.119H35.2054C35.7289 16.119 36.1542 16.5926 36.1542 17.1745V18.8223H21.6868V17.1745ZM1.84537 2.88297C1.84537 2.36227 2.22637 1.93796 2.69497 1.93796H30.4149C30.8835 1.93796 31.2635 2.36109 31.2635 2.88179V5.32189H1.84537V2.88297ZM6.51233 16.119H15.7639C16.2874 16.119 16.7127 16.5926 16.7127 17.1745V19.0798H5.56248V17.1745C5.56248 16.5926 5.98886 16.119 6.51233 16.119ZM15.7639 36.0605H6.51233C5.98886 36.0605 5.56248 35.588 5.56248 35.005V20.0165H16.7127V35.005C16.7127 35.588 16.2874 36.0605 15.7639 36.0605ZM17.556 23.2418C17.556 19.9037 17.556 20.6301 17.556 17.1745C17.556 16.0755 16.7518 15.181 15.7629 15.181H6.51233C5.52343 15.181 4.71816 16.0755 4.71816 17.1745C4.71816 20.6266 4.71816 19.899 4.71816 23.2418H2.69497C2.22637 23.2418 1.84537 22.8175 1.84537 22.2968V6.25984H31.2645V15.181H22.6367C21.6478 15.181 20.8435 16.0755 20.8435 17.1745C20.8435 24.8509 20.8435 16.0625 20.8435 23.2418H17.556ZM36.1552 28.826C36.1552 29.4079 35.7289 29.8815 35.2054 29.8815H22.6367C22.1132 29.8815 21.6879 29.409 21.6879 28.826V19.7603H36.1552V28.826Z" fill="#02010A" stroke="#02010A" stroke-width="0.2"/>
</svg>
