
    <svg width="1080" height="1350" viewBox="0 0 1080 1350" fill="none" xmlns="http://www.w3.org/2000/svg">
      
    <defs>
      <linearGradient id="bgGradient" x1="120" y1="80" x2="1000" y2="1310" gradientUnits="userSpaceOnUse">
        <stop offset="0" stop-color="#090212" />
        <stop offset="0.46" stop-color="#120127" />
        <stop offset="1" stop-color="#1E0337" />
      </linearGradient>
      <linearGradient id="titleGradient" x1="120" y1="240" x2="700" y2="560" gradientUnits="userSpaceOnUse">
        <stop offset="0" stop-color="#C45BFF" />
        <stop offset="1" stop-color="#79CAFF" />
      </linearGradient>
      <linearGradient id="panelLine" x1="690" y1="260" x2="950" y2="1050" gradientUnits="userSpaceOnUse">
        <stop offset="0" stop-color="#C45BFF" />
        <stop offset="1" stop-color="#59B8FF" />
      </linearGradient>
      <radialGradient id="glowLeft" cx="0" cy="0" r="1" gradientUnits="userSpaceOnUse" gradientTransform="translate(220 270) rotate(22) scale(420 320)">
        <stop stop-color="#C45BFF" stop-opacity="0.5" />
        <stop offset="1" stop-color="#C45BFF" stop-opacity="0" />
      </radialGradient>
      <radialGradient id="glowRight" cx="0" cy="0" r="1" gradientUnits="userSpaceOnUse" gradientTransform="translate(900 1040) rotate(-15) scale(360 280)">
        <stop stop-color="#79CAFF" stop-opacity="0.28" />
        <stop offset="1" stop-color="#79CAFF" stop-opacity="0" />
      </radialGradient>
      <filter id="blurSoft" x="-80" y="-80" width="1240" height="1510" filterUnits="userSpaceOnUse" color-interpolation-filters="sRGB">
        <feGaussianBlur stdDeviation="50" />
      </filter>
      <pattern id="gridPattern" x="0" y="0" width="42" height="42" patternUnits="userSpaceOnUse">
        <path d="M 42 0 L 0 0 0 42" stroke="#7F2FB5" stroke-opacity="0.16" stroke-width="1" />
      </pattern>
    </defs>
  
      <rect width="1080" height="1350" fill="url(#bgGradient)" />
      <rect width="1080" height="1350" fill="url(#gridPattern)" opacity="0.44" />
      <g filter="url(#blurSoft)">
        <ellipse cx="248" cy="278" rx="300" ry="220" fill="url(#glowLeft)" />
        <ellipse cx="874" cy="1040" rx="280" ry="220" fill="url(#glowRight)" />
      </g>
      <rect x="44" y="44" width="992" height="1262" rx="38" fill="rgba(11, 1, 34, 0.58)" stroke="rgba(146, 56, 214, 0.3)" stroke-width="2" />

      
    <g transform="translate(98 92) scale(1.55)">
      <path d="M12.4643 0.202185C12.4643 0.321143 12.3054 0.737495 12.1099 1.13006C11.4745 2.43859 10.1182 3.39026 7.17336 4.57984C3.78865 5.93596 2.50563 6.70918 1.45479 7.98203C0.538347 9.08834 0.367279 9.69503 0.367279 11.753C0.367279 12.6214 0.391717 13.3232 0.428375 13.3232C0.587224 13.3232 1.47922 12.8474 5.25495 10.7538C6.29358 10.1828 7.67435 9.43332 8.30974 9.10024C12.5009 6.88762 14.1139 5.91216 14.7004 5.19842C15.3358 4.43709 15.5802 3.53301 15.3724 2.72409C15.2136 2.1293 13.1608 -4.3869e-05 12.7331 -4.3869e-05C12.562 -4.3869e-05 12.4643 0.071331 12.4643 0.202185Z" fill="#F8F2FF"/><path d="M23.3988 2.86702C22.8611 3.18821 22.0913 3.65214 21.6881 3.90195C21.2971 4.13987 20.4295 4.85362 19.7941 5.4722C17.5458 7.63723 16.5805 9.50487 16.8004 11.313C16.9226 12.3004 17.2159 12.7643 18.7799 14.3584C19.5253 15.1316 20.2585 15.9048 20.4051 16.0951C21.0649 16.9159 22.1524 17.0111 23.2888 16.345C23.6798 16.107 24.303 15.7621 24.6696 15.5598C26.2214 14.7152 27.7488 13.6684 27.8588 13.371C27.9321 13.2045 27.981 12.8119 27.981 12.4907C27.981 12.003 27.9077 11.8364 27.5044 11.3368C27.2478 11.0275 26.6857 10.4446 26.2703 10.0521C25.8548 9.65952 25.2928 9.07662 25.0239 8.75544L24.5474 8.17254L24.5596 5.48409C24.584 2.20086 24.584 2.26033 24.4741 2.27223C24.413 2.27223 23.9364 2.54583 23.3988 2.86702Z" fill="#F8F2FF"/><path d="M11.8533 11.0156C9.95932 12.0029 9.21395 13.4304 9.89822 14.7508C10.1182 15.1791 11.7189 16.9278 14.4804 19.7471C15.0181 20.3062 15.5679 20.9604 15.6779 21.1984C15.8001 21.4482 15.9467 21.6504 16.0078 21.6504C16.2033 21.6504 17.2175 20.2586 17.5963 19.4854C18.0118 18.6527 18.0851 17.7486 17.7918 17.0943C17.6452 16.7493 14.3216 13.252 13.7717 12.8594C13.2585 12.5025 12.8308 11.7531 12.8308 11.2297C12.8308 10.9442 12.7819 10.6944 12.7331 10.6587C12.6842 10.6349 12.281 10.7895 11.8533 11.0156Z" fill="#F8F2FF"/><path d="M4.93655 14.9891C4.7166 15.0367 4.11786 15.2984 3.59244 15.5839C3.05479 15.8694 2.16279 16.3333 1.58849 16.6307C0.195507 17.3326 0 17.5586 0 18.4151C0 18.8552 0.073315 19.2002 0.219945 19.4024C0.329918 19.5809 1.19748 20.5087 2.13836 21.4604L3.84904 23.2091L3.92236 24.0656C3.97123 24.5414 4.00789 25.8024 4.02011 26.8611L4.03233 28.812L4.85101 28.3719C7.17266 27.1347 9.73868 24.5652 10.5329 22.6976C10.7284 22.2217 10.8018 21.8173 10.8018 20.9965C10.814 19.6404 10.704 19.45 8.59008 17.1898C6.73277 15.2151 5.97518 14.7512 4.93655 14.9891Z" fill="#F8F2FF"/><path d="M25.4749 18.9265C24.2041 19.6522 22.9822 20.3064 22.7745 20.3897C22.5667 20.4849 22.1635 20.699 21.858 20.8893C21.5648 21.0678 20.966 21.4008 20.5261 21.6269C19.0232 22.3882 15.5774 24.3034 14.7342 24.8506C13.7323 25.493 12.7914 26.3971 12.4493 27.0514C12.1193 27.658 12.0216 28.6216 12.2293 29.1093C12.4126 29.5138 14.722 32 14.9175 32C14.9786 32 15.0519 31.8573 15.0886 31.6788C15.5163 29.6565 16.5182 28.6692 19.3042 27.5272C21.3937 26.6707 22.9211 26.0164 23.0311 25.9331C23.1044 25.8856 23.5321 25.6476 23.9964 25.4097C25.2183 24.7674 26.5746 23.7562 27.0634 23.1138C27.7354 22.2098 27.9554 21.3652 27.992 19.3905C28.0165 18.3793 27.9798 17.6656 27.9187 17.6418C27.8454 17.6299 26.7579 18.2009 25.4749 18.9265Z" fill="#F8F2FF"/>
    </g>
  
      <text x="154" y="128" fill="#F8F2FF" font-family="IBM Plex Sans, Helvetica, Arial, sans-serif" font-size="28" font-weight="700" letter-spacing="0.08em">TENBELTZ</text>

      <g transform="translate(770 86)">
        <rect width="208" height="46" rx="16" fill="rgba(16, 2, 33, 0.78)" stroke="rgba(146, 56, 214, 0.32)" />
        <text x="104" y="30" text-anchor="middle" fill="#DCCAF2" font-family="IBM Plex Sans, Helvetica, Arial, sans-serif" font-size="18" font-weight="600" letter-spacing="0.08em">POR QUE IMPORTAN</text>
      </g>

      <g transform="translate(942 154)">
        <circle r="44" fill="rgba(18, 1, 39, 0.9)" stroke="rgba(121, 202, 255, 0.38)" stroke-width="2" />
        <text y="11" text-anchor="middle" fill="#F8F2FF" font-family="IBM Plex Sans, Helvetica, Arial, sans-serif" font-size="34" font-weight="800">03</text>
      </g>

      <g transform="translate(690 206)">
        <rect width="294" height="936" rx="30" fill="rgba(16, 2, 33, 0.82)" stroke="rgba(126, 59, 197, 0.36)" stroke-width="2" />
        
    <text x="34" y="58" fill="#DCCAF2" font-family="IBM Plex Sans, Helvetica, Arial, sans-serif" font-size="18" font-weight="700" letter-spacing="0.12em">SIN VS CON EVALS</text>
    <text x="34" y="102" fill="#BFA9E3" font-family="IBM Plex Sans, Helvetica, Arial, sans-serif" font-size="16" font-weight="600">sin criterio comun</text>
    <text x="168" y="102" fill="#BFA9E3" font-family="IBM Plex Sans, Helvetica, Arial, sans-serif" font-size="16" font-weight="600">con criterio comun</text>
    <rect x="28" y="126" width="108" height="264" rx="22" fill="rgba(16, 2, 33, 0.78)" />
    <rect x="158" y="126" width="108" height="264" rx="22" fill="rgba(16, 2, 33, 0.78)" />
    <path d="M44 340C58 238 76 318 92 206C104 124 118 284 126 182" stroke="#FF7AA8" stroke-width="7" stroke-linecap="round" />
    <path d="M174 332C188 318 206 294 222 276C234 262 244 222 250 182" stroke="url(#panelLine)" stroke-width="7" stroke-linecap="round" />
    
          <g transform="translate(28 434)">
            <rect width="238" height="84" rx="20" fill="rgba(15, 2, 30, 0.72)" stroke="rgba(191, 169, 227, 0.1)" />
            <text x="18" y="34" fill="#F8F2FF" font-family="IBM Plex Sans, Helvetica, Arial, sans-serif" font-size="18" font-weight="700" letter-spacing="0.06em">RELEASE</text>
            <text x="18" y="60" fill="#BFA9E3" font-family="IBM Plex Sans, Helvetica, Arial, sans-serif" font-size="16" font-weight="500">umbral antes de enviar</text>
          </g>
        
          <g transform="translate(28 542)">
            <rect width="238" height="84" rx="20" fill="rgba(15, 2, 30, 0.72)" stroke="rgba(191, 169, 227, 0.1)" />
            <text x="18" y="34" fill="#F8F2FF" font-family="IBM Plex Sans, Helvetica, Arial, sans-serif" font-size="18" font-weight="700" letter-spacing="0.06em">REGRESION</text>
            <text x="18" y="60" fill="#BFA9E3" font-family="IBM Plex Sans, Helvetica, Arial, sans-serif" font-size="16" font-weight="500">comparas cambios</text>
          </g>
        
          <g transform="translate(28 650)">
            <rect width="238" height="84" rx="20" fill="rgba(15, 2, 30, 0.72)" stroke="rgba(191, 169, 227, 0.1)" />
            <text x="18" y="34" fill="#F8F2FF" font-family="IBM Plex Sans, Helvetica, Arial, sans-serif" font-size="18" font-weight="700" letter-spacing="0.06em">ALINEACION</text>
            <text x="18" y="60" fill="#BFA9E3" font-family="IBM Plex Sans, Helvetica, Arial, sans-serif" font-size="16" font-weight="500">producto e ingenieria</text>
          </g>
        
          <g transform="translate(28 758)">
            <rect width="238" height="84" rx="20" fill="rgba(15, 2, 30, 0.72)" stroke="rgba(191, 169, 227, 0.1)" />
            <text x="18" y="34" fill="#F8F2FF" font-family="IBM Plex Sans, Helvetica, Arial, sans-serif" font-size="18" font-weight="700" letter-spacing="0.06em">RIESGO</text>
            <text x="18" y="60" fill="#BFA9E3" font-family="IBM Plex Sans, Helvetica, Arial, sans-serif" font-size="16" font-weight="500">menos apuestas ciegas</text>
          </g>
        
  
      </g>

      
      
        <text x="104" y="252" fill="#F8F2FF" font-family="IBM Plex Sans, Helvetica, Arial, sans-serif" font-size="76" font-weight="800" letter-spacing="-0.04em">
          Por que importan
        </text>
      
        <text x="104" y="336" fill="url(#titleGradient)" font-family="IBM Plex Sans, Helvetica, Arial, sans-serif" font-size="76" font-weight="800" letter-spacing="-0.04em">
          las evals
        </text>
      
      
    <text x="104" y="402" fill="#DCCAF2" font-family="IBM Plex Sans, Helvetica, Arial, sans-serif" font-size="28" font-weight="500">
      <tspan x="104" y="402">Porque sin evals cada iteracion es</tspan><tspan x="104" y="440">una apuesta. Con evals, cada cambio</tspan><tspan x="104" y="478">tiene criterio.</tspan>
    </text>
  
      
    <g transform="translate(104 520)">
      <rect width="520" height="132" rx="24" fill="rgba(16, 2, 33, 0.82)" stroke="rgba(146, 56, 214, 0.28)" />
      <text x="24" y="42" fill="#C45BFF" font-family="IBM Plex Sans, Helvetica, Arial, sans-serif" font-size="18" font-weight="700" letter-spacing="0.12em">01</text>
      <text x="24" y="78" fill="#F8F2FF" font-family="IBM Plex Sans, Helvetica, Arial, sans-serif" font-size="28" font-weight="700">Release con umbral</text>
      
    <text x="24" y="112" fill="#DCCAF2" font-family="IBM Plex Sans, Helvetica, Arial, sans-serif" font-size="22" font-weight="500">
      <tspan x="24" y="112">Defines cuando una version</tspan><tspan x="24" y="142">esta lista para salir.</tspan>
    </text>
  
    </g>
  
      
    <g transform="translate(104 670)">
      <rect width="520" height="132" rx="24" fill="rgba(16, 2, 33, 0.82)" stroke="rgba(146, 56, 214, 0.28)" />
      <text x="24" y="42" fill="#C45BFF" font-family="IBM Plex Sans, Helvetica, Arial, sans-serif" font-size="18" font-weight="700" letter-spacing="0.12em">02</text>
      <text x="24" y="78" fill="#F8F2FF" font-family="IBM Plex Sans, Helvetica, Arial, sans-serif" font-size="28" font-weight="700">Detectan regresiones</text>
      
    <text x="24" y="112" fill="#DCCAF2" font-family="IBM Plex Sans, Helvetica, Arial, sans-serif" font-size="22" font-weight="500">
      <tspan x="24" y="112">Un cambio puede arreglar un</tspan><tspan x="24" y="142">caso y romper otros diez.</tspan>
    </text>
  
    </g>
  
      
    <g transform="translate(104 820)">
      <rect width="520" height="132" rx="24" fill="rgba(16, 2, 33, 0.82)" stroke="rgba(146, 56, 214, 0.28)" />
      <text x="24" y="42" fill="#C45BFF" font-family="IBM Plex Sans, Helvetica, Arial, sans-serif" font-size="18" font-weight="700" letter-spacing="0.12em">03</text>
      <text x="24" y="78" fill="#F8F2FF" font-family="IBM Plex Sans, Helvetica, Arial, sans-serif" font-size="28" font-weight="700">Alinean al equipo</text>
      
    <text x="24" y="112" fill="#DCCAF2" font-family="IBM Plex Sans, Helvetica, Arial, sans-serif" font-size="22" font-weight="500">
      <tspan x="24" y="112">Producto, negocio e ingenieria</tspan><tspan x="24" y="142">miran la misma definicion de</tspan><tspan x="24" y="172">funciona.</tspan>
    </text>
  
    </g>
  
      
    <g transform="translate(104 970)">
      <rect width="520" height="132" rx="24" fill="rgba(16, 2, 33, 0.82)" stroke="rgba(146, 56, 214, 0.28)" />
      <text x="24" y="42" fill="#C45BFF" font-family="IBM Plex Sans, Helvetica, Arial, sans-serif" font-size="18" font-weight="700" letter-spacing="0.12em">04</text>
      <text x="24" y="78" fill="#F8F2FF" font-family="IBM Plex Sans, Helvetica, Arial, sans-serif" font-size="28" font-weight="700">Reducen riesgo</text>
      
    <text x="24" y="112" fill="#DCCAF2" font-family="IBM Plex Sans, Helvetica, Arial, sans-serif" font-size="22" font-weight="500">
      <tspan x="24" y="112">Comparas opciones con</tspan><tspan x="24" y="142">evidencia y no solo con demos</tspan><tspan x="24" y="172">bonitas.</tspan>
    </text>
  
    </g>
  
    

      <line x1="92" y1="1208" x2="988" y2="1208" stroke="rgba(191, 169, 227, 0.18)" />
      <text x="98" y="1252" fill="#DCCAF2" font-family="IBM Plex Sans, Helvetica, Arial, sans-serif" font-size="22" font-weight="600">Por que importan las evals</text>
      <text x="984" y="1252" text-anchor="end" fill="#BFA9E3" font-family="IBM Plex Sans, Helvetica, Arial, sans-serif" font-size="20" font-weight="500">tenbeltz.com</text>
    </svg>
  