<svg xmlns="http://www.w3.org/2000/svg" width="1200" height="800" viewBox="0 0 1200 800"><rect width="1200" height="800" fill="#eeeee7"/><g opacity=".4"><path d="M110 255V655" stroke="#d9dcd4" stroke-width="1" fill="none" stroke-linecap="round" stroke-linejoin="round"/><path d="M180 255V655" stroke="#d9dcd4" stroke-width="1" fill="none" stroke-linecap="round" stroke-linejoin="round"/><path d="M250 255V655" stroke="#d9dcd4" stroke-width="1" fill="none" stroke-linecap="round" stroke-linejoin="round"/><path d="M320 255V655" stroke="#d9dcd4" stroke-width="1" fill="none" stroke-linecap="round" stroke-linejoin="round"/><path d="M390 255V655" stroke="#d9dcd4" stroke-width="1" fill="none" stroke-linecap="round" stroke-linejoin="round"/><path d="M460 255V655" stroke="#d9dcd4" stroke-width="1" fill="none" stroke-linecap="round" stroke-linejoin="round"/><path d="M530 255V655" stroke="#d9dcd4" stroke-width="1" fill="none" stroke-linecap="round" stroke-linejoin="round"/><path d="M600 255V655" stroke="#d9dcd4" stroke-width="1" fill="none" stroke-linecap="round" stroke-linejoin="round"/><path d="M670 255V655" stroke="#d9dcd4" stroke-width="1" fill="none" stroke-linecap="round" stroke-linejoin="round"/><path d="M740 255V655" stroke="#d9dcd4" stroke-width="1" fill="none" stroke-linecap="round" stroke-linejoin="round"/><path d="M810 255V655" stroke="#d9dcd4" stroke-width="1" fill="none" stroke-linecap="round" stroke-linejoin="round"/><path d="M880 255V655" stroke="#d9dcd4" stroke-width="1" fill="none" stroke-linecap="round" stroke-linejoin="round"/><path d="M950 255V655" stroke="#d9dcd4" stroke-width="1" fill="none" stroke-linecap="round" stroke-linejoin="round"/><path d="M1020 255V655" stroke="#d9dcd4" stroke-width="1" fill="none" stroke-linecap="round" stroke-linejoin="round"/><path d="M1090 255V655" stroke="#d9dcd4" stroke-width="1" fill="none" stroke-linecap="round" stroke-linejoin="round"/><path d="M110 270H1090" stroke="#d9dcd4" stroke-width="1" fill="none" stroke-linecap="round" stroke-linejoin="round"/><path d="M110 340H1090" stroke="#d9dcd4" stroke-width="1" fill="none" stroke-linecap="round" stroke-linejoin="round"/><path d="M110 410H1090" stroke="#d9dcd4" stroke-width="1" fill="none" stroke-linecap="round" stroke-linejoin="round"/><path d="M110 480H1090" stroke="#d9dcd4" stroke-width="1" fill="none" stroke-linecap="round" stroke-linejoin="round"/><path d="M110 550H1090" stroke="#d9dcd4" stroke-width="1" fill="none" stroke-linecap="round" stroke-linejoin="round"/><path d="M110 620H1090" stroke="#d9dcd4" stroke-width="1" fill="none" stroke-linecap="round" stroke-linejoin="round"/></g><g font-family="Arial,sans-serif"><text x="80" y="85" font-size="18" fill="#676b65" text-anchor="start" letter-spacing="3">TENBELTZ / SYSTEM STUDY</text><text x="80" y="165" font-size="45" fill="#252826" text-anchor="start">Biiak / Private AI platform</text><text x="80" y="218" font-size="25" fill="#676b65" text-anchor="start">Case files, knowledge and professional review</text><rect x="90" y="335" width="237" height="244" rx="7" fill="#f7f6f2" stroke="#d9dcd4" stroke-width="2"/><path d="M116 366h73l20 23h84v142H116z" stroke="#583346" stroke-width="3" fill="none" stroke-linecap="round" stroke-linejoin="round"/><path d="M143 427h125M143 450h98M143 473h113" stroke="#676b65" stroke-width="3" fill="none" stroke-linecap="round" stroke-linejoin="round"/><text x="207" y="615" font-size="24" fill="#676b65" text-anchor="middle">Case files</text><path d="M327 449H458" stroke="#583346" stroke-width="3" fill="none" stroke-linecap="round" stroke-linejoin="round"/><rect x="458" y="301" width="300" height="296" rx="7" fill="#583346" stroke="#583346" stroke-width="2"/><path d="M608 344l66 24v61c0 45-36 69-66 82-30-13-66-37-66-82v-61z" stroke="#c0a6b4" stroke-width="3" fill="none" stroke-linecap="round" stroke-linejoin="round"/><rect x="584" y="404" width="48" height="38" rx="4" fill="#f7f6f2" stroke="#f7f6f2" stroke-width="2"/><path d="M594 404v-13a14 14 0 0 1 28 0v13" stroke="#f7f6f2" stroke-width="3" fill="none" stroke-linecap="round" stroke-linejoin="round"/><text x="608" y="550" font-size="25" fill="#f7f6f2" text-anchor="middle" letter-spacing="1">LOCAL AI</text><path d="M758 449H876" stroke="#583346" stroke-width="3" fill="none" stroke-linecap="round" stroke-linejoin="round"/><rect x="876" y="335" width="238" height="244" rx="7" fill="#f7f6f2" stroke="#d9dcd4" stroke-width="2"/><text x="900" y="385" font-size="25" fill="#252826" text-anchor="start">Sources</text><path d="M900 416h185M900 442h155M900 468h175" stroke="#676b65" stroke-width="3" fill="none" stroke-linecap="round" stroke-linejoin="round"/><circle cx="921" cy="527" r="17" fill="#583346" stroke="#583346" stroke-width="2"/><path d="M913 527l6 6 10-12" stroke="#f7f6f2" stroke-width="3" fill="none" stroke-linecap="round" stroke-linejoin="round"/><text x="951" y="535" font-size="27" fill="#583346" text-anchor="start">[1] [2]</text><text x="608" y="650" font-size="24" fill="#676b65" text-anchor="middle">Roles + audit trail</text><text x="994" y="615" font-size="24" fill="#676b65" text-anchor="middle">Review</text><path d="M80 710H1120" stroke="#d9dcd4" stroke-width="2" fill="none" stroke-linecap="round" stroke-linejoin="round"/><text x="80" y="754" font-size="16" fill="#676b65" text-anchor="start" letter-spacing="3">AI ENGINEERING</text><text x="1120" y="754" font-size="16" fill="#583346" text-anchor="end" letter-spacing="3">TENBELTZ</text></g></svg>