<svg xmlns="http://www.w3.org/2000/svg" width="1200" height="800" viewBox="0 0 1200 800"><rect width="1200" height="800" fill="#eeeee7"/><g opacity=".4"><path d="M110 255V655" stroke="#d9dcd4" stroke-width="1" fill="none" stroke-linecap="round" stroke-linejoin="round"/><path d="M180 255V655" stroke="#d9dcd4" stroke-width="1" fill="none" stroke-linecap="round" stroke-linejoin="round"/><path d="M250 255V655" stroke="#d9dcd4" stroke-width="1" fill="none" stroke-linecap="round" stroke-linejoin="round"/><path d="M320 255V655" stroke="#d9dcd4" stroke-width="1" fill="none" stroke-linecap="round" stroke-linejoin="round"/><path d="M390 255V655" stroke="#d9dcd4" stroke-width="1" fill="none" stroke-linecap="round" stroke-linejoin="round"/><path d="M460 255V655" stroke="#d9dcd4" stroke-width="1" fill="none" stroke-linecap="round" stroke-linejoin="round"/><path d="M530 255V655" stroke="#d9dcd4" stroke-width="1" fill="none" stroke-linecap="round" stroke-linejoin="round"/><path d="M600 255V655" stroke="#d9dcd4" stroke-width="1" fill="none" stroke-linecap="round" stroke-linejoin="round"/><path d="M670 255V655" stroke="#d9dcd4" stroke-width="1" fill="none" stroke-linecap="round" stroke-linejoin="round"/><path d="M740 255V655" stroke="#d9dcd4" stroke-width="1" fill="none" stroke-linecap="round" stroke-linejoin="round"/><path d="M810 255V655" stroke="#d9dcd4" stroke-width="1" fill="none" stroke-linecap="round" stroke-linejoin="round"/><path d="M880 255V655" stroke="#d9dcd4" stroke-width="1" fill="none" stroke-linecap="round" stroke-linejoin="round"/><path d="M950 255V655" stroke="#d9dcd4" stroke-width="1" fill="none" stroke-linecap="round" stroke-linejoin="round"/><path d="M1020 255V655" stroke="#d9dcd4" stroke-width="1" fill="none" stroke-linecap="round" stroke-linejoin="round"/><path d="M1090 255V655" stroke="#d9dcd4" stroke-width="1" fill="none" stroke-linecap="round" stroke-linejoin="round"/><path d="M110 270H1090" stroke="#d9dcd4" stroke-width="1" fill="none" stroke-linecap="round" stroke-linejoin="round"/><path d="M110 340H1090" stroke="#d9dcd4" stroke-width="1" fill="none" stroke-linecap="round" stroke-linejoin="round"/><path d="M110 410H1090" stroke="#d9dcd4" stroke-width="1" fill="none" stroke-linecap="round" stroke-linejoin="round"/><path d="M110 480H1090" stroke="#d9dcd4" stroke-width="1" fill="none" stroke-linecap="round" stroke-linejoin="round"/><path d="M110 550H1090" stroke="#d9dcd4" stroke-width="1" fill="none" stroke-linecap="round" stroke-linejoin="round"/><path d="M110 620H1090" stroke="#d9dcd4" stroke-width="1" fill="none" stroke-linecap="round" stroke-linejoin="round"/></g><g font-family="Arial,sans-serif"><text x="80" y="85" font-size="18" fill="#676b65" text-anchor="start" letter-spacing="3">TENBELTZ / SYSTEM STUDY</text><text x="80" y="165" font-size="45" fill="#252826" text-anchor="start">Clasificación / Geometría + aprendizaje</text><text x="80" y="218" font-size="25" fill="#676b65" text-anchor="start">15 categorías. 77 subcategorías. Ensemble supervisado.</text><rect x="90" y="292" width="282" height="137" rx="7" fill="#f7f6f2" stroke="#d9dcd4" stroke-width="2"/><rect x="90" y="467" width="282" height="137" rx="7" fill="#f7f6f2" stroke="#d9dcd4" stroke-width="2"/><circle cx="135" cy="342" r="5" fill="#583346" stroke="#583346" stroke-width="2"/><circle cx="160" cy="359" r="5" fill="#583346" stroke="#583346" stroke-width="2"/><circle cx="142" cy="377" r="5" fill="#583346" stroke="#583346" stroke-width="2"/><circle cx="180" cy="341" r="5" fill="#583346" stroke="#583346" stroke-width="2"/><circle cx="194" cy="370" r="5" fill="#583346" stroke="#583346" stroke-width="2"/><circle cx="170" cy="391" r="5" fill="#583346" stroke="#583346" stroke-width="2"/><circle cx="211" cy="354" r="5" fill="#583346" stroke="#583346" stroke-width="2"/><text x="235" y="371" font-size="25" fill="#252826" text-anchor="start">154 sims</text><text x="118" y="523" font-size="28" fill="#583346" text-anchor="start">1024d</text><text x="118" y="571" font-size="26" fill="#252826" text-anchor="start">Embedding</text><path d="M372 360H405Q428 360 428 386V449H471M372 535H405Q428 535 428 509V449H471" stroke="#583346" stroke-width="3" fill="none" stroke-linecap="round" stroke-linejoin="round"/><rect x="472" y="330" width="285" height="234" rx="7" fill="#583346" stroke="#583346" stroke-width="2"/><text x="614" y="416" font-size="32" fill="#f7f6f2" text-anchor="middle">ENSEMBLE</text><text x="614" y="475" font-size="29" fill="#f7f6f2" text-anchor="middle">GeoMean</text><text x="614" y="523" font-size="17" fill="#d7c7cf" text-anchor="middle" letter-spacing="2">CPU / NO LLM</text><path d="M757 449H857" stroke="#583346" stroke-width="3" fill="none" stroke-linecap="round" stroke-linejoin="round"/><rect x="857" y="305" width="257" height="284" rx="7" fill="#f7f6f2" stroke="#d9dcd4" stroke-width="2"/><text x="881" y="352" font-size="18" fill="#583346" text-anchor="start">01</text><rect x="925" y="332" width="156" height="24" rx="3" fill="#583346" stroke="#583346" stroke-width="2"/><text x="881" y="399" font-size="18" fill="#583346" text-anchor="start">02</text><rect x="925" y="379" width="134" height="24" rx="3" fill="#ccc4c8" stroke="#ccc4c8" stroke-width="2"/><text x="881" y="446" font-size="18" fill="#583346" text-anchor="start">03</text><rect x="925" y="426" width="112" height="24" rx="3" fill="#ccc4c8" stroke="#ccc4c8" stroke-width="2"/><text x="881" y="493" font-size="18" fill="#583346" text-anchor="start">04</text><rect x="925" y="473" width="90" height="24" rx="3" fill="#ccc4c8" stroke="#ccc4c8" stroke-width="2"/><text x="881" y="540" font-size="18" fill="#583346" text-anchor="start">05</text><rect x="925" y="520" width="68" height="24" rx="3" fill="#ccc4c8" stroke="#ccc4c8" stroke-width="2"/><text x="230" y="656" font-size="24" fill="#676b65" text-anchor="middle">Dos señales</text><text x="615" y="656" font-size="24" fill="#676b65" text-anchor="middle">0 llamadas LLM generativo</text><text x="989" y="656" font-size="24" fill="#676b65" text-anchor="middle">Top-5</text><path d="M80 710H1120" stroke="#d9dcd4" stroke-width="2" fill="none" stroke-linecap="round" stroke-linejoin="round"/><text x="80" y="754" font-size="16" fill="#676b65" text-anchor="start" letter-spacing="3">AI ENGINEERING</text><text x="1120" y="754" font-size="16" fill="#583346" text-anchor="end" letter-spacing="3">TENBELTZ</text></g></svg>