<svg xmlns="http://www.w3.org/2000/svg" width="1200" height="800" viewBox="0 0 1200 800">
<defs><radialGradient id="paper"><stop stop-color="#f7f6f2"/><stop offset="1" stop-color="#e9e5e1"/></radialGradient><filter id="shadow" x="-40%" y="-40%" width="180%" height="180%"><feDropShadow dx="0" dy="18" stdDeviation="18" flood-color="#493440" flood-opacity=".10"/></filter></defs>
<rect width="1200" height="800" fill="url(#paper)"/>
<ellipse cx="610" cy="635" rx="330" ry="26" fill="#583346" opacity=".045"/>
<circle cx="795" cy="410" r="205" fill="#e4dadd" opacity=".55"/><g filter="url(#shadow)"><rect x="272" y="302" width="210" height="190" rx="38" fill="#f7f6f2"/><path d="M377 301v-35" fill="none" stroke="#583346" stroke-width="5" stroke-linecap="round" stroke-linejoin="round"/><circle cx="377" cy="255" r="10" fill="#583346"/><circle cx="343" cy="377" r="10" fill="#583346"/><circle cx="411" cy="377" r="10" fill="#583346"/><path d="M352 426q25 16 50 0" fill="none" stroke="#583346" stroke-width="5" stroke-linecap="round" stroke-linejoin="round"/><path d="M290 362v-10a87 87 0 0 1 174 0v47" fill="none" stroke="#583346" stroke-width="8" stroke-linecap="round" stroke-linejoin="round"/><rect x="278" y="361" width="20" height="49" rx="9" fill="#583346"/><rect x="455" y="361" width="20" height="49" rx="9" fill="#583346"/><path d="M464 409v22q0 17-20 17h-15" fill="none" stroke="#583346" stroke-width="5" stroke-linecap="round" stroke-linejoin="round"/></g><path d="M535 405h75m-17-17 17 17-17 17" fill="none" stroke="#b6a1ab" stroke-width="5" stroke-linecap="round" stroke-linejoin="round"/><g filter="url(#shadow)"><rect x="680" y="302" width="230" height="206" rx="36" fill="#583346"/><rect x="720" y="260" width="150" height="24" rx="12" fill="#b6a1ab"/><rect x="720" y="526" width="150" height="24" rx="12" fill="#b6a1ab"/><rect x="638" y="343" width="24" height="126" rx="12" fill="#b6a1ab"/><rect x="928" y="343" width="24" height="126" rx="12" fill="#b6a1ab"/><circle cx="795" cy="405" r="44" fill="#f7f6f2"/><path d="M775 406l14 14 28-33" fill="none" stroke="#583346" stroke-width="6" stroke-linecap="round" stroke-linejoin="round"/></g></svg>